<svg width="188" height="164" viewBox="0 0 188 164" fill="none" xmlns="http://www.w3.org/2000/svg">
<g id="#344_salesman_flatline">
<path id="Vector" d="M96.2438 61.8126L57.8914 97.5504L71.9166 128.343L109.587 105.252L96.2438 61.8126Z" fill="#405BEC"/>
<path id="Vector_2" d="M173.262 157.559L182.711 125.544C182.711 125.544 179.301 76.5341 165.787 59.1413C145.765 48.356 104.685 50.8996 96.2584 61.8127C87.832 72.7259 102.738 158.326 102.738 158.326L173.262 157.559Z" fill="#405BEC"/>
<path id="Vector_3" d="M107.044 14.1955C107.271 14.3518 107.498 14.5082 107.74 14.6502C104.315 12.533 108.948 2.79925 110.355 0.724609C112.855 3.85077 117.019 5.15808 120.998 5.61279C124.976 6.06751 129.04 5.81173 132.962 6.57906C136.884 7.34639 140.877 9.42103 142.554 13.0587C142.398 12.7177 145.012 12.9167 145.254 13.0587C146.525 13.6703 147.515 14.7422 148.025 16.057C148.643 17.6895 148.932 19.4279 148.877 21.1726C148.948 28.6017 147.155 35.9301 143.662 42.4873C142.353 45.1779 140.477 47.5532 138.163 49.4501C132.607 53.7131 125.929 50.2743 120.543 47.2334C107.854 40.1285 104.671 24.1993 103.491 10.7568C104.472 12.0958 105.673 13.2586 107.044 14.1955Z" fill="white"/>
<path id="Vector_4" d="M132.265 52.1501C127.761 52.1501 123.27 49.6208 120.172 47.8871C106.773 40.3417 103.845 23.1194 102.794 10.8421C102.78 10.6827 102.818 10.5231 102.903 10.3873C102.987 10.2515 103.114 10.1468 103.263 10.089C103.413 10.0307 103.579 10.0242 103.733 10.0705C103.887 10.1169 104.022 10.2134 104.115 10.3448C104.616 11.0245 105.172 11.6614 105.778 12.2489C105.522 8.17066 108.79 1.7336 109.742 0.326826C109.809 0.231957 109.895 0.153284 109.996 0.0966877C110.097 0.0400915 110.21 0.0070379 110.325 0C110.439 0.0018356 110.551 0.0281615 110.654 0.0771951C110.757 0.126229 110.849 0.196823 110.922 0.284195C112.954 2.81355 116.378 4.36242 121.082 4.88819C122.659 5.07291 124.308 5.14396 125.885 5.2008C128.305 5.2501 130.718 5.48286 133.103 5.89708C137.679 6.7923 141.203 9.06588 142.922 12.192C143.788 12.132 144.657 12.1845 145.509 12.3483C146.969 13.0249 148.121 14.2275 148.734 15.7161C149.395 17.4372 149.704 19.2732 149.644 21.1158C149.724 28.6911 147.891 36.1641 144.315 42.8427C142.962 45.6262 141.023 48.0839 138.631 50.0471C136.806 51.4442 134.563 52.1851 132.265 52.1501ZM104.471 13.002C105.664 24.7251 108.904 39.8444 120.897 46.6083C126.652 49.8623 132.691 52.7043 137.722 48.8818C139.969 47.0474 141.787 44.7437 143.05 42.1322C146.492 35.6719 148.251 28.4492 148.166 21.13C148.223 19.4828 147.952 17.8407 147.37 16.2987C146.942 15.1731 146.112 14.2464 145.04 13.6983C144.385 13.6142 143.724 13.5857 143.064 13.613C143.008 13.659 142.946 13.6973 142.88 13.7267C142.793 13.7673 142.699 13.7903 142.604 13.7943C142.508 13.7984 142.412 13.7835 142.323 13.7505C142.233 13.7175 142.15 13.667 142.08 13.6019C142.01 13.5368 141.953 13.4585 141.913 13.3715C139.967 9.1085 134.922 7.68752 132.848 7.30386C130.538 6.90589 128.2 6.69207 125.856 6.66441C124.251 6.66441 122.574 6.52232 120.94 6.33759C116.322 5.81183 112.812 4.34821 110.496 1.96096C109.16 4.36242 106.744 9.90426 107.355 12.7604C107.393 13.0148 107.484 13.2584 107.621 13.4761C107.758 13.6938 107.938 13.8807 108.151 14.0251C108.303 14.1348 108.408 14.2982 108.444 14.4822C108.48 14.6662 108.445 14.8571 108.345 15.0161C108.246 15.1752 108.09 15.2905 107.909 15.3386C107.727 15.3868 107.535 15.3643 107.369 15.2756L106.645 14.7924C105.867 14.2635 105.139 13.6642 104.471 13.002Z" fill="#231F20"/>
<path id="Vector_5" d="M119.377 49.166L119.263 61.4575C119.263 61.4575 121.409 68.2498 129.281 65.8483C131.538 65.1532 133.559 63.8466 135.119 62.0733C136.679 60.3 137.718 58.1294 138.12 55.802V33.7625C138.12 33.7625 133.317 29.3574 134.297 16.3981C126.655 19.0186 118.597 20.2131 110.524 19.9221C110.524 19.9221 109.629 36.2634 110.965 42.3879C112.3 48.5123 119.377 49.166 119.377 49.166Z" fill="white"/>
<path id="Vector_6" d="M126.097 67.0988C124.439 67.0761 122.827 66.5448 121.48 65.5765C120.133 64.6083 119.116 63.2498 118.566 61.6848C118.552 61.6097 118.552 61.5326 118.566 61.4575L118.665 49.7912C116.776 49.4217 111.475 47.9439 110.296 42.5442C108.96 36.3913 109.813 20.5615 109.841 19.8937C109.846 19.7953 109.871 19.6991 109.915 19.611C109.959 19.523 110.021 19.445 110.097 19.3821C110.17 19.3171 110.256 19.2672 110.348 19.2355C110.441 19.2038 110.539 19.1909 110.637 19.1974C122.275 19.9789 133.984 15.7586 134.097 15.716C134.213 15.6747 134.337 15.6621 134.458 15.6794C134.579 15.6968 134.694 15.7435 134.794 15.8155C134.891 15.8904 134.969 15.9876 135.021 16.0988C135.073 16.2101 135.097 16.3322 135.092 16.4549C134.154 28.8175 138.63 33.1799 138.673 33.2225C138.75 33.2893 138.812 33.3722 138.854 33.4656C138.896 33.5589 138.916 33.6603 138.915 33.7625V55.8019C138.498 58.2843 137.403 60.6031 135.75 62.5016C134.097 64.4001 131.952 65.8043 129.55 66.5588C128.433 66.9114 127.269 67.0934 126.097 67.0988ZM120.001 61.4148C120.3 62.239 122.431 67.2551 129.067 65.2231C131.201 64.568 133.108 63.3293 134.575 61.6469C136.041 59.9645 137.008 57.9055 137.366 55.7025V34.0467C136.385 32.9809 132.89 28.3627 133.472 17.4496C126.28 19.7737 118.748 20.8737 111.191 20.7036C111.035 23.9435 110.509 37.0023 111.646 42.2315C112.839 47.745 119.12 48.4128 119.39 48.427C119.574 48.4448 119.744 48.5304 119.867 48.6671C119.991 48.8038 120.059 48.9817 120.058 49.1659L120.001 61.4148Z" fill="#231F20"/>
<path id="Vector_7" d="M133.444 33.6348C133.669 32.5428 134.231 31.5488 135.05 30.7928C135.86 30.1192 136.778 29.586 137.764 29.2155C138.282 28.9604 138.85 28.8245 139.427 28.8176C139.833 28.8592 140.228 28.9747 140.592 29.1587C141.475 29.5356 142.199 30.2091 142.638 31.0628C142.896 31.7911 142.979 32.57 142.88 33.3364C142.826 34.1779 142.664 35.009 142.397 35.8089C141.821 37.3977 140.641 38.6949 139.114 39.4182C137.571 40.116 135.817 40.1823 134.226 39.6029" fill="white"/>
<path id="Vector_8" d="M136.445 40.6829C135.601 40.684 134.764 40.5349 133.972 40.2424C133.79 40.1724 133.642 40.0329 133.562 39.8544C133.482 39.676 133.476 39.4731 133.546 39.2903C133.619 39.1134 133.756 38.9709 133.93 38.8917C134.105 38.8126 134.302 38.8027 134.484 38.864C135.178 39.1261 135.918 39.247 136.66 39.2198C137.402 39.1925 138.131 39.0177 138.804 38.7054C139.477 38.3932 140.082 37.9498 140.582 37.4012C141.082 36.8527 141.468 36.2099 141.716 35.5105C141.957 34.7745 142.1 34.0101 142.143 33.2369C142.239 32.593 142.18 31.9355 141.972 31.3186C141.6 30.6294 141.003 30.0879 140.281 29.7839C140.005 29.6302 139.7 29.5335 139.386 29.4997C138.921 29.5224 138.465 29.6435 138.05 29.855C137.144 30.1865 136.298 30.6668 135.549 31.276C134.817 31.9276 134.318 32.8009 134.128 33.7627C134.111 33.8573 134.076 33.9475 134.023 34.0282C133.971 34.1088 133.903 34.1783 133.824 34.2325C133.745 34.2867 133.655 34.3246 133.561 34.344C133.467 34.3633 133.37 34.3638 133.276 34.3453C133.181 34.3283 133.091 34.2926 133.01 34.2403C132.93 34.1881 132.86 34.1203 132.806 34.041C132.752 33.9616 132.714 33.8723 132.695 33.7782C132.675 33.684 132.675 33.587 132.693 33.4927C132.934 32.2293 133.577 31.0777 134.526 30.2102C135.397 29.4786 136.387 28.9019 137.454 28.5051C138.071 28.1969 138.752 28.0364 139.443 28.0361C139.939 28.0858 140.422 28.2306 140.864 28.4624C141.915 28.9013 142.77 29.7101 143.265 30.736C143.568 31.5722 143.67 32.4677 143.564 33.3506C143.515 34.2555 143.343 35.1495 143.052 36.0078C142.413 37.7658 141.105 39.2006 139.414 40.0008C138.487 40.4447 137.473 40.6776 136.445 40.6829Z" fill="#231F20"/>
<path id="Vector_9" d="M119.319 55.0631C121.989 54.6414 124.467 53.4173 126.424 51.5533C127.24 50.8736 127.86 49.9885 128.22 48.9894C128.579 47.9902 128.666 46.9132 128.47 45.8694C127.286 47.0518 125.856 47.9598 124.282 48.5295C122.709 49.0991 121.029 49.3164 119.362 49.1661L119.319 55.0631Z" fill="#231F20"/>
<path id="Vector_10" d="M119.32 55.7593C119.168 55.7634 119.018 55.7186 118.893 55.6314C118.822 55.5642 118.766 55.4825 118.73 55.3918C118.693 55.301 118.676 55.2035 118.68 55.1057V49.2086C118.686 49.1083 118.711 49.0102 118.755 48.9199C118.799 48.8296 118.861 48.749 118.936 48.6828C119.011 48.6162 119.099 48.5665 119.195 48.5371C119.29 48.5077 119.391 48.4992 119.49 48.5123C121.049 48.6479 122.618 48.4437 124.09 47.9137C125.562 47.3838 126.902 46.5409 128.016 45.443C128.106 45.354 128.217 45.2891 128.339 45.2543C128.461 45.2195 128.589 45.216 128.712 45.244C128.834 45.2783 128.946 45.3433 129.035 45.4329C129.125 45.5225 129.19 45.6336 129.224 45.7556C129.448 46.9273 129.355 48.1376 128.956 49.2616C128.556 50.3856 127.864 51.3827 126.95 52.15C124.874 54.1129 122.245 55.3924 119.419 55.8161L119.32 55.7593ZM120.073 49.9475V54.2104C122.283 53.6601 124.319 52.5659 125.998 51.0274C127.088 50.1012 127.771 48.7852 127.902 47.3613C125.679 49.1184 122.906 50.0342 120.073 49.9475Z" fill="#231F20"/>
<path id="Vector_11" d="M118.596 37.9686C117.744 38.0321 116.901 37.7563 116.252 37.2013C115.086 35.9793 117.204 32.0147 119.193 28.9028C119.241 28.819 119.305 28.7458 119.382 28.6877C119.459 28.6296 119.547 28.5877 119.641 28.5648C119.735 28.5418 119.832 28.5381 119.927 28.554C120.022 28.5699 120.113 28.605 120.194 28.6572C120.276 28.7093 120.345 28.7775 120.399 28.8574C120.453 28.9374 120.49 29.0275 120.508 29.1223C120.526 29.2171 120.525 29.3145 120.504 29.4087C120.483 29.5029 120.443 29.5918 120.387 29.6701C118.554 32.5121 117.118 35.6524 117.317 36.2777C117.772 36.7182 119.406 36.5619 120.358 36.2777C120.448 36.2495 120.542 36.2398 120.636 36.249C120.729 36.2583 120.82 36.2863 120.902 36.3314C120.984 36.3766 121.056 36.4379 121.114 36.5116C121.172 36.5854 121.215 36.6702 121.239 36.7608C121.292 36.9417 121.271 37.1362 121.18 37.3014C121.09 37.4666 120.937 37.5891 120.756 37.6418C120.052 37.835 119.327 37.9447 118.596 37.9686Z" fill="#231F20"/>
<path id="Vector_12" d="M121.365 42.4023C120.761 42.4038 120.159 42.3274 119.575 42.1749C119.485 42.1488 119.402 42.1053 119.329 42.0469C119.256 41.9885 119.196 41.9163 119.151 41.8345C119.106 41.7527 119.078 41.6628 119.067 41.5701C119.057 41.4773 119.066 41.3835 119.092 41.2939C119.148 41.1151 119.271 40.9649 119.435 40.8749C119.599 40.7848 119.792 40.7618 119.973 40.8108C121.089 41.1098 122.276 41.0093 123.326 40.5266C123.743 40.2652 124.102 39.921 124.381 39.5153C124.66 39.1095 124.852 38.6509 124.946 38.1677C124.996 37.9868 125.115 37.8324 125.276 37.7369C125.438 37.6415 125.63 37.6126 125.813 37.6562C125.992 37.7093 126.144 37.8282 126.239 37.989C126.334 38.1498 126.364 38.3406 126.324 38.523C126.187 39.1935 125.912 39.828 125.515 40.3859C125.119 40.9438 124.611 41.4128 124.022 41.7628C123.205 42.1968 122.291 42.4167 121.365 42.4023Z" fill="#231F20"/>
<path id="Vector_13" d="M128.67 27.6381C128.571 27.6388 128.474 27.6189 128.383 27.5798C128.293 27.5406 128.211 27.4831 128.144 27.4108C127.568 26.7781 126.789 26.3661 125.942 26.2456C125.631 26.2331 125.321 26.2861 125.032 26.4011C124.743 26.5162 124.482 26.6907 124.265 26.9134C124.13 27.0445 123.949 27.1178 123.76 27.1178C123.572 27.1178 123.391 27.0445 123.256 26.9134C123.189 26.8474 123.136 26.7688 123.1 26.6822C123.064 26.5956 123.046 26.5028 123.046 26.409C123.046 26.3152 123.064 26.2223 123.1 26.1357C123.136 26.0492 123.189 25.9706 123.256 25.9045C123.611 25.5523 124.036 25.2781 124.504 25.0995C124.971 24.9208 125.47 24.8417 125.97 24.8672C127.192 25.0159 128.32 25.5953 129.153 26.5013C129.284 26.6366 129.357 26.8175 129.357 27.0058C129.357 27.1941 129.284 27.375 129.153 27.5102C129.011 27.6056 128.841 27.6506 128.67 27.6381Z" fill="#231F20"/>
<path id="Vector_14" d="M116.138 27.7089C115.993 27.7069 115.851 27.661 115.732 27.5774C115.613 27.4938 115.522 27.3762 115.47 27.24C115.47 27.24 115.172 26.4727 114.603 26.3306C114.035 26.1885 113.31 26.6716 112.813 27.1121C112.742 27.1737 112.66 27.2207 112.571 27.2505C112.482 27.2802 112.388 27.2921 112.294 27.2855C112.2 27.279 112.109 27.254 112.025 27.212C111.941 27.1701 111.866 27.112 111.804 27.0411C111.743 26.9702 111.696 26.8878 111.666 26.7987C111.636 26.7097 111.624 26.6156 111.631 26.5219C111.637 26.4282 111.662 26.3368 111.704 26.2527C111.746 26.1687 111.804 26.0937 111.875 26.0322C112.26 25.6073 112.745 25.2858 113.286 25.0971C113.827 24.9084 114.407 24.8586 114.973 24.9522C115.399 25.0877 115.787 25.3217 116.105 25.6353C116.424 25.9489 116.664 26.3331 116.806 26.7569C116.87 26.934 116.861 27.1293 116.781 27.2998C116.701 27.4704 116.557 27.6022 116.38 27.6663C116.302 27.6941 116.22 27.7086 116.138 27.7089Z" fill="#231F20"/>
<path id="Vector_15" d="M126.937 67.2979L131.441 70.3814L128.585 75.1985L134.851 108.137L126.851 116.521L120.642 104.442L125.118 74.4312L122.887 69.8698L126.937 67.2979Z" fill="white"/>
<path id="Vector_16" d="M105.096 56.1999C104.783 56.3136 106.517 78.7367 127.746 104.229C127.746 104.229 131.228 103.774 141.047 82.4882C150.866 61.2018 149.473 53.7843 149.473 53.7843C152.607 53.7767 155.723 54.2561 158.709 55.2053C162.064 56.1996 165.253 57.684 168.173 59.6103C168.173 59.6103 160.102 94.467 181.061 112.471L176.912 161.381L98.4313 156.72L95.3193 112.784C95.3193 112.784 98.6728 109.089 100.307 90.4457C101.328 79.7442 101.137 68.9617 99.7386 58.303L105.096 56.1999Z" fill="#231F20"/>
<path id="Vector_17" d="M93.408 50.1243L25.3855 47.4034L22.1048 129.423L90.1273 132.144L93.408 50.1243Z" fill="#231F20"/>
<path id="Vector_18" d="M87.6178 53.7024L30.1895 51.2954L27.0393 126.456L84.4677 128.863L87.6178 53.7024Z" fill="white"/>
<path id="Vector_19" d="M84.4766 129.523L27.0546 127.121C26.9581 127.122 26.8626 127.102 26.7745 127.062C26.6863 127.023 26.6074 126.966 26.5431 126.894C26.4092 126.746 26.3379 126.553 26.3441 126.354L29.4987 51.1979C29.5061 51.0045 29.5892 50.8216 29.73 50.6887C29.8709 50.5559 30.0582 50.4836 30.2518 50.4875L87.6312 52.9458C87.8259 52.9568 88.0088 53.0429 88.1413 53.186C88.2738 53.3291 88.3456 53.5181 88.3417 53.7131L85.1871 128.883C85.1858 128.979 85.165 129.074 85.1259 129.162C85.0868 129.25 85.0303 129.329 84.9597 129.395C84.8166 129.488 84.6472 129.533 84.4766 129.523ZM27.8077 125.686L83.7661 128.102L86.8496 54.3952L30.9055 52.0647L27.8077 125.686Z" fill="#231F20"/>
<path id="Vector_20" d="M70.3681 50.8234L51.0171 50.0124C49.7155 49.9578 48.6161 50.9687 48.5616 52.2703L48.4449 55.053C48.3904 56.3546 49.4013 57.454 50.7029 57.5086L70.0539 58.3196C71.3555 58.3742 72.4549 57.3632 72.5095 56.0616L72.6261 53.2789C72.6807 51.9773 71.6697 50.878 70.3681 50.8234Z" fill="white"/>
<path id="Vector_21" d="M70.1677 59.0418H70.0398L50.686 58.2319C50.281 58.2154 49.8831 58.1193 49.5153 57.9489C49.1474 57.7786 48.8168 57.5373 48.5423 57.239C48.2677 56.9408 48.0547 56.5913 47.9154 56.2106C47.7761 55.8299 47.7132 55.4255 47.7304 55.0205L47.844 52.1785C47.884 51.3652 48.2411 50.6 48.8387 50.047C49.1349 49.7692 49.4835 49.5532 49.8641 49.4117C50.2447 49.2702 50.6497 49.206 51.0555 49.2228L70.4235 50.0328C71.2403 50.075 72.0091 50.4314 72.5692 51.0275C73.1197 51.6314 73.4107 52.4276 73.3791 53.2442L73.2654 56.0862C73.2289 56.8829 72.8864 57.6348 72.3094 58.1853C71.7324 58.7359 70.9652 59.0427 70.1677 59.0418ZM70.0967 57.6209C70.3087 57.6304 70.5206 57.5977 70.7199 57.5249C70.9193 57.452 71.1023 57.3403 71.2582 57.1963C71.4141 57.0522 71.5399 56.8787 71.6284 56.6857C71.7168 56.4927 71.7661 56.2841 71.7734 56.072L71.9013 53.23C71.912 52.8016 71.7596 52.3852 71.475 52.0648C71.1829 51.7529 70.7794 51.569 70.3524 51.5532L50.9844 50.7433C50.5568 50.7213 50.1379 50.8694 49.8192 51.1554C49.5061 51.4539 49.3182 51.8603 49.2935 52.2922L49.1798 55.1341C49.1785 55.5463 49.333 55.9436 49.6123 56.2467C49.8916 56.5497 50.2751 56.736 50.686 56.7683L70.0967 57.6209Z" fill="#231F20"/>
<path id="Vector_22" d="M59.4542 70.7936L36.2069 69.8416C36.1136 69.8379 36.0219 69.8159 35.9371 69.7768C35.8523 69.7376 35.776 69.6822 35.7127 69.6135C35.6493 69.5449 35.6001 69.4645 35.5679 69.3768C35.5356 69.2891 35.521 69.196 35.5248 69.1027C35.5245 69.0081 35.5438 68.9145 35.5816 68.8278C35.6194 68.7411 35.6748 68.6632 35.7442 68.5991C35.8137 68.535 35.8958 68.486 35.9852 68.4552C36.0747 68.4245 36.1695 68.4127 36.2637 68.4206L59.4826 69.3869C59.671 69.3869 59.8518 69.4617 59.985 69.595C60.1182 69.7282 60.1931 69.9089 60.1931 70.0973C60.1931 70.2858 60.1182 70.4665 59.985 70.5997C59.8518 70.733 59.671 70.8078 59.4826 70.8078L59.4542 70.7936Z" fill="#D1D3D4"/>
<path id="Vector_23" d="M80.9674 71.7027L75.5108 71.4754C75.4175 71.4717 75.3258 71.4497 75.241 71.4105C75.1562 71.3714 75.0799 71.316 75.0165 71.2473C74.9532 71.1787 74.904 71.0982 74.8718 71.0106C74.8395 70.9229 74.8249 70.8298 74.8287 70.7364C74.8284 70.6419 74.8477 70.5483 74.8855 70.4616C74.9233 70.3749 74.9787 70.297 75.0481 70.2329C75.1176 70.1687 75.1997 70.1198 75.2891 70.089C75.3786 70.0583 75.4734 70.0465 75.5676 70.0544L81.0242 70.2817C81.1175 70.2854 81.2092 70.3074 81.294 70.3465C81.3788 70.3857 81.4551 70.4411 81.5184 70.5098C81.5818 70.5784 81.631 70.6588 81.6632 70.7465C81.6954 70.8342 81.7101 70.9273 81.7063 71.0206C81.6953 71.2078 81.6121 71.3835 81.4744 71.5107C81.3366 71.6379 81.1548 71.7067 80.9674 71.7027Z" fill="#D1D3D4"/>
<path id="Vector_24" d="M53.8826 78.5093L35.9072 77.7562C35.8139 77.7526 35.7222 77.7305 35.6374 77.6914C35.5526 77.6523 35.4763 77.5968 35.4129 77.5282C35.3496 77.4596 35.3004 77.3791 35.2682 77.2914C35.2359 77.2038 35.2213 77.1106 35.2251 77.0173C35.2225 76.9221 35.2404 76.8275 35.2774 76.7397C35.3144 76.652 35.3698 76.5731 35.4397 76.5085C35.5097 76.4439 35.5927 76.3951 35.6831 76.3652C35.7736 76.3353 35.8693 76.3251 35.964 76.3352L53.9395 77.0884C54.1279 77.0884 54.3086 77.1632 54.4419 77.2965C54.5751 77.4297 54.65 77.6104 54.65 77.7988C54.65 77.9873 54.5751 78.168 54.4419 78.3012C54.3086 78.4345 54.1279 78.5093 53.9395 78.5093H53.8826Z" fill="#D1D3D4"/>
<path id="Vector_25" d="M80.6264 79.6318L72.8394 79.305C72.6534 79.2906 72.4798 79.2065 72.3533 79.0694C72.2268 78.9324 72.1568 78.7526 72.1573 78.5661C72.1609 78.4715 72.1834 78.3786 72.2234 78.2928C72.2634 78.207 72.3202 78.1301 72.3904 78.0666C72.4605 78.003 72.5427 77.9541 72.632 77.9228C72.7213 77.8914 72.816 77.8783 72.9104 77.884L80.6832 78.2108C80.8717 78.2108 81.0524 78.2857 81.1856 78.4189C81.3189 78.5522 81.3937 78.7329 81.3937 78.9213C81.3937 79.1097 81.3189 79.2905 81.1856 79.4237C81.0524 79.557 80.8717 79.6318 80.6832 79.6318H80.6264Z" fill="#D1D3D4"/>
<path id="Vector_26" d="M63.0346 86.8931L35.567 85.7421C35.3811 85.7277 35.2074 85.6436 35.0809 85.5065C34.9544 85.3695 34.8844 85.1897 34.885 85.0032C34.8846 84.9086 34.904 84.815 34.9417 84.7283C34.9795 84.6416 35.0349 84.5637 35.1044 84.4996C35.1739 84.4355 35.2559 84.3865 35.3454 84.3557C35.4348 84.325 35.5296 84.3132 35.6238 84.3211L63.0915 85.4721C63.2799 85.4721 63.4606 85.5469 63.5939 85.6802C63.7271 85.8134 63.802 85.9941 63.802 86.1826C63.802 86.371 63.7271 86.5517 63.5939 86.685C63.4606 86.8182 63.2799 86.8931 63.0915 86.8931H63.0346Z" fill="#D1D3D4"/>
<path id="Vector_27" d="M80.2994 87.5469L74.8429 87.3196C74.7496 87.3149 74.6581 87.2919 74.5737 87.2519C74.4893 87.2119 74.4135 87.1556 74.3509 87.0864C74.2243 86.9465 74.1585 86.762 74.1679 86.5736C74.1725 86.4803 74.1956 86.3888 74.2356 86.3044C74.2756 86.22 74.3318 86.1442 74.4011 86.0816C74.4704 86.0189 74.5513 85.9705 74.6393 85.9391C74.7273 85.9077 74.8206 85.8939 74.9139 85.8986L80.3563 86.1259C80.5435 86.1369 80.7191 86.2201 80.8463 86.3578C80.9735 86.4956 81.0423 86.6774 81.0383 86.8649C81.0347 86.9582 81.0127 87.0499 80.9735 87.1347C80.9344 87.2195 80.8789 87.2958 80.8103 87.3591C80.7417 87.4225 80.6612 87.4716 80.5736 87.5039C80.4859 87.5361 80.3928 87.5507 80.2994 87.5469Z" fill="#D1D3D4"/>
<path id="Vector_28" d="M48.5411 94.1687L35.2549 93.6003C35.1616 93.5967 35.0699 93.5746 34.9851 93.5355C34.9003 93.4964 34.824 93.4409 34.7607 93.3723C34.6973 93.3037 34.6481 93.2232 34.6159 93.1355C34.5837 93.0479 34.569 92.9547 34.5729 92.8614C34.5745 92.768 34.5952 92.676 34.6339 92.591C34.6725 92.506 34.7282 92.4298 34.7975 92.3672C34.8667 92.3046 34.9481 92.2569 35.0366 92.227C35.1251 92.1971 35.2187 92.1857 35.3118 92.1935L48.6122 92.7477C48.7055 92.7514 48.7972 92.7734 48.882 92.8125C48.9668 92.8517 49.0431 92.9071 49.1064 92.9758C49.1698 93.0444 49.219 93.1248 49.2512 93.2125C49.2834 93.3002 49.2981 93.3933 49.2943 93.4866C49.2832 93.6764 49.1981 93.8542 49.0572 93.9818C48.9164 94.1093 48.731 94.1765 48.5411 94.1687Z" fill="#D1D3D4"/>
<path id="Vector_29" d="M79.9733 95.4192L70.9074 95.0355C70.8141 95.0318 70.7224 95.0098 70.6376 94.9707C70.5528 94.9316 70.4765 94.8761 70.4132 94.8075C70.3498 94.7388 70.3006 94.6584 70.2684 94.5707C70.2362 94.4831 70.2215 94.3899 70.2253 94.2966C70.2269 94.2032 70.2477 94.1112 70.2864 94.0262C70.325 93.9412 70.3807 93.865 70.4499 93.8024C70.5192 93.7398 70.6006 93.6921 70.6891 93.6622C70.7775 93.6323 70.8712 93.6209 70.9642 93.6287L80.0301 93.9982C80.2185 93.9982 80.3993 94.073 80.5325 94.2063C80.6658 94.3395 80.7406 94.5202 80.7406 94.7087C80.7406 94.8971 80.6658 95.0778 80.5325 95.2111C80.3993 95.3443 80.2185 95.4192 80.0301 95.4192H79.9733Z" fill="#D1D3D4"/>
<path id="Vector_30" d="M56.8519 102.524L34.9119 101.6C34.818 101.599 34.7254 101.578 34.6397 101.539C34.5539 101.501 34.4769 101.446 34.4132 101.376C34.3495 101.307 34.3003 101.226 34.2688 101.138C34.2373 101.049 34.2241 100.955 34.2298 100.861C34.2295 100.767 34.2488 100.673 34.2866 100.587C34.3244 100.5 34.3798 100.422 34.4493 100.358C34.5187 100.294 34.6008 100.245 34.6902 100.214C34.7797 100.183 34.8745 100.171 34.9687 100.179L56.9087 101.103C57.0021 101.107 57.0938 101.129 57.1786 101.168C57.2634 101.207 57.3396 101.262 57.403 101.331C57.4663 101.4 57.5155 101.48 57.5477 101.568C57.58 101.655 57.5946 101.749 57.5908 101.842C57.5798 102.029 57.4967 102.205 57.3589 102.332C57.2211 102.459 57.0394 102.528 56.8519 102.524Z" fill="#D1D3D4"/>
<path id="Vector_31" d="M79.6319 103.405L74.1895 103.178C74.0962 103.174 74.0045 103.152 73.9197 103.113C73.8349 103.074 73.7586 103.018 73.6953 102.95C73.6319 102.881 73.5827 102.801 73.5505 102.713C73.5183 102.625 73.5036 102.532 73.5074 102.439C73.5071 102.344 73.5264 102.251 73.5642 102.164C73.602 102.077 73.6574 101.999 73.7269 101.935C73.7963 101.871 73.8784 101.822 73.9678 101.791C74.0573 101.761 74.1521 101.749 74.2463 101.757L79.6887 101.984C79.8771 101.984 80.0579 102.059 80.1911 102.192C80.3243 102.325 80.3992 102.506 80.3992 102.695C80.3992 102.883 80.3243 103.064 80.1911 103.197C80.0579 103.33 79.8771 103.405 79.6887 103.405H79.6319Z" fill="#D1D3D4"/>
<path id="Vector_32" d="M51.5675 110.169L34.5157 109.458C34.4223 109.455 34.3307 109.433 34.2458 109.393C34.161 109.354 34.0848 109.299 34.0214 109.23C33.9581 109.162 33.9089 109.081 33.8767 108.994C33.8444 108.906 33.8298 108.813 33.8336 108.719C33.8333 108.625 33.8526 108.531 33.8904 108.445C33.9282 108.358 33.9835 108.28 34.053 108.216C34.1225 108.152 34.2046 108.103 34.294 108.072C34.3834 108.041 34.4783 108.029 34.5725 108.037L51.6243 108.748C51.8128 108.748 51.9935 108.823 52.1267 108.956C52.2599 109.089 52.3348 109.27 52.3348 109.458C52.3348 109.647 52.2599 109.827 52.1267 109.961C51.9935 110.094 51.8128 110.169 51.6243 110.169H51.5675Z" fill="#D1D3D4"/>
<path id="Vector_33" d="M79.3057 111.334L70.2398 110.951C70.0514 110.951 69.8706 110.876 69.7374 110.742C69.6042 110.609 69.5293 110.428 69.5293 110.24C69.5293 110.052 69.6042 109.871 69.7374 109.738C69.8706 109.604 70.0514 109.53 70.2398 109.53L79.2915 109.913C79.4799 109.913 79.6606 109.988 79.7939 110.121C79.9271 110.255 80.002 110.435 80.002 110.624C80.002 110.812 79.9271 110.993 79.7939 111.126C79.6606 111.259 79.4799 111.334 79.2915 111.334H79.3057Z" fill="#D1D3D4"/>
<path id="Vector_34" d="M73.4648 123.413C75.4581 123.413 77.0741 121.797 77.0741 119.803C77.0741 117.81 75.4581 116.194 73.4648 116.194C71.4714 116.194 69.8555 117.81 69.8555 119.803C69.8555 121.797 71.4714 123.413 73.4648 123.413Z" fill="#D1D3D4"/>
<path id="Vector_35" d="M64.8963 119.576L60.7755 119.405C60.6821 119.402 60.5904 119.38 60.5056 119.34C60.4208 119.301 60.3445 119.246 60.2812 119.177C60.2178 119.109 60.1687 119.028 60.1364 118.941C60.1042 118.853 60.0896 118.76 60.0934 118.666C60.093 118.572 60.1124 118.478 60.1502 118.392C60.1879 118.305 60.2433 118.227 60.3128 118.163C60.3823 118.099 60.4643 118.05 60.5538 118.019C60.6432 117.988 60.738 117.976 60.8323 117.984L64.9531 118.155C65.1416 118.155 65.3223 118.23 65.4555 118.363C65.5888 118.496 65.6636 118.677 65.6636 118.865C65.6636 119.054 65.5888 119.234 65.4555 119.368C65.3223 119.501 65.1416 119.576 64.9531 119.576H64.8963Z" fill="#D1D3D4"/>
<path id="Vector_36" d="M181.062 112.471C181.062 112.471 184.799 146.105 179.456 150.667C174.113 155.228 103.448 146.304 103.448 146.304C103.448 146.304 85.2306 148.223 80.2429 145.324C75.2553 142.425 51.4538 136.968 56.0009 135.249C60.5481 133.53 76.2357 134.61 80.4703 134.78C80.4703 134.78 69.8413 129.792 73.8911 129.366C77.9409 128.94 91.9944 134.198 96.0158 134.368C100.037 134.539 153.665 133.515 153.665 133.515L155.669 119.902" fill="white"/>
<path id="Vector_37" d="M168.812 152.642C148.918 152.642 109.372 147.739 103.447 146.958C101.926 147.114 84.9029 148.777 79.8869 145.878C76.1353 144.204 72.2643 142.813 68.3058 141.714C57.8048 138.418 54.7497 137.224 54.707 135.718C54.707 135.334 54.8633 134.809 55.7443 134.482C59.5668 133.061 70.6363 133.473 77.0591 133.785C72.043 131.1 72.2278 130.02 72.2988 129.622C72.3699 129.224 72.924 128.656 73.8619 128.556C76.2776 128.3 81.6347 129.835 86.8355 131.313C89.857 132.311 92.9558 133.057 96.1003 133.544C99.8233 133.7 147.071 132.819 153.068 132.705L154.986 119.718C154.976 119.606 154.992 119.494 155.032 119.39C155.071 119.286 155.134 119.192 155.216 119.115C155.297 119.039 155.395 118.981 155.502 118.948C155.608 118.915 155.721 118.906 155.832 118.923C155.942 118.939 156.047 118.981 156.14 119.044C156.232 119.107 156.308 119.19 156.364 119.287C156.419 119.384 156.452 119.493 156.459 119.604C156.467 119.716 156.449 119.827 156.407 119.931L154.417 133.572C154.394 133.744 154.309 133.902 154.178 134.017C154.048 134.132 153.881 134.196 153.707 134.197C151.519 134.197 100.022 135.235 96.015 135.064C92.755 134.564 89.542 133.794 86.4092 132.762C81.592 131.341 76.107 129.821 74.004 130.048C76.1239 131.653 78.428 132.998 80.8673 134.055C81.0204 134.128 81.1443 134.251 81.2191 134.403C81.2939 134.555 81.3151 134.728 81.2794 134.894C81.2398 135.061 81.1429 135.21 81.0054 135.314C80.8679 135.418 80.6984 135.47 80.5263 135.462L78.4517 135.363C73.0377 135.078 60.4478 134.439 56.4691 135.832C57.89 136.926 64.4123 138.958 68.8174 140.35C72.8834 141.456 76.8556 142.881 80.6968 144.613C85.4145 147.356 103.276 145.509 103.433 145.48H103.603C131.881 149.061 175.306 153.224 179.057 150.027C183.192 146.489 181.43 121.721 180.393 112.471C180.415 112.308 180.49 112.158 180.606 112.042C180.723 111.927 180.875 111.854 181.037 111.835C181.2 111.815 181.365 111.85 181.505 111.934C181.646 112.019 181.755 112.147 181.814 112.3C182.198 115.782 185.438 146.404 179.967 151.15C178.716 152.258 174.581 152.642 168.812 152.642Z" fill="#231F20"/>
<path id="Vector_38" d="M168.173 59.6671C168.173 59.6671 188.081 90.2893 187.1 115.313L154.944 124.166L148.734 108.961C148.734 108.961 145.167 75.099 168.173 59.6671Z" fill="#405BEC"/>
<path id="Vector_39" d="M14.6939 96.499C15.6033 89.8204 16.5554 82.6302 20.9036 77.1878C21.9551 75.8805 25.5787 71.8449 27.4401 73.4222C29.3016 74.9995 26.8291 76.861 25.7492 77.6852C23.683 79.3411 21.9885 81.4132 20.7757 83.767C22.5239 82.0723 24.454 80.576 26.5307 79.3051C27.0403 78.9256 27.6198 78.6504 28.2359 78.4951C28.5462 78.4233 28.8704 78.4398 29.1717 78.5428C29.4731 78.6458 29.7396 78.8311 29.9411 79.0777C30.0816 79.3322 30.1554 79.6183 30.1554 79.909C30.1554 80.1998 30.0816 80.4858 29.9411 80.7403C29.6647 81.2683 29.3049 81.7482 28.8753 82.1613C26.903 84.232 25.1856 86.5314 23.7598 89.0104C25.0999 87.1567 26.9518 85.7345 29.0885 84.918C29.8416 84.6338 30.8221 84.5059 31.291 85.1453C31.7599 85.7848 31.291 86.7795 30.751 87.4615L26.3886 93.1455C26.9996 92.4634 29.0885 91.3408 30.0405 92.0229C31.2768 92.9181 29.2874 94.2538 28.6196 94.8649C27.3607 96.2795 26.3126 97.8684 25.5076 99.5825C24.9912 100.498 24.4119 101.376 23.774 102.211C19.7952 107.455 14.0118 101.501 14.6939 96.499Z" fill="white"/>
<path id="Vector_40" d="M20.2361 104.968C19.6149 104.963 19.0012 104.832 18.4315 104.584C16.9393 103.841 15.7112 102.658 14.9133 101.194C14.1153 99.73 13.7859 98.0566 13.9696 96.3996L14.6943 96.4991L13.9696 96.3996L14.6943 96.4991L13.9838 96.286C14.8648 89.7352 15.8737 82.3035 20.3214 76.7332C20.8756 76.0369 23.7602 72.5697 26.1616 72.3424C26.4725 72.3026 26.7882 72.3275 27.089 72.4155C27.3898 72.5035 27.6691 72.6528 27.9094 72.8539C28.2016 73.0724 28.4395 73.3552 28.6046 73.6805C28.7698 74.0058 28.8576 74.3648 28.8615 74.7296C28.8615 76.1506 27.4405 77.3727 26.389 78.1542L26.2043 78.2963C25.6689 78.7436 25.1567 79.2179 24.6696 79.7173L26.1616 78.7226C26.75 78.2918 27.4157 77.9782 28.1226 77.799C28.5517 77.6771 29.0076 77.6866 29.4313 77.8265C29.8549 77.9663 30.227 78.2299 30.4993 78.5833C30.7716 78.9367 30.9317 79.3636 30.9589 79.8089C30.9861 80.2543 30.8792 80.6975 30.6519 81.0814C30.3561 81.612 29.9771 82.0918 29.5293 82.5024C28.8331 83.2271 28.1936 83.9234 27.5684 84.7334C28.0089 84.5202 28.4352 84.3213 28.8899 84.1508C29.3787 83.8777 29.9446 83.7756 30.498 83.8605C31.0514 83.9455 31.5606 84.2126 31.945 84.6197C32.3713 85.2023 32.6129 86.2254 31.3908 87.8311L28.9467 91.0141C29.495 90.9156 30.0601 91.0327 30.524 91.3409C30.7256 91.4746 30.8935 91.6533 31.0143 91.8629C31.1351 92.0725 31.2056 92.3073 31.2203 92.5488C31.2203 93.5577 30.2541 94.4103 29.5151 95.0355L29.1599 95.3623C28.1911 96.3804 27.39 97.5459 26.7868 98.8153C26.5879 99.1848 26.389 99.5542 26.1758 99.9095C25.6388 100.848 25.0407 101.75 24.3854 102.609C23.9289 103.302 23.315 103.877 22.5938 104.287C21.8727 104.697 21.0648 104.93 20.2361 104.968ZM26.4316 73.7918H26.3037C24.9964 73.9197 22.8791 75.8806 21.4724 77.6426C17.2805 82.9003 16.3426 89.8063 15.4332 96.4849V96.5986C15.2961 97.9362 15.5642 99.2841 16.2028 100.467C16.8413 101.651 17.8208 102.615 19.0141 103.235C19.7876 103.546 20.6486 103.564 21.4341 103.283C22.2196 103.003 22.8753 102.445 23.277 101.714C23.8942 100.908 24.459 100.063 24.968 99.1848L25.5648 98.1048C26.2347 96.7012 27.1272 95.4152 28.2078 94.2966C28.341 94.1635 28.4835 94.0401 28.6341 93.9271C28.9183 93.6713 29.8135 92.904 29.8135 92.6056C29.2594 92.1935 27.5826 92.9609 26.9716 93.5577C26.8364 93.6888 26.6554 93.7621 26.4671 93.7621C26.2788 93.7621 26.0979 93.6888 25.9627 93.5577C25.8184 93.4359 25.7263 93.2634 25.7051 93.0758C25.684 92.8882 25.7355 92.6996 25.849 92.5488L30.2114 86.8648C30.7088 86.2112 30.9219 85.657 30.7514 85.4439C30.5809 85.2307 29.913 85.2733 29.4015 85.4439C27.3968 86.2095 25.6586 87.5427 24.3996 89.2805C24.2884 89.432 24.1236 89.5355 23.9388 89.5698C23.754 89.6041 23.5631 89.5667 23.4049 89.4652C23.245 89.3653 23.1303 89.2071 23.0852 89.024C23.0401 88.8409 23.0682 88.6475 23.1633 88.4848C24.6205 85.9616 26.371 83.6196 28.3784 81.5077C28.7466 81.1622 29.0625 80.7649 29.3162 80.3283C29.3972 80.1853 29.4397 80.0237 29.4397 79.8594C29.4397 79.695 29.3972 79.5335 29.3162 79.3905C29.1962 79.26 29.0422 79.1656 28.8715 79.1179C28.7008 79.0702 28.5202 79.0711 28.3499 79.1205C27.8335 79.2597 27.3502 79.5013 26.9289 79.831C24.8747 81.0754 22.9679 82.5484 21.245 84.2218C21.1294 84.3662 20.9628 84.461 20.7796 84.4866C20.5963 84.5122 20.4102 84.4667 20.2594 84.3595C20.1086 84.2523 20.0045 84.0915 19.9685 83.91C19.9324 83.7285 19.9672 83.5401 20.0656 83.3834C21.3218 80.9368 23.0794 78.7822 25.2238 77.06L25.4227 76.9037C26.0906 76.378 27.3268 75.3833 27.341 74.6017C27.341 74.5165 27.341 74.2465 26.9147 73.877C26.7667 73.7984 26.5976 73.7686 26.4316 73.7918Z" fill="#231F20"/>
<path id="Vector_41" d="M177.045 157.682L96.5742 154.309L96.3094 160.627L176.78 164L177.045 157.682Z" fill="#231F20"/>
<path id="Vector_42" d="M116.053 32.8957H109.232C108.374 32.8919 107.552 32.5494 106.945 31.9426C106.338 31.3358 105.996 30.5139 105.992 29.6558V25.7907C105.996 24.9326 106.338 24.1107 106.945 23.504C107.552 22.8972 108.374 22.5546 109.232 22.5509H116.053C116.911 22.5546 117.733 22.8972 118.339 23.504C118.946 24.1107 119.289 24.9326 119.293 25.7907V29.5421C119.306 29.9766 119.232 30.4093 119.075 30.8147C118.919 31.2201 118.682 31.59 118.38 31.9026C118.078 32.2152 117.717 32.4641 117.317 32.6347C116.917 32.8052 116.487 32.894 116.053 32.8957ZM109.232 24.0856C108.769 24.0847 108.322 24.2606 107.984 24.5775C107.646 24.8944 107.442 25.3283 107.413 25.7907V29.5421C107.398 29.7904 107.433 30.0392 107.518 30.2731C107.602 30.5071 107.733 30.7213 107.904 30.9024C108.074 31.0835 108.28 31.2278 108.509 31.3262C108.737 31.4246 108.983 31.4752 109.232 31.4747H116.053C116.534 31.471 116.994 31.2781 117.335 30.9378C117.675 30.5975 117.868 30.1371 117.872 29.6558V25.7907C117.853 25.3195 117.654 24.8733 117.315 24.5452C116.977 24.217 116.524 24.032 116.053 24.0287L109.232 24.0856Z" fill="#231F20"/>
<path id="Vector_43" d="M130.518 32.8957H123.697C122.839 32.8919 122.017 32.5494 121.41 31.9426C120.803 31.3358 120.461 30.5139 120.457 29.6558V25.7907C120.461 24.9326 120.803 24.1107 121.41 23.504C122.017 22.8972 122.839 22.5546 123.697 22.5509H130.518C131.376 22.5546 132.198 22.8972 132.804 23.504C133.411 24.1107 133.754 24.9326 133.758 25.7907V29.5421C133.771 29.9766 133.697 30.4093 133.54 30.8147C133.384 31.2201 133.147 31.59 132.845 31.9026C132.543 32.2152 132.182 32.4641 131.782 32.6347C131.382 32.8052 130.952 32.894 130.518 32.8957ZM123.697 24.0856C123.235 24.088 122.79 24.2651 122.453 24.5813C122.116 24.8975 121.91 25.3295 121.878 25.7907V29.5421C121.865 29.7899 121.902 30.0378 121.987 30.2709C122.072 30.5039 122.204 30.7173 122.374 30.898C122.544 31.0787 122.749 31.2229 122.976 31.3221C123.204 31.4212 123.449 31.4731 123.697 31.4747H130.518C131 31.4747 131.463 31.283 131.804 30.9419C132.145 30.6008 132.337 30.1382 132.337 29.6558V25.7907C132.337 25.3084 132.145 24.8457 131.804 24.5046C131.463 24.1635 131 23.9719 130.518 23.9719L123.697 24.0856Z" fill="#231F20"/>
<path id="Vector_44" d="M121.167 25.464H119.078C118.889 25.464 118.709 25.3891 118.575 25.2559C118.442 25.1226 118.367 24.9419 118.367 24.7535C118.367 24.565 118.442 24.3843 118.575 24.2511C118.709 24.1178 118.889 24.043 119.078 24.043H121.167C121.355 24.043 121.536 24.1178 121.669 24.2511C121.802 24.3843 121.877 24.565 121.877 24.7535C121.877 24.9419 121.802 25.1226 121.669 25.2559C121.536 25.3891 121.355 25.464 121.167 25.464Z" fill="#231F20"/>
<path id="Vector_45" d="M25.8903 138.986C25.8903 138.986 25.194 147.839 15.0624 149.985C17.6683 150.309 20.1257 151.377 22.1414 153.06C24.1571 154.743 25.6459 156.971 26.4302 159.477C26.4302 159.477 27.567 149.345 35.965 149.232C35.965 149.232 26.1603 147.399 25.8903 138.986Z" fill="#D1D3D4"/>
<path id="Vector_46" d="M80.5276 23.29C80.3249 24.7624 79.6527 26.1301 78.6108 27.1899C77.5689 28.2498 76.2128 28.9452 74.7441 29.1729C76.1406 29.3539 77.4545 29.9363 78.5265 30.8494C79.5985 31.7624 80.3825 32.967 80.7833 34.3169C80.7833 34.3169 81.3944 28.9029 85.8847 28.8461C85.8847 28.775 80.6412 27.7946 80.5276 23.29Z" fill="#D1D3D4"/>
<path id="Vector_47" d="M13.7409 32.2279C13.7409 32.2279 10.0179 40.0717 0 38.5229C2.27668 39.7225 4.15837 41.5542 5.4188 43.7977C6.67923 46.0413 7.26474 48.6012 7.10492 51.1696C7.10492 51.1696 11.6805 42.2885 19.4106 45.1162C19.4249 45.1162 11.0553 40.0007 13.7409 32.2279Z" fill="#D1D3D4"/>
</g>
</svg>
