<svg width="196" height="164" viewBox="0 0 196 164" fill="none" xmlns="http://www.w3.org/2000/svg">
<g id="Group 5082">
<path id="Vector" d="M20.4856 11.5785C20.4856 11.5785 14.129 10.7245 13.3798 17.6773H24.5703C24.5703 17.6773 23.9499 11.0548 20.4856 11.5785Z" fill="#121116"/>
<path id="Vector_2" d="M24.5709 18.0801H13.3804C13.3236 18.0811 13.2674 18.0693 13.2158 18.0456C13.1642 18.0219 13.1186 17.9869 13.0823 17.9432C13.0438 17.9027 13.0145 17.8544 12.9964 17.8016C12.9783 17.7487 12.9719 17.6926 12.9776 17.637C13.0263 16.6596 13.2753 15.7026 13.7091 14.8254C14.1428 13.9481 14.7522 13.1693 15.4993 12.5372C16.9357 11.488 18.7078 11.0034 20.4782 11.1757C20.8436 11.1236 21.2157 11.1467 21.5718 11.2437C21.9278 11.3407 22.2603 11.5095 22.5488 11.7396C24.5468 13.3026 24.9657 17.4678 24.9657 17.637C24.9705 17.6938 24.9637 17.7509 24.9457 17.8049C24.9277 17.8589 24.8989 17.9087 24.861 17.9512C24.8245 17.992 24.7798 18.0246 24.7298 18.0468C24.6798 18.069 24.6257 18.0804 24.5709 18.0801ZM13.8316 17.2745H24.1117C23.9586 16.203 23.435 13.4557 22.0573 12.3761C21.848 12.2052 21.6046 12.0808 21.3434 12.0114C21.0823 11.9419 20.8093 11.9289 20.5427 11.9733C20.5055 11.9814 20.4671 11.9814 20.4299 11.9733C18.8517 11.8298 17.2743 12.2556 15.9827 13.1737C14.7605 14.2096 13.9891 15.6802 13.8316 17.2745Z" fill="#121116"/>
<path id="Vector_3" d="M24.5702 22.06C24.5702 22.06 20.6386 19.9976 20.4855 11.5865H38.2099C37.2624 14.507 35.4515 17.0714 33.0164 18.9413C30.5812 20.8112 27.6362 21.8986 24.5702 22.06Z" fill="white"/>
<path id="Vector_4" d="M24.5696 22.4628C24.5058 22.4758 24.44 22.4758 24.3762 22.4628C24.207 22.3742 20.2352 20.1828 20.0821 11.6267C20.0802 11.519 20.1207 11.4149 20.1949 11.3367C20.2324 11.2978 20.2775 11.267 20.3274 11.2462C20.3773 11.2254 20.4309 11.2151 20.4849 11.2159H38.2093C38.2709 11.2162 38.3317 11.2307 38.3868 11.2582C38.442 11.2857 38.4901 11.3255 38.5275 11.3746C38.5648 11.4236 38.5904 11.4805 38.6023 11.541C38.6142 11.6015 38.612 11.6639 38.596 11.7234C37.6072 14.7092 35.7446 17.3291 33.2495 19.2439C30.7544 21.1588 27.7417 22.2801 24.6018 22.4628H24.5696ZM20.8958 11.9893C21.1294 18.9904 24.1184 21.2865 24.6663 21.6571C27.5282 21.4673 30.2741 20.4536 32.5728 18.7381C34.8715 17.0227 36.6247 14.6789 37.6212 11.9893H20.8958Z" fill="#121116"/>
<path id="Vector_5" d="M36.8164 0.436238C36.8164 0.436238 31.9825 -0.321074 30.1617 6.48669C28.341 13.2945 31.9744 22.6642 24.5705 22.06H56.2891C56.2891 22.06 51.7855 -0.619167 36.8164 0.436238Z" fill="#121116"/>
<path id="Vector_6" d="M25.2306 22.4951C25.005 22.4951 24.7713 22.4951 24.5377 22.4951C24.4309 22.4951 24.3284 22.4526 24.2529 22.3771C24.1773 22.3015 24.1349 22.1991 24.1349 22.0923C24.1349 21.9854 24.1773 21.883 24.2529 21.8074C24.3284 21.7319 24.4309 21.6894 24.5377 21.6894H25.7784C26.4862 21.6384 27.1574 21.3552 27.6878 20.8838C29.1058 19.5867 29.1138 16.6863 29.1219 13.6329C29.0163 11.1993 29.2248 8.76229 29.7422 6.38202C31.5227 -0.304906 36.2358 -0.0632108 36.7917 0.0334676C51.9299 -0.989712 56.6108 21.7861 56.651 21.9875C56.662 22.0451 56.6604 22.1044 56.6465 22.1614C56.6326 22.2184 56.6067 22.2717 56.5705 22.3178C56.5311 22.3626 56.4828 22.3986 56.4287 22.4236C56.3746 22.4486 56.3159 22.4619 56.2563 22.4629H25.867C25.6495 22.479 25.4481 22.4951 25.2306 22.4951ZM28.0423 21.6894H55.789C55.0317 18.4668 50.1011 -0.0632088 36.8481 0.863292H36.7595C36.5742 0.863292 32.2397 0.275164 30.5479 6.62371C30.0581 8.93162 29.8578 11.2916 29.9517 13.649C29.9517 17.0408 29.9517 19.9653 28.2679 21.5041C28.1956 21.5618 28.1203 21.6156 28.0423 21.6653V21.6894Z" fill="#121116"/>
<path id="Vector_7" d="M153.563 0.436279H36.8162C45.5898 2.85324 45.2192 8.89564 45.2192 8.89564V163.581H159.155V8.89564C158.091 2.53098 153.563 0.436279 153.563 0.436279Z" fill="white"/>
<path id="Vector_8" d="M159.154 164H45.2029C45.0961 164 44.9936 163.958 44.9181 163.882C44.8425 163.806 44.8001 163.704 44.8001 163.597V8.91175C44.8001 8.65394 45.0176 3.13521 36.6952 0.855214C36.6005 0.830436 36.5184 0.771383 36.4649 0.689509C36.4113 0.607635 36.39 0.508775 36.4052 0.412105C36.4187 0.316688 36.4659 0.229266 36.5383 0.165704C36.6108 0.102143 36.7036 0.0666528 36.7999 0.0656738H153.563C153.622 0.0675773 153.679 0.0812779 153.732 0.105956C153.926 0.194578 158.47 2.36179 159.549 8.86341V163.629C159.541 163.729 159.496 163.822 159.423 163.891C159.35 163.959 159.255 163.998 159.154 164ZM45.6218 163.194H158.752V8.89563C158.535 7.24108 157.948 5.65689 157.032 4.26168C156.117 2.86647 154.898 1.69641 153.467 0.8391H39.2169C41.49 1.69328 43.4068 3.29205 44.6551 5.37493C45.2797 6.45253 45.6129 7.67426 45.6218 8.9198V163.194Z" fill="#121116"/>
<path id="Vector_9" d="M84.8489 58.532H65.8515V74.1858H84.8489V58.532Z" fill="white"/>
<path id="Vector_10" d="M84.8494 74.5885H65.8521C65.7452 74.5885 65.6428 74.5461 65.5672 74.4705C65.4917 74.395 65.4492 74.2925 65.4492 74.1857V58.5319C65.4492 58.425 65.4917 58.3226 65.5672 58.247C65.6428 58.1715 65.7452 58.129 65.8521 58.129H84.8494C84.9562 58.129 85.0587 58.1715 85.1342 58.247C85.2098 58.3226 85.2522 58.425 85.2522 58.5319V74.1857C85.2522 74.2925 85.2098 74.395 85.1342 74.4705C85.0587 74.5461 84.9562 74.5885 84.8494 74.5885ZM66.2549 73.7829H84.4465V58.9347H66.2549V73.7829Z" fill="#D1D3D4"/>
<path id="Vector_11" d="M115.883 45.2306H96.886V74.1858H115.883V45.2306Z" fill="white"/>
<path id="Vector_12" d="M115.883 74.5885H96.8852C96.7784 74.5885 96.676 74.546 96.6004 74.4705C96.5249 74.3949 96.4824 74.2925 96.4824 74.1856V45.2305C96.4824 45.1236 96.5249 45.0212 96.6004 44.9456C96.676 44.8701 96.7784 44.8276 96.8852 44.8276H115.883C115.989 44.8276 116.092 44.8701 116.167 44.9456C116.243 45.0212 116.285 45.1236 116.285 45.2305V74.1856C116.285 74.2385 116.275 74.2909 116.255 74.3398C116.234 74.3887 116.205 74.4331 116.167 74.4705C116.13 74.5079 116.086 74.5375 116.037 74.5578C115.988 74.578 115.935 74.5885 115.883 74.5885ZM97.2881 73.7828H115.48V45.6333H97.2881V73.7828Z" fill="#D1D3D4"/>
<path id="Vector_13" d="M146.917 33.7581H127.92V74.1857H146.917V33.7581Z" fill="#FF794E"/>
<path id="Vector_14" d="M142.099 113.687H105.958C105.851 113.687 105.748 113.645 105.673 113.569C105.597 113.493 105.555 113.391 105.555 113.284C105.555 113.177 105.597 113.075 105.673 112.999C105.748 112.924 105.851 112.881 105.958 112.881H142.099C142.206 112.881 142.308 112.924 142.384 112.999C142.459 113.075 142.502 113.177 142.502 113.284C142.502 113.391 142.459 113.493 142.384 113.569C142.308 113.645 142.206 113.687 142.099 113.687Z" fill="#D1D3D4"/>
<path id="Vector_15" d="M142.099 122.428H105.958C105.851 122.428 105.748 122.386 105.673 122.31C105.597 122.235 105.555 122.132 105.555 122.025C105.555 121.919 105.597 121.816 105.673 121.741C105.748 121.665 105.851 121.623 105.958 121.623H142.099C142.206 121.623 142.308 121.665 142.384 121.741C142.459 121.816 142.502 121.919 142.502 122.025C142.502 122.132 142.459 122.235 142.384 122.31C142.308 122.386 142.206 122.428 142.099 122.428Z" fill="#D1D3D4"/>
<path id="Vector_16" d="M132.77 131.145H105.958C105.851 131.145 105.748 131.103 105.673 131.028C105.597 130.952 105.555 130.85 105.555 130.743C105.555 130.636 105.597 130.533 105.673 130.458C105.748 130.382 105.851 130.34 105.958 130.34H132.77C132.876 130.34 132.979 130.382 133.054 130.458C133.13 130.533 133.172 130.636 133.172 130.743C133.172 130.85 133.13 130.952 133.054 131.028C132.979 131.103 132.876 131.145 132.77 131.145Z" fill="#D1D3D4"/>
<path id="Vector_17" d="M148.424 89.0017H105.789C105.682 89.0017 105.579 88.9593 105.504 88.8837C105.428 88.8082 105.386 88.7057 105.386 88.5989C105.386 88.492 105.428 88.3896 105.504 88.314C105.579 88.2385 105.682 88.196 105.789 88.196H148.424C148.531 88.196 148.633 88.2385 148.709 88.314C148.784 88.3896 148.827 88.492 148.827 88.5989C148.825 88.7051 148.781 88.8063 148.706 88.8814C148.631 88.9565 148.53 88.9996 148.424 89.0017Z" fill="#D1D3D4"/>
<path id="Vector_18" d="M140.455 97.4692H105.812C105.705 97.4692 105.603 97.4268 105.527 97.3512C105.452 97.2757 105.409 97.1732 105.409 97.0664C105.409 96.9596 105.452 96.8571 105.527 96.7816C105.603 96.706 105.705 96.6636 105.812 96.6636H140.455C140.562 96.6636 140.664 96.706 140.74 96.7816C140.815 96.8571 140.858 96.9596 140.858 97.0664C140.856 97.1726 140.813 97.2739 140.738 97.349C140.663 97.4241 140.561 97.4672 140.455 97.4692Z" fill="#D1D3D4"/>
<path id="Vector_19" d="M162.506 138.05H187.989C184.186 117.78 178.869 90.6291 176.557 84.0711C172.754 73.2834 159.154 59.7081 159.154 59.7081L159.332 92.3371C159.332 92.3371 150.606 78.7538 144.79 80.6551C138.973 82.5565 152.202 95.3099 158.405 110.529C161.12 117.2 162.176 128.011 162.506 138.05Z" fill="white"/>
<path id="Vector_20" d="M187.989 138.453H162.507C162.403 138.453 162.302 138.413 162.227 138.34C162.152 138.268 162.108 138.17 162.104 138.066C161.693 125.522 160.323 116.313 158.027 110.674C155.465 104.366 151.582 98.4037 148.545 93.61C144.919 87.9705 142.301 83.9422 143.09 81.6703C143.223 81.3224 143.44 81.0126 143.721 80.7682C144.002 80.5237 144.339 80.3521 144.702 80.2684C149.777 78.6007 156.682 87.7288 158.954 90.9997L158.785 59.7001C158.785 59.6206 158.809 59.5429 158.853 59.477C158.898 59.411 158.961 59.3597 159.034 59.3295C159.107 59.2978 159.188 59.2893 159.266 59.3051C159.344 59.321 159.415 59.3604 159.469 59.4181C159.606 59.5551 173.165 73.1787 176.968 83.9261C179.264 90.4438 184.461 116.91 188.416 137.969C188.429 138.027 188.427 138.088 188.413 138.145C188.399 138.203 188.372 138.256 188.334 138.302C188.296 138.348 188.248 138.384 188.194 138.409C188.14 138.434 188.081 138.446 188.022 138.445L187.989 138.453ZM162.893 137.647H187.506C183.566 116.7 178.442 90.6211 176.179 84.2C172.956 75.0236 162.378 63.6317 159.566 60.7072L159.735 92.3291C159.734 92.417 159.706 92.5024 159.654 92.5732C159.602 92.6441 159.529 92.6968 159.445 92.7238C159.362 92.7467 159.273 92.7427 159.192 92.7123C159.111 92.6819 159.042 92.6267 158.994 92.5546C158.905 92.4177 150.365 79.2533 144.919 81.0418C144.681 81.0963 144.459 81.2075 144.272 81.366C144.086 81.5244 143.94 81.7255 143.848 81.9522C143.187 83.8052 145.983 88.1477 149.221 93.175C152.323 98.0089 156.182 104.003 158.776 110.376C161.081 116.031 162.466 125.208 162.893 137.647Z" fill="#121116"/>
<path id="Vector_21" d="M62.8793 92.3935C58.3122 96.4208 55.516 102.085 55.0967 108.16H65.119C65.3957 105.759 66.3421 103.483 67.8502 101.594C68.4737 100.812 69.1846 100.104 69.969 99.4832C71.8568 97.9725 74.1329 97.0258 76.5351 96.7521V86.7297C71.4814 87.0528 66.6781 89.0449 62.8793 92.3935Z" fill="#D1D3D4"/>
<path id="Vector_22" d="M100.963 108.16C100.646 103.112 98.6621 98.3117 95.3229 94.5125L88.2412 101.602C89.745 103.49 90.6885 105.762 90.9644 108.16C91.022 108.658 91.0516 109.158 91.053 109.659C91.0523 110.16 91.0227 110.66 90.9644 111.157C90.6906 113.56 89.7439 115.836 88.2332 117.723C87.6191 118.513 86.9101 119.225 86.1224 119.842C84.2331 121.35 81.9578 122.297 79.5563 122.573C78.5602 122.681 77.5554 122.681 76.5593 122.573C73.65 122.231 70.941 120.918 68.8696 118.847C66.7982 116.776 65.4854 114.067 65.1432 111.157H55.0967C55.4719 116.72 57.8511 121.957 61.7932 125.899C65.7352 129.841 70.9728 132.22 76.5351 132.596C77.0292 132.628 77.5287 132.644 78.0336 132.644C78.5385 132.644 79.038 132.628 79.5321 132.596C84.5802 132.278 89.3803 130.295 93.1799 126.956C93.9356 126.304 94.6437 125.598 95.2988 124.845C98.6386 121.043 100.622 116.24 100.938 111.189C100.938 110.698 100.987 110.199 100.987 109.691C100.987 109.183 101.003 108.66 100.963 108.16Z" fill="#FF794E"/>
<path id="Vector_23" d="M93.1879 92.3935C89.3858 89.0537 84.5828 87.0702 79.5321 86.7539V96.7762C81.9343 97.05 84.2104 97.9967 86.0981 99.5074L93.1879 92.3935Z" fill="#D1D3D4"/>
<path id="Vector_24" d="M164.98 101.86C164.911 101.859 164.843 101.841 164.782 101.807C164.722 101.773 164.671 101.725 164.633 101.667C163.296 99.427 159.034 92.6192 158.994 92.5467C158.937 92.4559 158.919 92.3463 158.943 92.2421C158.967 92.1378 159.032 92.0474 159.123 91.9908C159.213 91.9342 159.323 91.9159 159.427 91.9401C159.532 91.9643 159.622 92.0289 159.679 92.1197C159.719 92.1922 163.989 99 165.318 101.248C165.346 101.293 165.364 101.344 165.373 101.396C165.381 101.449 165.378 101.503 165.366 101.554C165.353 101.606 165.33 101.655 165.298 101.697C165.267 101.74 165.227 101.776 165.181 101.804C165.12 101.841 165.051 101.86 164.98 101.86Z" fill="#121116"/>
<path id="Vector_25" d="M51.2541 81.7921L50.9672 81.545C50.3456 81.0095 49.9621 80.249 49.9011 79.4308C49.8402 78.6125 50.1068 77.8036 50.6422 77.1819L66.6684 58.5761L71.6494 62.8666L55.6286 81.4663C55.0931 82.0879 54.3326 82.4714 53.5143 82.5324C52.6961 82.5933 51.8872 82.3268 51.2655 81.7913L51.2541 81.7921Z" fill="white"/>
<path id="Vector_26" d="M53.2596 82.9432C52.4213 82.9438 51.6113 82.6403 50.9796 82.0892L50.6896 81.8394C49.9897 81.2324 49.5587 80.3729 49.4907 79.449C49.4228 78.525 49.7235 77.6117 50.327 76.9088L66.3515 58.2983C66.4281 58.2239 66.5307 58.1824 66.6375 58.1824C66.7442 58.1824 66.8468 58.2239 66.9235 58.2983L71.9024 62.5924C71.9423 62.6266 71.975 62.6685 71.9985 62.7155C72.0221 62.7626 72.0359 62.8138 72.0394 62.8663C72.0438 62.9187 72.0375 62.9714 72.0209 63.0213C72.0043 63.0712 71.9777 63.1171 71.9427 63.1563L55.9183 81.7669C55.6168 82.1193 55.2474 82.4071 54.8321 82.6134C54.4168 82.8197 53.9642 82.94 53.5013 82.9674L53.2596 82.9432ZM51.2213 81.2352L51.5033 81.4769C51.7707 81.7097 52.0816 81.8873 52.4181 81.9992C52.7545 82.1112 53.1098 82.1553 53.4634 82.1291C53.8171 82.1028 54.162 82.0068 54.4782 81.8464C54.7945 81.6861 55.0758 81.4647 55.306 81.1949L71.0726 62.8985L66.6979 59.1361L50.9393 77.4325C50.7065 77.6999 50.529 78.0109 50.417 78.3473C50.3051 78.6838 50.2609 79.0391 50.2872 79.3927C50.3134 79.7463 50.4094 80.0912 50.5698 80.4075C50.7301 80.7237 50.9516 81.0051 51.2213 81.2352Z" fill="#121116"/>
<path id="Vector_27" d="M63.7856 58.8168L71.831 65.7467L87.5101 47.5438L79.4647 40.6139L63.7856 58.8168Z" fill="white"/>
<path id="Vector_28" d="M71.8455 66.1454C71.7487 66.1431 71.6553 66.1091 71.5796 66.0487L63.5231 59.1201C63.4488 59.0434 63.4072 58.9408 63.4072 58.8341C63.4072 58.7273 63.4488 58.6247 63.5231 58.548L79.177 40.3483C79.2472 40.2691 79.3453 40.22 79.4509 40.2114C79.5033 40.2065 79.5561 40.2125 79.6061 40.2292C79.656 40.2458 79.7019 40.2727 79.7409 40.3081L87.7974 47.2367C87.8712 47.312 87.9126 47.4132 87.9126 47.5187C87.9126 47.6241 87.8712 47.7253 87.7974 47.8006L72.1194 66.0003C72.05 66.0819 71.952 66.1338 71.8455 66.1454ZM64.369 58.7736L71.8052 65.1705L86.9515 47.5831L79.5234 41.1379L64.369 58.7736Z" fill="#121116"/>
<path id="Vector_29" d="M28.503 105.515L30.8715 107.555C32.4391 108.905 34.8046 108.729 36.1549 107.161L58.5273 81.1876C59.8776 79.62 59.7014 77.2545 58.1338 75.9042L55.7653 73.8641C54.1977 72.5138 51.8322 72.6901 50.4819 74.2577L28.1095 100.231C26.7592 101.799 26.9354 104.164 28.503 105.515Z" fill="#121116"/>
<path id="Vector_30" d="M33.3195 108.861C32.3258 108.86 31.3655 108.502 30.6125 107.854L28.2842 105.816C27.4532 105.096 26.9409 104.077 26.8593 102.981C26.7778 101.885 27.1337 100.801 27.8491 99.9667L50.2221 74.0005C50.9415 73.1695 51.9607 72.6572 53.0568 72.5757C54.153 72.4941 55.2368 72.85 56.0712 73.5655L58.4317 75.6038C58.8451 75.9588 59.1843 76.3919 59.4299 76.8782C59.6756 77.3646 59.8228 77.8946 59.8632 78.438C59.9036 78.9814 59.8364 79.5274 59.6654 80.0447C59.4945 80.562 59.223 81.0406 58.8668 81.4528L36.5018 107.419C35.7832 108.253 34.7636 108.769 33.6659 108.853L33.3195 108.861ZM53.34 73.3641H53.0822C52.6436 73.3954 52.2156 73.5133 51.8228 73.7111C51.4301 73.9088 51.0805 74.1825 50.7941 74.5161L28.4211 100.531C27.8449 101.199 27.5554 102.067 27.6155 102.948C27.6459 103.386 27.7635 103.815 27.9613 104.208C28.1591 104.6 28.4332 104.95 28.7676 105.236L31.1281 107.274C31.7963 107.85 32.6648 108.14 33.5451 108.08C33.9839 108.049 34.4122 107.932 34.8051 107.734C35.1979 107.536 35.5474 107.262 35.8332 106.928L58.2061 80.9614C58.4934 80.6283 58.7121 80.2419 58.8498 79.8242C58.9875 79.4066 59.0414 78.9658 59.0084 78.5272C58.9755 78.0887 58.8564 77.6609 58.6579 77.2685C58.4594 76.8761 58.1854 76.5266 57.8517 76.2402L55.4911 74.2019C54.8967 73.6755 54.1339 73.3784 53.34 73.3641Z" fill="#121116"/>
<path id="Vector_31" d="M87.5081 67.6115C103.072 67.6115 115.69 54.9941 115.69 39.4298C115.69 23.8654 103.072 11.248 87.5081 11.248C71.9438 11.248 59.3264 23.8654 59.3264 39.4298C59.3264 54.9941 71.9438 67.6115 87.5081 67.6115Z" fill="white"/>
<path id="Vector_32" d="M87.4591 68.0225C81.9893 68.013 76.6371 66.4348 72.0372 63.4751C67.4373 60.5154 63.7829 56.2984 61.5075 51.3244C59.2321 46.3503 58.4311 40.828 59.1997 35.4125C59.9682 29.9969 62.274 24.9155 65.8434 20.7709C68.911 17.2055 72.8108 14.4519 77.1971 12.7541C81.5835 11.0564 86.3209 10.4669 90.9895 11.0379C95.6581 11.609 100.114 13.323 103.962 16.0279C107.809 18.7328 110.93 22.3452 113.048 26.5449C115.166 30.7446 116.215 35.4018 116.102 40.1039C115.99 44.806 114.719 49.4077 112.402 53.5011C110.086 57.5945 106.795 61.0533 102.823 63.5709C98.8496 66.0884 94.317 67.587 89.6263 67.9338C88.9012 67.9902 88.1762 68.0225 87.4591 68.0225ZM87.5477 11.6267C86.8441 11.6267 86.1432 11.6509 85.445 11.6993C81.8047 11.962 78.2524 12.943 74.9932 14.5857C71.7339 16.2285 68.8323 18.5004 66.4558 21.2704C62.3249 26.0746 59.9605 32.1465 59.7547 38.4791C59.5488 44.8117 61.514 51.0243 65.3242 56.0866C69.1343 61.1489 74.5605 64.7565 80.7028 66.3112C86.845 67.8658 93.3341 67.2741 99.0938 64.634C104.854 61.994 109.538 57.4643 112.369 51.7964C115.201 46.1284 116.01 39.6628 114.662 33.4719C113.314 27.281 109.89 21.7369 104.959 17.7592C100.027 13.7815 93.8837 11.6091 87.5477 11.6026V11.6267Z" fill="#121116"/>
<path id="Vector_33" d="M87.5077 62.3185C100.149 62.3185 110.396 52.0709 110.396 39.4299C110.396 26.7888 100.149 16.5413 87.5077 16.5413C74.8666 16.5413 64.6191 26.7888 64.6191 39.4299C64.6191 52.0709 74.8666 62.3185 87.5077 62.3185Z" fill="white"/>
<path id="Vector_34" d="M87.4918 62.7132C83.0318 62.7167 78.6647 61.4388 74.9102 59.0314C71.1557 56.624 68.1719 53.1886 66.314 49.134C64.456 45.0794 63.8021 40.5764 64.43 36.1608C65.058 31.7452 66.9414 27.603 69.8561 24.2272L70.1622 24.485L69.8561 24.2272C72.4033 21.2679 75.6537 18.9964 79.3083 17.6217C82.9629 16.247 86.9045 15.8131 90.7706 16.3599C94.6368 16.9068 98.3034 18.4168 101.433 20.7512C104.563 23.0855 107.056 26.1693 108.683 29.719C110.309 33.2687 111.018 37.1703 110.742 41.0652C110.467 44.9601 109.216 48.7232 107.106 52.0086C104.996 55.294 102.094 57.9962 98.6665 59.8667C95.2391 61.7372 91.3964 62.7161 87.4918 62.7132ZM70.4684 24.7509C67.5676 28.1213 65.7314 32.2762 65.1918 36.6902C64.6522 41.1042 65.4335 45.579 67.4369 49.549C69.4403 53.519 72.5758 56.8058 76.4471 58.9939C80.3183 61.182 84.7514 62.1732 89.1859 61.842C93.6204 61.5109 97.8571 59.8723 101.36 57.1335C104.864 54.3947 107.476 50.6786 108.868 46.4551C110.259 42.2316 110.367 37.6903 109.178 33.4054C107.989 29.1206 105.556 25.2845 102.187 22.3822C97.6647 18.4961 91.7858 16.5622 85.8396 17.0048C79.8934 17.4473 74.3655 20.2301 70.4684 24.7428V24.7509Z" fill="#121116"/>
<path id="Vector_35" d="M32.1273 150.57C33.4325 147.678 38.5725 114.92 40.1274 112.18C41.2312 110.287 42.4236 107.83 43.9946 106.283C45.5656 104.736 47.9584 103.673 49.7308 102.061C56.595 95.8499 63.5639 88.8568 65.6183 79.8335C65.9567 78.3752 65.6908 76.2725 64.2004 76.1919C63.6411 76.2161 63.1045 76.4195 62.6696 76.772C58.9797 79.189 56.2244 83.2172 52.6473 85.4167C53.598 84.7882 53.8719 77.1265 54.4681 75.628C55.6363 72.6873 57.4812 69.9884 58.8589 67.0478C59.4148 65.8796 59.9707 64.5422 59.4954 63.3418C59.2239 62.8029 58.8066 62.3511 58.291 62.0378C57.7754 61.7244 57.1822 61.5621 56.5789 61.5693C55.3717 61.6054 54.1836 61.8792 53.0823 62.375C48.8715 63.9863 44.6982 65.6969 40.5625 67.507C39.1969 68.0366 37.9137 68.7582 36.7518 69.65C35.5327 70.7859 34.4972 72.1041 33.6822 73.5574C30.5402 78.5525 21.5249 95.6404 20.1795 99.5317C19.7041 100.917 5.59716 141.506 4.87207 141.426C4.96069 141.401 32.1273 150.57 32.1273 150.57Z" fill="white"/>
<path id="Vector_36" d="M32.1275 150.973C32.0849 150.98 32.0413 150.98 31.9986 150.973C22.7336 147.847 5.10594 141.901 4.75145 141.796C4.70013 141.787 4.65127 141.767 4.60782 141.738C4.56437 141.709 4.52722 141.672 4.49861 141.628C4.47001 141.584 4.45054 141.535 4.44137 141.484C4.43221 141.432 4.43355 141.38 4.4453 141.329C4.45777 141.271 4.48302 141.216 4.51924 141.168C4.55546 141.121 4.60175 141.082 4.65477 141.055C5.96798 139.081 18.0044 104.623 19.8011 99.4269C21.1223 95.5839 30.049 78.6008 33.3441 73.364C34.1763 71.8643 35.2393 70.5049 36.4942 69.3358C37.6876 68.4217 39.0028 67.6787 40.4016 67.1283C44.5104 65.3155 48.7321 63.5834 52.9456 61.9882C54.0982 61.4848 55.3379 61.2112 56.5952 61.1825C57.2752 61.1789 57.9425 61.3666 58.5209 61.7242C59.0993 62.0818 59.5655 62.5948 59.8662 63.2047C60.406 64.5421 59.8178 65.9842 59.2217 67.233C58.6255 68.4818 57.9729 69.65 57.3284 70.8343C56.3947 72.4344 55.5632 74.092 54.8389 75.7971C54.5361 77.0873 54.3341 78.3991 54.2347 79.7206C53.9849 81.8314 53.7915 83.338 53.5579 84.329C54.9319 83.2434 56.2294 82.0643 57.4412 80.8002C58.9581 79.1853 60.6343 77.7277 62.4443 76.4497C62.9492 76.0476 63.5715 75.8213 64.2167 75.8051C64.4799 75.8174 64.7368 75.889 64.9684 76.0146C65.2 76.1402 65.4002 76.3164 65.5541 76.5302C65.853 77.0394 66.0476 77.6029 66.1264 78.188C66.2053 78.7731 66.1668 79.3681 66.0133 79.9382C63.9106 89.1709 56.6436 96.3654 50.005 102.376C49.1221 103.133 48.1791 103.817 47.1852 104.422C46.1453 105.042 45.1709 105.765 44.2768 106.581C43.0505 107.97 42.008 109.51 41.175 111.165C40.9333 111.592 40.6997 111.971 40.4741 112.398C39.6685 113.824 37.7027 124.402 35.9866 133.724C34.4398 142.127 33.1104 149.385 32.4981 150.747C32.4636 150.815 32.4105 150.873 32.345 150.913C32.2796 150.953 32.2042 150.973 32.1275 150.973ZM5.46042 141.152L31.8858 150.062C32.5304 148.08 33.8839 140.709 35.1971 133.562C37.0017 123.717 38.8709 113.526 39.7812 111.979C40.0068 111.592 40.2324 111.173 40.4741 110.754C41.328 109.029 42.4121 107.427 43.6967 105.993C44.6274 105.134 45.6454 104.376 46.734 103.729C47.6883 103.145 48.596 102.487 49.4491 101.763C55.999 95.8337 63.1452 88.7439 65.2157 79.7448C65.466 78.8217 65.3506 77.8376 64.8935 76.9975C64.8124 76.8766 64.7034 76.777 64.5759 76.7069C64.4483 76.6368 64.3058 76.5983 64.1603 76.5947C63.6882 76.6315 63.2385 76.8113 62.8713 77.1103C61.108 78.3614 59.4727 79.7835 57.989 81.3561C56.448 83.018 54.7206 84.4968 52.8409 85.763C52.7508 85.8173 52.6431 85.8342 52.5407 85.8101C52.4383 85.786 52.3495 85.7229 52.293 85.6341C52.2372 85.546 52.2178 85.4396 52.2389 85.3374C52.2599 85.2352 52.3198 85.1452 52.4058 85.0863C52.8248 84.7237 53.2115 81.5253 53.4129 79.6159C53.5142 78.2218 53.7352 76.8391 54.0735 75.4829C54.8091 73.7432 55.6568 72.0532 56.6113 70.4234C57.2478 69.2713 57.9084 68.0789 58.4805 66.8705C59.0525 65.662 59.5198 64.526 59.1008 63.4948C58.86 63.0276 58.493 62.6374 58.0416 62.3682C57.5902 62.0991 57.0724 61.9618 56.5469 61.9721C55.3923 62.014 54.2579 62.288 53.2115 62.7777C49.014 64.389 44.8085 66.089 40.7077 67.8936C39.3812 68.4184 38.1319 69.1203 36.9937 69.9803C35.8107 71.0933 34.8054 72.3812 34.0128 73.7991C30.7338 79.0036 21.8555 95.882 20.5503 99.6847C20.1555 100.813 16.522 111.206 12.9852 121.18C7.97406 135.23 6.21774 139.734 5.46042 141.152Z" fill="#121116"/>
<path id="Vector_37" d="M72.7002 39.301L72.0315 41.307H71.1855L73.3528 34.9263H74.3437L76.519 41.307H75.6408L74.956 39.301H72.7002ZM74.7868 38.6564L74.2067 36.8115C74.0617 36.3926 73.965 36.0058 73.8764 35.6514C73.7797 36.03 73.6831 36.457 73.5542 36.8034L72.9338 38.6484L74.7868 38.6564Z" fill="#121116"/>
<path id="Vector_38" d="M77.4291 37.9555C77.4291 37.4882 77.4291 37.0935 77.3888 36.7148H78.13L78.1783 37.4721C78.3281 37.204 78.5485 36.9819 78.8154 36.8299C79.0824 36.678 79.3859 36.6019 79.6929 36.6101C80.3294 36.6101 81.3043 36.9887 81.3043 38.5678V41.299H80.4986V38.6564C80.4986 37.9233 80.2247 37.3029 79.4351 37.3029C79.1824 37.3058 78.9374 37.3906 78.7369 37.5446C78.5364 37.6986 78.3913 37.9135 78.3233 38.1569C78.2798 38.2812 78.258 38.412 78.2589 38.5437V41.299H77.4532L77.4291 37.9555Z" fill="#121116"/>
<path id="Vector_39" d="M85.195 41.2991L85.1306 40.719C84.9681 40.9363 84.7562 41.1117 84.5124 41.2308C84.2686 41.3499 84 41.4092 83.7287 41.4038C83.5481 41.4206 83.366 41.3996 83.194 41.3421C83.022 41.2845 82.8638 41.1918 82.7297 41.0698C82.5955 40.9477 82.4882 40.799 82.4147 40.6332C82.3412 40.4674 82.3031 40.2881 82.3027 40.1067C82.3027 38.9949 83.2856 38.3907 85.0581 38.3987V38.3101C85.0773 38.168 85.064 38.0234 85.0189 37.8873C84.9739 37.7512 84.8984 37.6271 84.7982 37.5246C84.6979 37.422 84.5756 37.3437 84.4406 37.2955C84.3055 37.2474 84.1613 37.2306 84.0188 37.2466C83.5951 37.2465 83.1796 37.3636 82.8184 37.585L82.6331 37.0372C83.0864 36.7607 83.6087 36.6183 84.1396 36.6263C85.5415 36.6263 85.8798 37.585 85.8798 38.5035V40.2195C85.8731 40.5861 85.8974 40.9527 85.9523 41.3152L85.195 41.2991ZM85.0742 38.9627C84.1638 38.9627 83.1326 39.1077 83.1326 39.9939C83.1226 40.1022 83.1367 40.2113 83.1737 40.3136C83.2106 40.4158 83.2697 40.5087 83.3466 40.5856C83.4235 40.6625 83.5163 40.7215 83.6185 40.7585C83.7208 40.7955 83.8299 40.8095 83.9382 40.7996C84.1797 40.8059 84.4168 40.7351 84.6153 40.5975C84.8138 40.4599 84.9632 40.2626 85.0419 40.0342C85.0729 39.9489 85.0893 39.8591 85.0903 39.7683L85.0742 38.9627Z" fill="#121116"/>
<path id="Vector_40" d="M87.2266 34.5798H88.0322V41.299H87.2266V34.5798Z" fill="#121116"/>
<path id="Vector_41" d="M89.7634 36.7148L90.7705 39.4218C90.8752 39.728 90.988 40.0905 91.0605 40.3645C91.1411 40.0905 91.2377 39.736 91.3505 39.4057L92.2609 36.7148H93.1391L91.9306 39.9858C91.3344 41.5971 90.9316 42.4028 90.3596 42.8539C90.0719 43.1207 89.719 43.3068 89.3364 43.3937L89.1269 42.6928C89.3954 42.604 89.6443 42.4646 89.8601 42.2819C90.1618 42.031 90.4016 41.714 90.561 41.3554C90.5911 41.2942 90.6128 41.2291 90.6254 41.162C90.6196 41.0842 90.6006 41.0079 90.569 40.9365L88.8772 36.7148H89.7634Z" fill="#121116"/>
<path id="Vector_42" d="M93.4053 40.8156L95.4758 38.1167L96.072 37.4077H93.5906V36.731H97.0871V37.2546L95.0407 39.9133C94.8474 40.1711 94.6621 40.3967 94.4526 40.6384H97.1355V41.299H93.4133L93.4053 40.8156Z" fill="#121116"/>
<path id="Vector_43" d="M98.3754 39.164C98.3536 39.3775 98.3788 39.5933 98.4495 39.7959C98.5201 39.9986 98.6344 40.1833 98.7842 40.337C98.9341 40.4906 99.1158 40.6096 99.3166 40.6853C99.5174 40.761 99.7324 40.7918 99.9464 40.7753C100.382 40.7876 100.816 40.708 101.219 40.5417L101.356 41.1379C100.874 41.3371 100.355 41.4332 99.8336 41.4199C99.5274 41.4397 99.2205 41.393 98.934 41.283C98.6475 41.173 98.3882 41.0023 98.1739 40.7827C97.9595 40.563 97.7953 40.2995 97.6924 40.0104C97.5895 39.7213 97.5504 39.4133 97.5778 39.1076C97.5778 37.73 98.3835 36.6343 99.7289 36.6343C99.9949 36.6429 100.256 36.706 100.497 36.8199C100.737 36.9337 100.952 37.0957 101.127 37.2959C101.302 37.4961 101.435 37.7302 101.516 37.9837C101.597 38.2371 101.625 38.5045 101.598 38.7693C101.605 38.9008 101.605 39.0325 101.598 39.164H98.3754ZM100.792 38.5678C100.816 38.4014 100.805 38.2318 100.758 38.0702C100.712 37.9087 100.631 37.7589 100.522 37.6308C100.413 37.5028 100.278 37.3994 100.126 37.3276C99.974 37.2558 99.8084 37.2172 99.6403 37.2143C99.2996 37.2441 98.9819 37.3988 98.7484 37.6487C98.5149 37.8985 98.3821 38.2259 98.3754 38.5678H100.792Z" fill="#121116"/>
<path id="Vector_44" d="M102.348 40.8076C102.355 40.6973 102.393 40.5913 102.459 40.5027C102.525 40.4142 102.616 40.3469 102.72 40.3094C102.824 40.2719 102.936 40.2657 103.044 40.2916C103.151 40.3176 103.248 40.3744 103.324 40.4552C103.399 40.536 103.449 40.6372 103.467 40.7461C103.486 40.855 103.472 40.967 103.427 41.068C103.382 41.169 103.309 41.2547 103.216 41.3144C103.123 41.3741 103.015 41.4051 102.904 41.4037C102.828 41.4039 102.752 41.3884 102.682 41.3579C102.612 41.3275 102.548 41.2829 102.496 41.227C102.444 41.171 102.404 41.1049 102.378 41.0327C102.353 40.9605 102.343 40.8839 102.348 40.8076Z" fill="#121116"/>
<path id="Vector_45" d="M104.306 40.8075C104.301 40.7301 104.313 40.6526 104.34 40.5799C104.367 40.5071 104.408 40.4407 104.462 40.3848C104.516 40.3288 104.58 40.2845 104.652 40.2547C104.723 40.2248 104.8 40.2101 104.878 40.2113C104.997 40.2065 105.114 40.2373 105.215 40.2998C105.317 40.3623 105.397 40.4537 105.446 40.5621C105.494 40.6705 105.51 40.7911 105.489 40.9083C105.469 41.0255 105.415 41.1339 105.332 41.2198C105.25 41.3056 105.144 41.3648 105.027 41.3898C104.911 41.4149 104.79 41.4045 104.68 41.3602C104.569 41.3159 104.475 41.2396 104.408 41.1411C104.342 41.0426 104.306 40.9264 104.306 40.8075Z" fill="#121116"/>
<path id="Vector_46" d="M35.4866 152.568L39.539 120.64L12.1952 113.526L0.400391 152.568H35.4866Z" fill="#121116"/>
<path id="Vector_47" d="M35.4868 152.971H0.400592C0.337832 152.972 0.275695 152.958 0.219549 152.93C0.163403 152.902 0.114934 152.86 0.0783297 152.809C0.0424013 152.759 0.0180206 152.701 0.00688722 152.639C-0.00424614 152.578 -0.0018583 152.515 0.0138821 152.455L11.8167 113.421C11.8449 113.321 11.9115 113.236 12.002 113.185C12.0926 113.133 12.1997 113.12 12.3001 113.147L39.6359 120.261C39.7305 120.284 39.8132 120.341 39.8683 120.421C39.9233 120.502 39.9467 120.6 39.934 120.696L35.9057 152.632C35.8917 152.731 35.8407 152.821 35.7629 152.884C35.6852 152.947 35.5865 152.978 35.4868 152.971ZM0.940378 152.165H35.1323L39.0961 120.93L12.5096 114.001L0.940378 152.165Z" fill="#121116"/>
<path id="Vector_48" d="M194.741 154.083L186.942 118.634L160.67 123.717C160.67 123.717 162.168 144.35 162.95 154.074L194.741 154.083Z" fill="#121116"/>
<path id="Vector_49" d="M194.74 154.509H162.949C162.848 154.51 162.75 154.472 162.675 154.403C162.6 154.334 162.554 154.24 162.546 154.139C161.741 144.519 160.282 123.983 160.274 123.774C160.265 123.676 160.293 123.578 160.353 123.501C160.413 123.423 160.5 123.371 160.597 123.355L186.869 118.279C186.92 118.269 186.972 118.268 187.023 118.278C187.074 118.287 187.123 118.307 187.166 118.335C187.209 118.364 187.247 118.401 187.276 118.443C187.305 118.486 187.326 118.535 187.336 118.585L195.135 154.034C195.147 154.093 195.145 154.154 195.131 154.212C195.118 154.27 195.091 154.325 195.054 154.372C195.016 154.417 194.967 154.453 194.913 154.477C194.859 154.501 194.8 154.512 194.74 154.509ZM163.32 153.704H194.249L186.643 119.141L161.104 124.072C161.298 126.787 162.595 144.64 163.32 153.704Z" fill="#121116"/>
<path id="Vector_50" d="M150.235 74.5886H61.0093C60.9024 74.5886 60.8 74.5462 60.7244 74.4706C60.6489 74.3951 60.6064 74.2926 60.6064 74.1858C60.6064 74.0789 60.6489 73.9765 60.7244 73.9009C60.8 73.8254 60.9024 73.783 61.0093 73.783H150.235C150.342 73.783 150.445 73.8254 150.52 73.9009C150.596 73.9765 150.638 74.0789 150.638 74.1858C150.638 74.2926 150.596 74.3951 150.52 74.4706C150.445 74.5462 150.342 74.5886 150.235 74.5886Z" fill="#121116"/>
<path id="Vector_51" d="M147.062 23.2766H123.472C123.366 23.2766 123.263 23.2342 123.188 23.1586C123.112 23.0831 123.07 22.9806 123.07 22.8738C123.07 22.7669 123.112 22.6645 123.188 22.5889C123.263 22.5134 123.366 22.4709 123.472 22.4709H147.062C147.169 22.4709 147.271 22.5134 147.347 22.5889C147.422 22.6645 147.465 22.7669 147.465 22.8738C147.465 22.9806 147.422 23.0831 147.347 23.1586C147.271 23.2342 147.169 23.2766 147.062 23.2766Z" fill="#D1D3D4"/>
<path id="Vector_52" d="M147.062 17.3791H120.749C120.642 17.3791 120.54 17.3367 120.464 17.2612C120.389 17.1856 120.346 17.0831 120.346 16.9763C120.346 16.8695 120.389 16.767 120.464 16.6915C120.54 16.6159 120.642 16.5735 120.749 16.5735H147.062C147.169 16.5735 147.271 16.6159 147.347 16.6915C147.422 16.767 147.465 16.8695 147.465 16.9763C147.465 17.0831 147.422 17.1856 147.347 17.2612C147.271 17.3367 147.169 17.3791 147.062 17.3791Z" fill="#D1D3D4"/>
<path id="Vector_53" d="M57.1746 139.943C60.0185 139.943 60.0185 143.166 62.8705 143.166C65.7226 143.166 65.7226 139.943 68.5746 139.943C71.4266 139.943 71.4266 143.166 74.2786 143.166C77.1306 143.166 77.1226 139.943 79.9746 139.943C82.8266 139.943 82.8266 143.166 85.6786 143.166C88.5306 143.166 88.5306 139.943 91.3826 139.943C94.2346 139.943 94.2346 143.166 97.0866 143.166C99.9387 143.166 99.9387 139.943 102.783 139.943C105.627 139.943 105.635 143.166 108.487 143.166C111.339 143.166 111.339 139.943 114.191 139.943C117.043 139.943 117.043 143.166 119.895 143.166C122.747 143.166 122.747 139.943 125.599 139.943C128.451 139.943 128.443 143.166 131.295 143.166C134.147 143.166 134.147 139.943 136.999 139.943C139.851 139.943 139.859 143.166 142.711 143.166C145.563 143.166 145.563 139.943 148.423 139.943" fill="white"/>
<path id="Vector_54" d="M142.686 143.569C142.059 143.547 141.446 143.377 140.898 143.073C140.349 142.769 139.88 142.34 139.528 141.82C138.827 141.015 138.223 140.346 136.974 140.346C135.725 140.346 135.129 141.031 134.428 141.82C134.094 142.355 133.629 142.795 133.077 143.101C132.525 143.406 131.905 143.566 131.274 143.566C130.644 143.566 130.023 143.406 129.472 143.101C128.92 142.795 128.455 142.355 128.12 141.82C127.419 141.015 126.815 140.346 125.574 140.346C124.334 140.346 123.721 141.031 123.02 141.82C122.686 142.355 122.22 142.795 121.669 143.101C121.117 143.406 120.497 143.566 119.866 143.566C119.236 143.566 118.615 143.406 118.064 143.101C117.512 142.795 117.047 142.355 116.712 141.82C116.011 141.015 115.407 140.346 114.166 140.346C112.926 140.346 112.313 141.031 111.62 141.82C111.286 142.355 110.82 142.795 110.269 143.101C109.717 143.406 109.097 143.566 108.466 143.566C107.836 143.566 107.215 143.406 106.664 143.101C106.112 142.795 105.647 142.355 105.312 141.82C104.611 141.015 104.007 140.346 102.758 140.346C101.509 140.346 100.913 141.031 100.212 141.82C99.8775 142.355 99.4124 142.795 98.8607 143.101C98.309 143.406 97.6888 143.566 97.0582 143.566C96.4276 143.566 95.8073 143.406 95.2556 143.101C94.7039 142.795 94.2388 142.355 93.904 141.82C93.2031 141.015 92.5989 140.346 91.3582 140.346C90.1175 140.346 89.5052 141.031 88.8042 141.82C88.4704 142.355 88.0062 142.796 87.4551 143.101C86.904 143.407 86.2843 143.567 85.6542 143.567C85.024 143.567 84.4043 143.407 83.8532 143.101C83.3021 142.796 82.8378 142.355 82.504 141.82C81.8031 141.015 81.1989 140.346 79.9501 140.346C78.7014 140.346 78.1052 141.031 77.4043 141.82C77.0694 142.355 76.6044 142.795 76.0527 143.101C75.501 143.406 74.8807 143.566 74.2501 143.566C73.6195 143.566 72.9993 143.406 72.4476 143.101C71.8959 142.795 71.4308 142.355 71.096 141.82C70.3951 141.015 69.7908 140.346 68.5501 140.346C67.3094 140.346 66.6971 141.031 65.9962 141.82C65.6624 142.355 65.1981 142.796 64.647 143.101C64.096 143.407 63.4762 143.567 62.8461 143.567C62.216 143.567 61.5962 143.407 61.0452 143.101C60.4941 142.796 60.0298 142.355 59.696 141.82C58.9951 141.015 58.3908 140.346 57.1421 140.346C57.0352 140.346 56.9328 140.304 56.8572 140.228C56.7817 140.153 56.7393 140.05 56.7393 139.943C56.7413 139.837 56.7844 139.736 56.8595 139.661C56.9346 139.586 57.0359 139.542 57.1421 139.54C57.769 139.562 58.3819 139.732 58.9308 140.036C59.4796 140.34 59.9489 140.769 60.3002 141.289C61.0012 142.094 61.6054 142.763 62.8461 142.763C64.0868 142.763 64.6911 142.078 65.4 141.289C65.7338 140.754 66.1981 140.314 66.7492 140.008C67.3003 139.702 67.92 139.542 68.5501 139.542C69.1802 139.542 69.8 139.702 70.3511 140.008C70.9021 140.314 71.3664 140.754 71.7002 141.289C72.4011 142.094 73.0054 142.763 74.2542 142.763C75.5029 142.763 76.0991 142.078 76.8 141.289C77.1348 140.754 77.5999 140.314 78.1516 140.008C78.7033 139.703 79.3236 139.543 79.9541 139.543C80.5847 139.543 81.205 139.703 81.7567 140.008C82.3084 140.314 82.7735 140.754 83.1083 141.289C83.8092 142.094 84.4134 142.763 85.6542 142.763C86.8949 142.763 87.5072 142.078 88.2081 141.289C88.5419 140.754 89.0061 140.314 89.5572 140.008C90.1083 139.702 90.7281 139.542 91.3582 139.542C91.9883 139.542 92.608 139.702 93.1591 140.008C93.7102 140.314 94.1745 140.754 94.5083 141.289C95.2092 142.094 95.8134 142.763 97.0622 142.763C98.311 142.763 98.9071 142.078 99.6081 141.289C99.9429 140.754 100.408 140.314 100.96 140.008C101.511 139.703 102.132 139.543 102.762 139.543C103.393 139.543 104.013 139.703 104.565 140.008C105.116 140.314 105.582 140.754 105.916 141.289C106.617 142.094 107.221 142.763 108.462 142.763C109.703 142.763 110.315 142.078 111.016 141.289C111.35 140.754 111.814 140.314 112.365 140.008C112.916 139.702 113.536 139.542 114.166 139.542C114.796 139.542 115.416 139.702 115.967 140.008C116.518 140.314 116.983 140.754 117.316 141.289C118.017 142.094 118.621 142.763 119.87 142.763C121.119 142.763 121.715 142.078 122.416 141.289C122.751 140.754 123.216 140.314 123.768 140.008C124.319 139.703 124.94 139.543 125.57 139.543C126.201 139.543 126.821 139.703 127.373 140.008C127.924 140.314 128.39 140.754 128.724 141.289C129.425 142.094 130.03 142.763 131.27 142.763C132.511 142.763 133.123 142.078 133.824 141.289C134.159 140.754 134.624 140.314 135.176 140.008C135.727 139.703 136.348 139.543 136.978 139.543C137.609 139.543 138.229 139.703 138.781 140.008C139.333 140.314 139.798 140.754 140.132 141.289C140.833 142.094 141.438 142.763 142.686 142.763C143.935 142.763 144.539 142.078 145.24 141.289C145.592 140.769 146.061 140.34 146.61 140.036C147.159 139.732 147.771 139.562 148.398 139.54C148.505 139.542 148.606 139.586 148.681 139.661C148.756 139.736 148.799 139.837 148.801 139.943C148.801 140.05 148.759 140.153 148.683 140.228C148.608 140.304 148.505 140.346 148.398 140.346C147.15 140.346 146.545 141.031 145.845 141.82C145.493 142.34 145.024 142.769 144.475 143.073C143.926 143.377 143.313 143.547 142.686 143.569Z" fill="#D1D3D4"/>
<path id="Vector_55" d="M57.1746 148.958C60.0185 148.958 60.0185 152.181 62.8705 152.181C65.7226 152.181 65.7226 148.958 68.5746 148.958C71.4266 148.958 71.4266 152.181 74.2786 152.181C77.1306 152.181 77.1226 148.958 79.9746 148.958C82.8266 148.958 82.8266 152.181 85.6786 152.181C88.5306 152.181 88.5306 148.958 91.3826 148.958C94.2346 148.958 94.2346 152.181 97.0866 152.181C99.9387 152.181 99.9387 148.958 102.783 148.958C105.627 148.958 105.635 152.181 108.487 152.181C111.339 152.181 111.339 148.958 114.191 148.958C117.043 148.958 117.043 152.181 119.895 152.181C122.747 152.181 122.747 148.958 125.599 148.958C128.451 148.958 128.443 152.181 131.295 152.181C134.147 152.181 134.147 148.958 136.999 148.958C139.851 148.958 139.859 152.181 142.711 152.181C145.563 152.181 145.563 148.958 148.423 148.958" fill="white"/>
<path id="Vector_56" d="M142.686 152.584C142.059 152.562 141.446 152.392 140.898 152.088C140.349 151.784 139.88 151.355 139.528 150.836C138.827 150.03 138.223 149.361 136.974 149.361C135.725 149.361 135.129 150.046 134.428 150.836C134.094 151.37 133.629 151.81 133.077 152.116C132.525 152.421 131.905 152.581 131.274 152.581C130.644 152.581 130.023 152.421 129.472 152.116C128.92 151.81 128.455 151.37 128.12 150.836C127.419 150.03 126.815 149.361 125.574 149.361C124.334 149.361 123.721 150.046 123.02 150.836C122.686 151.37 122.22 151.81 121.669 152.116C121.117 152.421 120.497 152.581 119.866 152.581C119.236 152.581 118.615 152.421 118.064 152.116C117.512 151.81 117.047 151.37 116.712 150.836C116.011 150.03 115.407 149.361 114.166 149.361C112.926 149.361 112.313 150.046 111.62 150.836C111.286 151.37 110.82 151.81 110.269 152.116C109.717 152.421 109.097 152.581 108.466 152.581C107.836 152.581 107.215 152.421 106.664 152.116C106.112 151.81 105.647 151.37 105.312 150.836C104.611 150.03 104.007 149.361 102.758 149.361C101.509 149.361 100.913 150.046 100.212 150.836C99.8775 151.37 99.4124 151.81 98.8607 152.116C98.309 152.421 97.6888 152.581 97.0582 152.581C96.4276 152.581 95.8073 152.421 95.2556 152.116C94.7039 151.81 94.2388 151.37 93.904 150.836C93.2031 150.03 92.5989 149.361 91.3582 149.361C90.1175 149.361 89.5052 150.046 88.8042 150.836C88.4704 151.37 88.0062 151.811 87.4551 152.116C86.904 152.422 86.2843 152.582 85.6542 152.582C85.024 152.582 84.4043 152.422 83.8532 152.116C83.3021 151.811 82.8378 151.37 82.504 150.836C81.8031 150.03 81.1989 149.361 79.9501 149.361C78.7014 149.361 78.1052 150.046 77.4043 150.836C77.0694 151.37 76.6044 151.81 76.0527 152.116C75.501 152.421 74.8807 152.581 74.2501 152.581C73.6195 152.581 72.9993 152.421 72.4476 152.116C71.8959 151.81 71.4308 151.37 71.096 150.836C70.3951 150.03 69.7908 149.361 68.5501 149.361C67.3094 149.361 66.6971 150.046 65.9962 150.836C65.6624 151.37 65.1981 151.811 64.647 152.116C64.096 152.422 63.4762 152.582 62.8461 152.582C62.216 152.582 61.5962 152.422 61.0452 152.116C60.4941 151.811 60.0298 151.37 59.696 150.836C58.9951 150.03 58.3908 149.361 57.1421 149.361C57.0359 149.359 56.9346 149.316 56.8595 149.241C56.7844 149.166 56.7413 149.065 56.7393 148.958C56.7393 148.852 56.7817 148.749 56.8572 148.674C56.9328 148.598 57.0352 148.556 57.1421 148.556C57.769 148.577 58.3819 148.747 58.9308 149.051C59.4796 149.355 59.9489 149.784 60.3002 150.304C61.0012 151.109 61.6054 151.778 62.8461 151.778C64.0868 151.778 64.6911 151.093 65.4 150.304C65.7338 149.769 66.1981 149.329 66.7492 149.023C67.3003 148.718 67.92 148.557 68.5501 148.557C69.1802 148.557 69.8 148.718 70.3511 149.023C70.9021 149.329 71.3664 149.769 71.7002 150.304C72.4011 151.109 73.0054 151.778 74.2542 151.778C75.5029 151.778 76.0991 151.093 76.8 150.304C77.1348 149.769 77.5999 149.329 78.1516 149.024C78.7033 148.718 79.3236 148.558 79.9541 148.558C80.5847 148.558 81.205 148.718 81.7567 149.024C82.3084 149.329 82.7735 149.769 83.1083 150.304C83.8092 151.109 84.4134 151.778 85.6542 151.778C86.8949 151.778 87.5072 151.093 88.2081 150.304C88.5419 149.769 89.0061 149.329 89.5572 149.023C90.1083 148.718 90.7281 148.557 91.3582 148.557C91.9883 148.557 92.608 148.718 93.1591 149.023C93.7102 149.329 94.1745 149.769 94.5083 150.304C95.2092 151.109 95.8134 151.778 97.0622 151.778C98.311 151.778 98.9071 151.093 99.6081 150.304C99.9429 149.769 100.408 149.329 100.96 149.024C101.511 148.718 102.132 148.558 102.762 148.558C103.393 148.558 104.013 148.718 104.565 149.024C105.116 149.329 105.582 149.769 105.916 150.304C106.617 151.109 107.221 151.778 108.462 151.778C109.703 151.778 110.315 151.093 111.016 150.304C111.35 149.769 111.814 149.329 112.365 149.023C112.916 148.718 113.536 148.557 114.166 148.557C114.796 148.557 115.416 148.718 115.967 149.023C116.518 149.329 116.983 149.769 117.316 150.304C118.017 151.109 118.621 151.778 119.87 151.778C121.119 151.778 121.715 151.093 122.416 150.304C122.751 149.769 123.216 149.329 123.768 149.024C124.319 148.718 124.94 148.558 125.57 148.558C126.201 148.558 126.821 148.718 127.373 149.024C127.924 149.329 128.39 149.769 128.724 150.304C129.425 151.109 130.03 151.778 131.27 151.778C132.511 151.778 133.123 151.093 133.824 150.304C134.159 149.769 134.624 149.329 135.176 149.024C135.727 148.718 136.348 148.558 136.978 148.558C137.609 148.558 138.229 148.718 138.781 149.024C139.333 149.329 139.798 149.769 140.132 150.304C140.833 151.109 141.438 151.778 142.686 151.778C143.935 151.778 144.539 151.093 145.24 150.304C145.592 149.784 146.061 149.355 146.61 149.051C147.159 148.747 147.771 148.577 148.398 148.556C148.505 148.556 148.608 148.598 148.683 148.674C148.759 148.749 148.801 148.852 148.801 148.958C148.799 149.065 148.756 149.166 148.681 149.241C148.606 149.316 148.505 149.359 148.398 149.361C147.15 149.361 146.545 150.046 145.845 150.836C145.493 151.355 145.024 151.784 144.475 152.088C143.926 152.392 143.313 152.562 142.686 152.584Z" fill="#D1D3D4"/>
</g>
</svg>
