<svg width="231" height="164" viewBox="0 0 231 164" fill="none" xmlns="http://www.w3.org/2000/svg">
<g id="#554_finance_analytics_outline">
<path id="Vector" d="M46.9935 162.982L52.0759 125.139L49.8803 61.863C49.8803 61.863 9.88189 82.9245 7.07641 97.6329C3.94566 114.029 1.81105 147.918 0.977539 162.982H46.9935Z" fill="#FFC9B0"/>
<path id="Vector_2" d="M46.9939 163.999H1.01858C0.879949 164 0.742609 163.972 0.615001 163.918C0.487392 163.864 0.372217 163.784 0.27656 163.684C0.180987 163.582 0.107305 163.462 0.0600913 163.331C0.0128775 163.2 -0.00686286 163.06 0.00210626 162.921C0.784795 148.762 2.93973 114.039 6.10098 97.4498C8.96745 82.4263 47.7766 61.8731 49.4335 60.9684C49.5855 60.8895 49.7551 60.8503 49.9264 60.8544C50.0977 60.8586 50.2651 60.9059 50.4132 60.9922C50.5612 61.0784 50.6851 61.2006 50.7733 61.3475C50.8615 61.4944 50.9111 61.6612 50.9175 61.8324L53.1131 125.098C53.118 125.156 53.118 125.213 53.1131 125.271L48.0307 163.114C47.9981 163.364 47.874 163.593 47.6824 163.756C47.4909 163.919 47.2456 164.006 46.9939 163.999ZM2.08589 161.966H46.0994L51.0903 125.088L48.9557 63.5401C41.8404 67.4536 10.5023 85.3029 8.10344 97.8259C5.03368 113.896 2.9194 147.237 2.08589 161.966Z" fill="#121116"/>
<path id="Vector_3" d="M208.989 1.01636H53.5088C44.8971 1.01636 37.916 7.99748 37.916 16.6091V134.134C37.916 142.746 44.8971 149.727 53.5088 149.727H208.989C217.601 149.727 224.582 142.746 224.582 134.134V16.6091C224.582 7.99748 217.601 1.01636 208.989 1.01636Z" fill="#7557FF"/>
<path id="Vector_4" d="M208.99 150.754H53.4685C49.0634 150.749 44.8403 148.996 41.7264 145.88C38.6124 142.764 36.862 138.54 36.8593 134.134V16.6093C36.8647 12.2059 38.6163 7.98435 41.73 4.87068C44.8436 1.757 49.0651 0.00537984 53.4685 0H208.99C213.393 0.00537984 217.615 1.757 220.728 4.87068C223.842 7.98435 225.594 12.2059 225.599 16.6093V134.134C225.596 138.54 223.846 142.764 220.732 145.88C217.618 148.996 213.395 150.749 208.99 150.754ZM53.4685 2.03296C49.6035 2.03565 45.8975 3.57222 43.1645 6.30523C40.4315 9.03823 38.8949 12.7442 38.8922 16.6093V134.134C38.8949 138 40.4312 141.708 43.1639 144.442C45.8966 147.177 49.6026 148.716 53.4685 148.721H208.99C212.856 148.716 216.562 147.177 219.294 144.442C222.027 141.708 223.563 138 223.566 134.134V16.6093C223.563 12.7442 222.027 9.03823 219.294 6.30523C216.561 3.57222 212.855 2.03565 208.99 2.03296H53.4685Z" fill="#121116"/>
<path id="Vector_5" d="M212.355 16.345H50.1348V134.409H212.355V16.345Z" fill="white"/>
<path id="Vector_6" d="M212.364 135.425H50.1446C49.875 135.425 49.6164 135.318 49.4258 135.128C49.2352 134.937 49.1281 134.679 49.1281 134.409V16.345C49.1281 16.0754 49.2352 15.8168 49.4258 15.6262C49.6164 15.4356 49.875 15.3285 50.1446 15.3285H212.364C212.634 15.3285 212.892 15.4356 213.083 15.6262C213.274 15.8168 213.381 16.0754 213.381 16.345V134.409C213.381 134.679 213.274 134.937 213.083 135.128C212.892 135.318 212.634 135.425 212.364 135.425ZM51.161 133.392H211.348V17.3614H51.161V133.392Z" fill="#121116"/>
<path id="Vector_7" d="M82.2253 108.621H64.4776V120.595H82.2253V108.621Z" fill="#FF794E"/>
<path id="Vector_8" d="M82.2148 121.642H64.4569C64.1873 121.642 63.9288 121.535 63.7381 121.344C63.5475 121.154 63.4404 120.895 63.4404 120.626V108.621C63.4404 108.351 63.5475 108.093 63.7381 107.902C63.9288 107.712 64.1873 107.604 64.4569 107.604H82.1945C82.464 107.604 82.7226 107.712 82.9132 107.902C83.1038 108.093 83.2109 108.351 83.2109 108.621V120.626C83.211 120.892 83.1067 121.147 82.9204 121.337C82.7342 121.527 82.4808 121.637 82.2148 121.642ZM65.4734 119.609H81.178V109.678H65.4734V119.609Z" fill="#121116"/>
<path id="Vector_9" d="M111.175 102.847H93.4269V120.595H111.175V102.847Z" fill="#FF794E"/>
<path id="Vector_10" d="M111.215 121.642H93.4266C93.157 121.642 92.8985 121.535 92.7079 121.344C92.5172 121.154 92.4102 120.895 92.4102 120.625V102.847C92.4102 102.578 92.5172 102.319 92.7079 102.129C92.8985 101.938 93.157 101.831 93.4266 101.831H111.215C111.485 101.831 111.743 101.938 111.934 102.129C112.124 102.319 112.231 102.578 112.231 102.847V120.625C112.231 120.895 112.124 121.154 111.934 121.344C111.743 121.535 111.485 121.642 111.215 121.642ZM94.4838 119.609H110.199V103.864H94.4431L94.4838 119.609Z" fill="#121116"/>
<path id="Vector_11" d="M140.124 86.0652H122.376V120.595H140.124V86.0652Z" fill="#FFC631"/>
<path id="Vector_12" d="M140.124 121.642H122.396C122.127 121.642 121.868 121.535 121.677 121.344C121.487 121.154 121.38 120.895 121.38 120.625V86.0652C121.38 85.7956 121.487 85.5371 121.677 85.3464C121.868 85.1558 122.127 85.0487 122.396 85.0487H140.144C140.413 85.0487 140.672 85.1558 140.863 85.3464C141.053 85.5371 141.16 85.7956 141.16 86.0652V120.625C141.16 120.761 141.133 120.895 141.081 121.019C141.029 121.144 140.952 121.257 140.855 121.351C140.759 121.446 140.644 121.521 140.519 121.57C140.393 121.62 140.259 121.645 140.124 121.642ZM123.413 119.609H139.127V87.0817H123.413V119.609Z" fill="#121116"/>
<path id="Vector_13" d="M169.073 64.9124H151.325V120.585H169.073V64.9124Z" fill="#2A8588"/>
<path id="Vector_14" d="M169.073 121.642H151.325C151.055 121.642 150.797 121.535 150.606 121.344C150.416 121.154 150.308 120.895 150.308 120.626V64.9124C150.308 64.6428 150.416 64.3842 150.606 64.1936C150.797 64.003 151.055 63.8959 151.325 63.8959H169.073C169.342 63.8959 169.601 64.003 169.791 64.1936C169.982 64.3842 170.089 64.6428 170.089 64.9124V120.626C170.089 120.759 170.063 120.891 170.012 121.015C169.961 121.138 169.886 121.25 169.791 121.344C169.697 121.439 169.585 121.514 169.462 121.565C169.338 121.616 169.206 121.642 169.073 121.642ZM152.341 119.609H168.056V65.9288H152.341V119.609Z" fill="#121116"/>
<path id="Vector_15" d="M198.033 38.7483H180.285V120.595H198.033V38.7483Z" fill="#2A8588"/>
<path id="Vector_16" d="M198.023 121.642H180.336C180.066 121.642 179.808 121.535 179.617 121.344C179.427 121.154 179.319 120.895 179.319 120.626V38.7482C179.319 38.4786 179.427 38.22 179.617 38.0294C179.808 37.8388 180.066 37.7317 180.336 37.7317H198.023C198.292 37.7317 198.551 37.8388 198.741 38.0294C198.932 38.22 199.039 38.4786 199.039 38.7482V120.626C199.039 120.895 198.932 121.154 198.741 121.344C198.551 121.535 198.292 121.642 198.023 121.642ZM181.352 119.609H197.006V39.7646H181.352V119.609Z" fill="#121116"/>
<path id="Vector_17" d="M206.47 121.642H56.7626C56.493 121.642 56.2345 121.535 56.0439 121.344C55.8532 121.154 55.7461 120.895 55.7461 120.625C55.7461 120.356 55.8532 120.097 56.0439 119.907C56.2345 119.716 56.493 119.609 56.7626 119.609H206.47C206.739 119.609 206.998 119.716 207.188 119.907C207.379 120.097 207.486 120.356 207.486 120.625C207.486 120.895 207.379 121.154 207.188 121.344C206.998 121.535 206.739 121.642 206.47 121.642Z" fill="#121116"/>
<path id="Vector_18" d="M160.199 79.2853C157.357 79.2853 154.578 78.4424 152.214 76.863C149.851 75.2837 148.008 73.039 146.92 70.4126C145.833 67.7863 145.548 64.8964 146.103 62.1083C146.657 59.3202 148.026 56.7592 150.036 54.7491C152.046 52.739 154.607 51.3701 157.395 50.8155C160.183 50.2609 163.073 50.5455 165.7 51.6334C168.326 52.7213 170.571 54.5635 172.15 56.9271C173.729 59.2907 174.572 62.0696 174.572 64.9123C174.567 68.7226 173.051 72.3753 170.357 75.0696C167.662 77.7639 164.01 79.2799 160.199 79.2853ZM160.199 52.5723C157.759 52.5723 155.373 53.296 153.344 54.6519C151.314 56.0079 149.733 57.9351 148.799 60.19C147.865 62.4448 147.62 64.926 148.096 67.3197C148.573 69.7135 149.748 71.9123 151.474 73.6381C153.199 75.3638 155.398 76.5391 157.792 77.0153C160.186 77.4914 162.667 77.247 164.922 76.313C167.177 75.3791 169.104 73.7974 170.46 71.7681C171.816 69.7388 172.539 67.353 172.539 64.9123C172.534 61.6412 171.232 58.5056 168.919 56.1925C166.606 53.8795 163.47 52.5777 160.199 52.5723Z" fill="#121116"/>
<path id="Vector_19" d="M178.678 151.028L181.586 162.982H229.543C226.046 155.114 220.669 143.201 219.571 141.636C217.904 139.217 218.555 107.564 212.385 96.7991C209.061 91.3406 202.901 89.4906 196.802 90.0395C194.973 90.2022 178.506 94.2783 178.028 92.2656C176.32 85.3942 174.287 78.6177 171.929 71.9361C171.016 68.8127 169.561 65.8743 167.629 63.2553C165.728 60.9378 162.354 59.1894 159.782 60.7446C157.21 62.2998 157.21 66.0506 157.556 69.0797C159.589 86.736 164.925 104.179 170.77 120.92C170.77 120.92 161.917 115.197 157.556 113.662C153.195 112.128 149.424 116.305 152.331 125.261C155.238 134.216 178.678 151.028 178.678 151.028Z" fill="#FFC9B0"/>
<path id="Vector_20" d="M229.544 163.999H181.586C181.353 164.005 181.124 163.931 180.939 163.788C180.754 163.645 180.623 163.443 180.57 163.216L177.764 151.638C174.867 149.524 154.253 134.216 151.336 125.515C149.608 120.27 149.943 115.96 152.24 113.703C152.979 113.009 153.903 112.543 154.901 112.363C155.898 112.182 156.927 112.295 157.862 112.687C160.911 113.703 165.871 116.671 168.86 118.501C163.778 103.813 158.543 86.7159 156.52 69.1816C156.164 66.1322 156.052 61.7817 159.224 59.8503C162.395 57.919 166.126 59.8503 168.372 62.5948C170.618 65.3393 171.716 68.3379 172.845 71.5805C175.152 78.1774 177.175 84.9574 178.862 91.7373C180.682 92.2658 189.616 90.4158 193.093 89.7043C195.126 89.2876 196.193 89.0639 196.681 89.0233C203.979 88.3727 210.007 91.0562 213.209 96.2707C217.387 103.559 218.525 119.904 219.308 130.719C219.633 135.436 219.968 140.305 220.406 141.067C221.28 142.348 224.675 149.595 230.469 162.606C230.546 162.768 230.579 162.947 230.565 163.125C230.55 163.304 230.489 163.475 230.387 163.623C230.286 163.747 230.157 163.847 230.011 163.912C229.864 163.977 229.704 164.007 229.544 163.999ZM182.379 161.966H227.978C222.835 150.449 219.481 143.263 218.728 142.175C217.976 141.087 217.783 137.957 217.285 130.821C216.553 120.188 215.435 104.128 211.501 97.2771C208.736 92.7334 203.369 90.4362 196.894 91.0156C196.508 91.0156 195.136 91.3408 193.55 91.6661C180.926 94.2785 177.53 94.4513 177.043 92.4793C175.355 85.6587 173.322 78.8483 171.015 72.2209C170.134 69.2143 168.738 66.3837 166.888 63.8553C165.221 61.8223 162.375 60.3382 160.352 61.558C158.695 62.5745 158.146 64.9022 158.604 68.9173C160.738 87.3562 166.471 105.358 171.818 120.534C171.889 120.735 171.895 120.952 171.835 121.156C171.776 121.36 171.654 121.541 171.487 121.672C171.32 121.803 171.116 121.879 170.903 121.888C170.691 121.897 170.481 121.84 170.303 121.723C170.222 121.723 161.511 116.051 157.282 114.608C156.7 114.355 156.056 114.277 155.429 114.383C154.803 114.49 154.221 114.776 153.755 115.208C152.058 116.875 151.905 120.514 153.359 124.935C156.174 133.474 179.065 150.093 179.299 150.256C179.494 150.4 179.631 150.609 179.685 150.845L182.379 161.966Z" fill="#121116"/>
<path id="Vector_21" d="M6.9337 121.551C6.9337 121.551 6.67957 100.347 30.9734 85.0693C51.8112 71.977 52.8582 79.6514 51.7604 84.9066C50.4085 91.3816 35.0901 103.539 35.0901 103.539C35.0901 103.539 44.6857 113.409 32.7218 128.951" fill="#FFC9B0"/>
<path id="Vector_22" d="M32.7229 130.008C32.5018 130.005 32.2877 129.93 32.113 129.794C31.8989 129.631 31.7583 129.389 31.7221 129.123C31.6859 128.856 31.757 128.585 31.9199 128.371C43.2129 113.652 34.4509 104.342 34.3594 104.25C34.2607 104.148 34.1845 104.026 34.1357 103.893C34.087 103.759 34.0667 103.617 34.0763 103.475C34.0859 103.334 34.1251 103.195 34.1913 103.07C34.2576 102.944 34.3495 102.834 34.4611 102.746C38.6388 99.4218 49.7082 89.7144 50.7247 84.693C51.05 83.1581 51.3651 80.4339 49.8505 79.387C48.336 78.34 44.1786 77.9436 31.4726 85.9331C19.1936 93.6481 13.4504 102.918 10.7873 109.312C9.09716 113.17 8.12244 117.303 7.91064 121.51C7.91064 121.779 7.80355 122.038 7.61292 122.229C7.4223 122.419 7.16375 122.526 6.89416 122.526C6.62458 122.526 6.36603 122.419 6.1754 122.229C5.98478 122.038 5.87769 121.779 5.87769 121.51C5.87769 120.615 5.87768 99.5437 30.3951 84.1542C40.9868 77.4963 47.7261 75.3617 51.0195 77.6488C52.8695 78.9397 53.459 81.5012 52.717 85.0487C51.4667 91.0053 39.6959 100.987 36.4533 103.63C38.4863 106.466 43.8126 116.072 33.4751 129.55C33.392 129.678 33.2813 129.785 33.1511 129.865C33.0209 129.944 32.8745 129.993 32.7229 130.008Z" fill="#121116"/>
<path id="Vector_23" d="M153.674 61.1107C153.534 61.1103 153.396 61.0812 153.269 61.0252C153.141 60.9692 153.026 60.8876 152.932 60.7854L133.161 39.7647H117.995C117.726 39.7647 117.467 39.6576 117.276 39.4669C117.086 39.2763 116.979 39.0178 116.979 38.7482C116.979 38.4786 117.086 38.2201 117.276 38.0294C117.467 37.8388 117.726 37.7317 117.995 37.7317H133.578C133.716 37.7309 133.854 37.7584 133.981 37.8126C134.109 37.8667 134.224 37.9465 134.32 38.0468L154.395 59.3929C154.491 59.4874 154.566 59.5998 154.618 59.7236C154.669 59.8475 154.696 59.9804 154.696 60.1146C154.696 60.2488 154.669 60.3816 154.618 60.5055C154.566 60.6294 154.491 60.7418 154.395 60.8363C154.2 61.0191 153.941 61.1177 153.674 61.1107Z" fill="#121116"/>
<path id="Vector_24" d="M109.73 39.7646H91.9823C91.7127 39.7646 91.4542 39.6576 91.2635 39.4669C91.0729 39.2763 90.9658 39.0178 90.9658 38.7482C90.9658 38.4786 91.0729 38.22 91.2635 38.0294C91.4542 37.8388 91.7127 37.7317 91.9823 37.7317H109.73C110 37.7317 110.258 37.8388 110.449 38.0294C110.639 38.22 110.746 38.4786 110.746 38.7482C110.746 39.0178 110.639 39.2763 110.449 39.4669C110.258 39.6576 110 39.7646 109.73 39.7646Z" fill="#DFEAEF"/>
<path id="Vector_25" d="M109.731 50.4885H97.4218C97.1522 50.4885 96.8936 50.3814 96.703 50.1908C96.5124 50.0002 96.4053 49.7416 96.4053 49.472C96.4053 49.2025 96.5124 48.9439 96.703 48.7533C96.8936 48.5627 97.1522 48.4556 97.4218 48.4556H109.731C110.001 48.4556 110.259 48.5627 110.45 48.7533C110.641 48.9439 110.748 49.2025 110.748 49.472C110.748 49.7416 110.641 50.0002 110.45 50.1908C110.259 50.3814 110.001 50.4885 109.731 50.4885Z" fill="#DFEAEF"/>
<path id="Vector_26" d="M91.9837 63.469H69.6212C69.3516 63.469 69.093 63.3619 68.9024 63.1713C68.7118 62.9806 68.6047 62.7221 68.6047 62.4525C68.6047 62.1829 68.7118 61.9244 68.9024 61.7338C69.093 61.5431 69.3516 61.436 69.6212 61.436H91.9837C92.2533 61.436 92.5118 61.5431 92.7024 61.7338C92.8931 61.9244 93.0002 62.1829 93.0002 62.4525C93.0002 62.7221 92.8931 62.9806 92.7024 63.1713C92.5118 63.3619 92.2533 63.469 91.9837 63.469Z" fill="#DFEAEF"/>
<path id="Vector_27" d="M107.78 63.469H97.4218C97.1522 63.469 96.8936 63.3619 96.703 63.1713C96.5124 62.9806 96.4053 62.7221 96.4053 62.4525C96.4053 62.1829 96.5124 61.9244 96.703 61.7338C96.8936 61.5431 97.1522 61.436 97.4218 61.436H107.78C108.049 61.436 108.308 61.5431 108.498 61.7338C108.689 61.9244 108.796 62.1829 108.796 62.4525C108.796 62.7221 108.689 62.9806 108.498 63.1713C108.308 63.3619 108.049 63.469 107.78 63.469Z" fill="#DFEAEF"/>
<path id="Vector_28" d="M99.9015 76.3884H69.6613C69.3917 76.3884 69.1331 76.2813 68.9425 76.0907C68.7519 75.9001 68.6448 75.6415 68.6448 75.3719C68.6448 75.1024 68.7519 74.8438 68.9425 74.6532C69.1331 74.4626 69.3917 74.3555 69.6613 74.3555H99.9015C100.171 74.3555 100.43 74.4626 100.62 74.6532C100.811 74.8438 100.918 75.1024 100.918 75.3719C100.918 75.6415 100.811 75.9001 100.62 76.0907C100.43 76.2813 100.171 76.3884 99.9015 76.3884Z" fill="#DFEAEF"/>
<path id="Vector_29" d="M77.7523 54.7171C75.7781 54.7171 73.8482 54.1316 72.2067 53.0348C70.5652 51.938 69.2858 50.3791 68.5303 48.5551C67.7748 46.7312 67.5771 44.7242 67.9622 42.7879C68.3474 40.8516 69.2981 39.073 70.6941 37.677C72.09 36.281 73.8686 35.3304 75.8049 34.9452C77.7412 34.5601 79.7482 34.7577 81.5721 35.5132C83.3961 36.2687 84.955 37.5481 86.0518 39.1896C87.1487 40.8311 87.7341 42.761 87.7341 44.7352C87.7314 47.3818 86.6789 49.9191 84.8075 51.7905C82.9361 53.6619 80.3988 54.7144 77.7523 54.7171ZM77.7523 36.7965C76.1797 36.7965 74.6425 37.263 73.3351 38.1369C72.0277 39.0108 71.0088 40.2528 70.4075 41.7059C69.8062 43.1589 69.6494 44.7577 69.9569 46.2999C70.2644 47.8421 71.0225 49.2584 72.1352 50.3697C73.2479 51.481 74.6652 52.2372 76.2078 52.5428C77.7504 52.8483 79.3489 52.6895 80.8012 52.0863C82.2535 51.4831 83.4942 50.4627 84.3665 49.1542C85.2387 47.8456 85.7031 46.3078 85.7011 44.7352C85.6984 42.6288 84.8598 40.6096 83.3694 39.1211C81.879 37.6326 79.8587 36.7965 77.7523 36.7965Z" fill="#DFEAEF"/>
<path id="Vector_30" d="M77.7523 54.717C76.1724 54.7197 74.6144 54.3473 73.2065 53.6304C71.7986 52.9135 70.581 51.8727 69.6538 50.5935C68.7265 49.3144 68.1162 47.8334 67.8729 46.2723C67.6296 44.7112 67.7603 43.1147 68.2543 41.6141C68.7484 40.1134 69.5915 38.7514 70.7145 37.6401C71.8375 36.5288 73.2083 35.7 74.714 35.2217C76.2198 34.7435 77.8176 34.6295 79.376 34.8891C80.9344 35.1488 82.409 35.7746 83.6784 36.7152C83.8959 36.873 84.0421 37.1106 84.0849 37.3759C84.1227 37.6423 84.0532 37.9128 83.8918 38.1281L79.7649 43.7187H86.7176C86.9872 43.7187 87.2457 43.8258 87.4364 44.0165C87.627 44.2071 87.7341 44.4656 87.7341 44.7352C87.7341 47.3826 86.6824 49.9215 84.8105 51.7934C82.9385 53.6654 80.3996 54.717 77.7523 54.717ZM77.7523 36.7965C76.2232 36.7971 74.7268 37.2387 73.4423 38.0683C72.1579 38.898 71.14 40.0805 70.5108 41.474C69.8815 42.8676 69.6675 44.4131 69.8944 45.9252C70.1214 47.4374 70.7797 48.8519 71.7903 49.9994C72.801 51.1468 74.1212 51.9784 75.5926 52.3944C77.064 52.8104 78.6241 52.7932 80.086 52.3449C81.5478 51.8965 82.8494 51.0361 83.8345 49.8666C84.8196 48.6972 85.4466 47.2685 85.6401 45.7517H77.7523C77.5646 45.7511 77.3807 45.6986 77.221 45.5999C77.0613 45.5012 76.9321 45.3603 76.8476 45.1926C76.7719 45.0302 76.7405 44.8506 76.7565 44.6721C76.7726 44.4936 76.8356 44.3225 76.9391 44.1762L81.6149 37.8333C80.4357 37.1667 79.1068 36.81 77.7523 36.7965Z" fill="#DFEAEF"/>
<path id="Vector_31" d="M198.022 25.1274H151.325V28.9392H198.022V25.1274Z" fill="#7557FF"/>
<path id="Vector_32" d="M198.022 29.9656H151.325C151.055 29.9656 150.797 29.8585 150.606 29.6679C150.416 29.4773 150.308 29.2187 150.308 28.9491V25.1272C150.308 24.8576 150.416 24.5991 150.606 24.4084C150.797 24.2178 151.055 24.1107 151.325 24.1107H198.022C198.292 24.1107 198.55 24.2178 198.741 24.4084C198.931 24.5991 199.038 24.8576 199.038 25.1272V28.9491C199.038 29.2187 198.931 29.4773 198.741 29.6679C198.55 29.8585 198.292 29.9656 198.022 29.9656ZM152.341 27.9327H197.005V26.1437H152.341V27.9327Z" fill="#121116"/>
</g>
</svg>
