<svg width="570" height="466" viewBox="0 0 570 466" fill="none" xmlns="http://www.w3.org/2000/svg">
<path d="M569.181 406.665H5.26396C5.11549 406.707 4.95921 406.715 4.80742 406.686C4.65563 406.658 4.51247 406.595 4.3892 406.502C4.26594 406.409 4.16594 406.289 4.09708 406.151C4.02822 406.012 3.99238 405.86 3.99238 405.706C3.99238 405.551 4.02822 405.399 4.09708 405.261C4.16594 405.123 4.26594 405.002 4.3892 404.909C4.51247 404.816 4.65563 404.753 4.80742 404.725C4.95921 404.697 5.11549 404.704 5.26396 404.747H569.277C569.485 404.806 569.669 404.932 569.799 405.105C569.93 405.278 570 405.489 570 405.706C570 405.923 569.93 406.133 569.799 406.306C569.669 406.48 569.485 406.605 569.277 406.665H569.181Z" fill="#D1D3D4"/>
<path d="M536.318 14.8098H38.126V305.794H536.318V14.8098Z" fill="white"/>
<path d="M536.338 306.792H38.1265C37.9955 306.792 37.8658 306.767 37.7447 306.716C37.6237 306.666 37.5137 306.593 37.4211 306.5C37.3285 306.408 37.255 306.298 37.2048 306.177C37.1547 306.056 37.1289 305.926 37.1289 305.795V14.8103C37.1289 14.5457 37.234 14.292 37.4211 14.1049C37.6082 13.9178 37.8619 13.8127 38.1265 13.8127H536.338C536.468 13.8127 536.597 13.8386 536.717 13.889C536.837 13.9394 536.945 14.0132 537.036 14.1061C537.128 14.1989 537.199 14.3091 537.247 14.43C537.295 14.5509 537.319 14.6802 537.316 14.8103V305.795C537.316 306.056 537.214 306.307 537.031 306.494C536.848 306.68 536.599 306.787 536.338 306.792ZM39.1241 304.874H535.321V15.8079H39.1049L39.1241 304.874Z" fill="#D1D3D4"/>
<path d="M536.318 0.997559H38.126V14.8101H536.318V0.997559Z" fill="white"/>
<path d="M536.338 15.8077H38.1265C37.8619 15.8077 37.6082 15.7026 37.4211 15.5155C37.234 15.3284 37.1289 15.0747 37.1289 14.8101V0.997574C37.1289 0.733001 37.234 0.479259 37.4211 0.292177C37.6082 0.105096 37.8619 1.80861e-08 38.1265 1.80861e-08H536.338C536.468 -2.49967e-05 536.597 0.0258986 536.717 0.0762625C536.837 0.126626 536.945 0.200418 537.036 0.293312C537.128 0.386205 537.199 0.496338 537.247 0.617265C537.295 0.738191 537.319 0.867485 537.316 0.997574V14.8101C537.316 15.0714 537.214 15.3223 537.031 15.5088C536.848 15.6954 536.599 15.8027 536.338 15.8077ZM39.1241 13.8893H535.321V1.97596H39.1049L39.1241 13.8893Z" fill="#D1D3D4"/>
<path d="M303.48 197.635H276.392V284.577H303.48V197.635Z" fill="white"/>
<path d="M303.48 285.556H276.392C276.262 285.558 276.133 285.535 276.012 285.487C275.891 285.439 275.781 285.367 275.688 285.276C275.595 285.185 275.521 285.076 275.471 284.956C275.42 284.836 275.395 284.707 275.395 284.577V197.635C275.395 197.37 275.5 197.116 275.687 196.929C275.874 196.742 276.128 196.637 276.392 196.637H303.48C303.745 196.637 303.998 196.742 304.185 196.929C304.373 197.116 304.478 197.37 304.478 197.635V284.577C304.478 284.707 304.452 284.836 304.401 284.956C304.351 285.076 304.277 285.185 304.184 285.276C304.091 285.367 303.981 285.439 303.86 285.487C303.739 285.535 303.61 285.558 303.48 285.556ZM277.39 283.637H302.502V198.613H277.351L277.39 283.637Z" fill="#D1D3D4"/>
<path d="M173.029 305.795C173.029 305.795 178.957 272.798 201.249 263.743C223.541 254.688 235.646 273.335 235.646 273.335C235.646 273.335 241.401 242.641 276.815 242.641C312.229 242.641 320.401 266.774 320.401 266.774C320.401 266.774 327.672 252.194 343.653 253.192C359.633 254.189 362.069 274.294 362.069 274.294C366.721 272.232 371.753 271.167 376.841 271.167C381.929 271.167 386.961 272.232 391.613 274.294C406.96 281.431 413.425 305.891 413.425 305.891L173.029 305.795Z" fill="white"/>
<path d="M413.424 306.792H173.028C172.882 306.791 172.737 306.757 172.605 306.694C172.472 306.631 172.355 306.54 172.261 306.428C172.087 306.198 172.011 305.908 172.05 305.622C172.299 304.241 178.342 271.973 200.826 262.822C206.653 260.193 213.189 259.578 219.403 261.075C225.618 262.573 231.157 266.096 235.146 271.091C237.238 264.146 246.369 241.624 276.776 241.624C306.646 241.624 317.676 258.89 320.497 264.645C323.086 260.712 330.626 251.389 343.69 252.233C357.848 253.115 361.896 268.232 362.874 272.817C367.524 270.924 372.509 269.995 377.529 270.087C382.548 270.18 387.496 271.291 392.072 273.355C407.669 280.587 414.134 304.567 414.403 305.584C414.442 305.728 414.446 305.88 414.417 306.026C414.387 306.173 414.323 306.31 414.23 306.428C414.136 306.55 414.013 306.647 413.873 306.711C413.732 306.774 413.578 306.802 413.424 306.792ZM174.237 304.874H412.12C410.566 299.867 404.024 281.124 391.228 275.177C386.693 273.187 381.793 272.16 376.84 272.16C371.887 272.16 366.988 273.187 362.452 275.177C362.314 275.253 362.159 275.292 362.001 275.292C361.844 275.292 361.689 275.253 361.551 275.177C361.411 275.102 361.291 274.996 361.201 274.865C361.111 274.735 361.053 274.586 361.033 274.429C361.033 274.237 358.5 255.245 343.537 254.266C328.573 253.288 321.302 267.158 321.245 267.292C321.153 267.464 321.014 267.607 320.844 267.702C320.674 267.797 320.48 267.841 320.286 267.829C320.093 267.82 319.907 267.753 319.753 267.637C319.599 267.52 319.484 267.36 319.422 267.177C319.326 266.928 310.943 243.696 276.757 243.696C262.445 243.696 251.338 248.703 243.741 258.583C240.328 263.023 237.877 268.126 236.547 273.566C236.512 273.758 236.421 273.937 236.284 274.077C236.147 274.217 235.971 274.313 235.78 274.352C235.584 274.393 235.381 274.375 235.197 274.3C235.012 274.225 234.854 274.096 234.744 273.93C231.165 268.752 225.882 264.996 219.816 263.316C213.75 261.637 207.287 262.141 201.555 264.741C182.448 272.453 175.561 298.908 174.237 304.797V304.874Z" fill="#D1D3D4"/>
<path d="M304.287 211.428H274.878L271.348 197.309H307.817L304.287 211.428Z" fill="white"/>
<path d="M304.21 212.426H274.877C274.656 212.427 274.441 212.355 274.267 212.219C274.093 212.083 273.97 211.892 273.918 211.677L270.388 197.558C270.349 197.41 270.344 197.256 270.374 197.106C270.404 196.956 270.468 196.816 270.561 196.695C270.657 196.58 270.777 196.487 270.913 196.424C271.049 196.361 271.197 196.329 271.347 196.33H307.797C307.947 196.329 308.095 196.361 308.231 196.424C308.367 196.487 308.487 196.58 308.583 196.695C308.673 196.818 308.734 196.958 308.764 197.107C308.794 197.256 308.791 197.41 308.756 197.558L305.226 211.677C305.172 211.902 305.041 212.1 304.855 212.237C304.669 212.374 304.44 212.441 304.21 212.426ZM275.568 210.507H303.442L306.473 198.364H272.613L275.568 210.507Z" fill="#D1D3D4"/>
<path d="M256.614 153.204C256.614 153.204 241.267 162.796 235.838 178.892C230.409 194.987 242.706 225.989 242.706 225.989L270.734 195.601L256.614 153.204Z" fill="white"/>
<path d="M242.705 226.987H242.513C242.348 226.957 242.194 226.884 242.067 226.777C241.939 226.669 241.841 226.53 241.784 226.373C241.266 225.087 229.506 194.815 234.916 178.604C240.326 162.394 255.443 152.782 256.018 152.38C256.149 152.314 256.294 152.28 256.44 152.28C256.587 152.28 256.731 152.314 256.862 152.38C257.005 152.428 257.135 152.508 257.241 152.615C257.348 152.721 257.428 152.851 257.476 152.994L271.596 195.275C271.654 195.445 271.664 195.627 271.627 195.803C271.59 195.979 271.506 196.141 271.385 196.273L243.338 226.66C243.259 226.754 243.163 226.831 243.054 226.887C242.945 226.943 242.826 226.977 242.705 226.987ZM256.133 154.758C252.604 157.252 241.189 166.096 236.815 179.218C232.307 192.781 240.786 217.797 243.088 224.147L269.658 195.371L256.133 154.758Z" fill="#D1D3D4"/>
<path d="M323.259 153.204C323.259 153.204 338.606 162.796 344.036 178.892C349.465 194.987 337.168 225.989 337.168 225.989L309.14 195.601L323.259 153.204Z" fill="white"/>
<path d="M337.187 226.987C337.049 226.989 336.912 226.961 336.786 226.905C336.66 226.848 336.548 226.765 336.458 226.66L308.411 196.273C308.289 196.141 308.205 195.979 308.168 195.803C308.131 195.627 308.142 195.445 308.2 195.275L322.319 152.898C322.367 152.755 322.448 152.625 322.554 152.519C322.661 152.412 322.79 152.332 322.933 152.284C323.064 152.218 323.209 152.184 323.355 152.184C323.502 152.184 323.646 152.218 323.777 152.284C324.429 152.687 339.566 162.298 344.976 178.508C350.386 194.719 338.606 224.991 338.108 226.277C338.044 226.433 337.942 226.571 337.811 226.678C337.681 226.786 337.525 226.859 337.359 226.891L337.187 226.987ZM310.329 195.352L336.899 224.128C339.201 217.778 347.681 192.743 343.172 179.199C338.798 166.077 327.384 157.233 323.873 154.739L310.329 195.352Z" fill="#D1D3D4"/>
<path d="M314.78 202.661C322.454 184.321 327.25 157.732 327.25 128.169C327.231 83.3739 302.541 59.9885 293.141 52.6794C292.126 51.8812 290.873 51.4473 289.582 51.4473C288.291 51.4473 287.038 51.8812 286.023 52.6794C276.623 59.9118 251.895 83.2588 251.895 128.092C251.895 157.655 256.729 184.244 264.384 202.584C264.384 202.584 272.057 206.421 289.572 206.421C307.087 206.421 314.78 202.661 314.78 202.661Z" fill="white"/>
<path d="M289.573 207.495C272 207.495 264.269 203.658 263.943 203.543C263.734 203.439 263.57 203.261 263.483 203.044C255.483 183.86 250.917 156.638 250.917 128.226C250.917 83.489 275.051 60.0269 285.448 52.0271C286.644 51.1046 288.111 50.6042 289.621 50.6042C291.131 50.6042 292.598 51.1046 293.793 52.0271C304.153 60.0269 328.325 83.4698 328.325 128.226C328.325 156.715 323.74 183.995 315.759 203.044C315.665 203.257 315.503 203.432 315.299 203.543C314.896 203.697 307.165 207.495 289.573 207.495ZM265.152 201.912C266.763 202.603 274.475 205.519 289.573 205.519C304.671 205.519 312.402 202.603 314.014 201.912C321.802 183.074 326.272 156.216 326.272 128.169C326.272 84.2947 302.676 61.3506 292.546 53.5234C291.692 52.8807 290.652 52.5331 289.583 52.5331C288.513 52.5331 287.473 52.8807 286.619 53.5234C276.489 61.3697 252.893 84.218 252.893 128.169C252.893 156.274 257.363 183.131 265.152 201.912Z" fill="#D1D3D4"/>
<path d="M286.022 52.6794C274.5 61.8602 265.486 73.8046 259.816 87.4026H319.287C313.634 73.8109 304.64 61.8672 293.139 52.6794C292.125 51.8812 290.871 51.4473 289.581 51.4473C288.29 51.4473 287.036 51.8812 286.022 52.6794Z" fill="white"/>
<path d="M319.346 88.4773H259.875C259.712 88.4785 259.55 88.4387 259.406 88.3617C259.262 88.2846 259.14 88.1727 259.05 88.0361C258.959 87.8988 258.903 87.7416 258.886 87.5779C258.87 87.4141 258.893 87.2488 258.954 87.0961C264.661 73.3389 273.763 61.2535 285.409 51.9699C286.604 51.0475 288.072 50.5471 289.582 50.5471C291.091 50.5471 292.559 51.0475 293.754 51.9699C305.422 61.2465 314.544 73.3325 320.266 87.0961C320.328 87.2488 320.351 87.4141 320.334 87.5779C320.318 87.7416 320.261 87.8988 320.171 88.0361C320.08 88.1714 319.957 88.2825 319.813 88.3594C319.669 88.4363 319.509 88.4768 319.346 88.4773ZM261.314 86.5589H317.83C312.232 73.6601 303.549 62.3352 292.545 53.5814C291.691 52.9386 290.651 52.591 289.582 52.591C288.512 52.591 287.472 52.9386 286.618 53.5814C275.62 62.3223 266.932 73.6253 261.314 86.5013V86.5589Z" fill="#D1D3D4"/>
<path d="M291.05 143.785C303.743 143.785 314.032 133.495 314.032 120.802C314.032 108.109 303.743 97.8198 291.05 97.8198C278.357 97.8198 268.067 108.109 268.067 120.802C268.067 133.495 278.357 143.785 291.05 143.785Z" fill="white"/>
<path d="M291.048 144.763C286.306 144.763 281.669 143.357 277.726 140.722C273.782 138.087 270.709 134.341 268.894 129.96C267.079 125.578 266.604 120.756 267.529 116.105C268.454 111.453 270.738 107.18 274.092 103.826C277.446 100.473 281.719 98.1888 286.37 97.2635C291.022 96.3382 295.843 96.8131 300.225 98.6281C304.607 100.443 308.352 103.517 310.987 107.46C313.622 111.404 315.029 116.04 315.029 120.783C315.024 127.141 312.495 133.238 307.999 137.734C303.503 142.23 297.407 144.758 291.048 144.763ZM291.048 98.7212C286.696 98.7212 282.441 100.012 278.822 102.431C275.203 104.85 272.382 108.287 270.717 112.309C269.053 116.331 268.618 120.756 269.469 125.025C270.319 129.294 272.417 133.215 275.496 136.291C278.575 139.368 282.498 141.462 286.767 142.309C291.037 143.156 295.462 142.717 299.482 141.049C303.503 139.381 306.938 136.557 309.354 132.936C311.769 129.315 313.056 125.059 313.053 120.706C313.022 114.89 310.691 109.323 306.567 105.221C302.444 101.119 296.864 98.817 291.048 98.8171V98.7212Z" fill="#D1D3D4"/>
<path d="M291.049 134.979C298.879 134.979 305.226 128.632 305.226 120.802C305.226 112.972 298.879 106.625 291.049 106.625C283.219 106.625 276.872 112.972 276.872 120.802C276.872 128.632 283.219 134.979 291.049 134.979Z" fill="white"/>
<path d="M291.05 135.977C288.048 135.977 285.114 135.087 282.619 133.42C280.124 131.752 278.179 129.382 277.03 126.61C275.881 123.837 275.581 120.786 276.166 117.842C276.752 114.899 278.197 112.195 280.319 110.072C282.442 107.95 285.146 106.505 288.089 105.92C291.033 105.334 294.084 105.634 296.857 106.783C299.629 107.932 301.999 109.877 303.667 112.372C305.334 114.867 306.224 117.801 306.224 120.803C306.224 124.827 304.625 128.687 301.78 131.533C298.934 134.378 295.074 135.977 291.05 135.977ZM291.05 107.623C288.438 107.623 285.886 108.398 283.715 109.849C281.544 111.3 279.852 113.362 278.854 115.775C277.855 118.188 277.595 120.843 278.106 123.404C278.617 125.965 279.876 128.316 281.723 130.161C283.571 132.006 285.925 133.262 288.486 133.769C291.048 134.276 293.702 134.012 296.114 133.01C298.525 132.008 300.585 130.314 302.033 128.141C303.481 125.968 304.252 123.414 304.248 120.803C304.243 117.305 302.85 113.953 300.376 111.482C297.901 109.011 294.547 107.623 291.05 107.623Z" fill="#D1D3D4"/>
<path d="M302.291 120.457C302.059 120.456 301.836 120.372 301.66 120.221C301.485 120.07 301.368 119.861 301.332 119.632C301.178 117.064 300.019 114.659 298.105 112.939C296.191 111.219 293.677 110.322 291.107 110.443C290.981 110.452 290.854 110.436 290.735 110.396C290.615 110.356 290.504 110.292 290.409 110.21C290.216 110.042 290.098 109.805 290.08 109.551C290.063 109.297 290.147 109.046 290.314 108.853C290.481 108.661 290.718 108.543 290.972 108.525C294.018 108.405 296.993 109.466 299.276 111.485C301.56 113.504 302.977 116.326 303.231 119.364C303.264 119.613 303.198 119.865 303.048 120.065C302.897 120.266 302.674 120.4 302.425 120.438L302.291 120.457Z" fill="#D1D3D4"/>
<path d="M286.06 111.805C285.913 111.807 285.767 111.776 285.634 111.712C285.501 111.649 285.384 111.556 285.293 111.44C285.143 111.238 285.077 110.985 285.11 110.734C285.142 110.484 285.269 110.256 285.466 110.098C286.291 109.487 287.252 109.086 288.267 108.927C288.393 108.911 288.521 108.92 288.643 108.954C288.766 108.988 288.88 109.046 288.98 109.125C289.08 109.203 289.164 109.301 289.226 109.412C289.287 109.523 289.327 109.645 289.341 109.771C289.369 110.022 289.298 110.274 289.144 110.474C288.991 110.675 288.766 110.808 288.516 110.846C287.825 110.946 287.167 111.209 286.598 111.613C286.444 111.734 286.255 111.801 286.06 111.805Z" fill="#D1D3D4"/>
<path d="M311.999 196.829C311.898 196.849 311.793 196.849 311.692 196.829C311.451 196.75 311.25 196.578 311.135 196.351C311.02 196.125 311 195.862 311.078 195.62C315.044 183.035 318.247 170.223 320.67 157.252C320.691 157.127 320.736 157.009 320.804 156.902C320.872 156.796 320.96 156.704 321.064 156.632C321.168 156.561 321.285 156.511 321.408 156.485C321.532 156.46 321.659 156.46 321.783 156.485C322.032 156.531 322.252 156.674 322.396 156.883C322.54 157.091 322.595 157.348 322.55 157.597C320.134 170.67 316.931 183.585 312.958 196.272C312.876 196.453 312.739 196.604 312.567 196.703C312.395 196.803 312.197 196.847 311.999 196.829Z" fill="white"/>
<path d="M293.217 232.531C292.963 232.531 292.719 232.43 292.539 232.25C292.359 232.07 292.258 231.826 292.258 231.571V213.366C292.258 213.111 292.359 212.867 292.539 212.687C292.719 212.508 292.963 212.406 293.217 212.406C293.471 212.406 293.715 212.508 293.895 212.687C294.075 212.867 294.176 213.111 294.176 213.366V231.571C294.176 231.826 294.075 232.07 293.895 232.25C293.715 232.43 293.471 232.531 293.217 232.531Z" fill="#D1D3D4"/>
<path d="M283.394 242.065C283.141 242.06 282.9 241.958 282.721 241.779C282.542 241.6 282.44 241.359 282.435 241.106V222.056C282.44 221.803 282.542 221.562 282.721 221.383C282.9 221.204 283.141 221.102 283.394 221.097C283.648 221.097 283.892 221.198 284.072 221.378C284.252 221.558 284.353 221.802 284.353 222.056V241.106C284.353 241.36 284.252 241.604 284.072 241.784C283.892 241.964 283.648 242.065 283.394 242.065Z" fill="#D1D3D4"/>
<path d="M224.807 288.989H224.634C224.509 288.966 224.39 288.919 224.283 288.849C224.177 288.779 224.085 288.689 224.014 288.584C223.942 288.479 223.893 288.36 223.867 288.235C223.842 288.111 223.842 287.982 223.867 287.857C223.867 287.474 225.786 278.054 234.131 273.699C240.174 270.534 247.905 270.956 257.152 274.966C257.28 275.006 257.399 275.073 257.5 275.163C257.601 275.252 257.681 275.362 257.737 275.484C257.793 275.607 257.822 275.74 257.823 275.875C257.824 276.01 257.796 276.143 257.742 276.267C257.688 276.39 257.608 276.501 257.508 276.591C257.408 276.682 257.29 276.75 257.162 276.792C257.034 276.834 256.899 276.849 256.765 276.835C256.631 276.821 256.501 276.779 256.384 276.711C247.732 272.875 240.557 272.51 235.051 275.388C227.608 279.224 225.786 288.145 225.766 288.241C225.721 288.459 225.6 288.654 225.424 288.791C225.248 288.928 225.03 288.998 224.807 288.989Z" fill="#D1D3D4"/>
<path d="M333.772 277.575C333.638 277.573 333.505 277.544 333.382 277.487C333.26 277.431 333.151 277.35 333.062 277.249C319.422 262.17 309.101 268.309 309.005 268.366C308.899 268.436 308.78 268.483 308.655 268.506C308.53 268.528 308.402 268.525 308.278 268.496C308.154 268.467 308.038 268.414 307.935 268.339C307.833 268.264 307.746 268.169 307.682 268.06C307.553 267.84 307.515 267.579 307.576 267.332C307.637 267.084 307.792 266.871 308.008 266.736C308.468 266.448 319.787 259.714 334.482 275.963C334.572 276.053 334.643 276.159 334.692 276.276C334.741 276.392 334.766 276.518 334.766 276.644C334.766 276.771 334.741 276.896 334.692 277.013C334.643 277.13 334.572 277.236 334.482 277.325C334.284 277.493 334.031 277.582 333.772 277.575Z" fill="#D1D3D4"/>
<path d="M399.746 84.698H345.378C345.124 84.698 344.88 84.5969 344.7 84.417C344.52 84.2371 344.419 83.9931 344.419 83.7387C344.419 83.4843 344.52 83.2404 344.7 83.0605C344.88 82.8806 345.124 82.7795 345.378 82.7795H399.746C400 82.7795 400.244 82.8806 400.424 83.0605C400.604 83.2404 400.705 83.4843 400.705 83.7387C400.705 83.9931 400.604 84.2371 400.424 84.417C400.244 84.5969 400 84.698 399.746 84.698Z" fill="#D1D3D4"/>
<path d="M399.746 97.0332H345.378C345.124 97.0332 344.88 96.9321 344.7 96.7522C344.52 96.5723 344.419 96.3283 344.419 96.074C344.424 95.8211 344.527 95.58 344.705 95.4011C344.884 95.2223 345.125 95.1197 345.378 95.1147H399.746C400 95.1147 400.244 95.2158 400.424 95.3957C400.604 95.5756 400.705 95.8196 400.705 96.074C400.705 96.3283 400.604 96.5723 400.424 96.7522C400.244 96.9321 400 97.0332 399.746 97.0332Z" fill="#D1D3D4"/>
<path d="M399.746 109.388H345.378C345.125 109.383 344.884 109.28 344.705 109.102C344.527 108.923 344.424 108.682 344.419 108.429C344.419 108.174 344.52 107.93 344.7 107.75C344.88 107.571 345.124 107.469 345.378 107.469H399.746C400 107.469 400.244 107.571 400.424 107.75C400.604 107.93 400.705 108.174 400.705 108.429C400.705 108.683 400.604 108.927 400.424 109.107C400.244 109.287 400 109.388 399.746 109.388Z" fill="#D1D3D4"/>
<path d="M380.466 121.742H345.378C345.124 121.742 344.88 121.641 344.7 121.461C344.52 121.282 344.419 121.038 344.419 120.783C344.419 120.529 344.52 120.285 344.7 120.105C344.88 119.925 345.124 119.824 345.378 119.824H380.466C380.72 119.824 380.964 119.925 381.144 120.105C381.324 120.285 381.425 120.529 381.425 120.783C381.425 121.038 381.324 121.282 381.144 121.461C380.964 121.641 380.72 121.742 380.466 121.742Z" fill="#D1D3D4"/>
<path d="M298.819 239.61C298.566 239.605 298.325 239.502 298.146 239.323C297.967 239.145 297.864 238.903 297.859 238.651V230.728C297.859 230.473 297.96 230.229 298.14 230.049C298.32 229.869 298.564 229.768 298.819 229.768C299.073 229.768 299.317 229.869 299.497 230.049C299.677 230.229 299.778 230.473 299.778 230.728V238.651C299.778 238.905 299.677 239.149 299.497 239.329C299.317 239.509 299.073 239.61 298.819 239.61Z" fill="#D1D3D4"/>
<path d="M237.947 103.211H160.462C160.208 103.211 159.964 103.109 159.784 102.93C159.604 102.75 159.503 102.506 159.503 102.251V56.8042C159.508 56.5513 159.61 56.3102 159.789 56.1313C159.968 55.9525 160.209 55.8499 160.462 55.845C160.717 55.845 160.96 55.946 161.14 56.1259C161.32 56.3058 161.421 56.5498 161.421 56.8042V101.292H237.947C238.201 101.292 238.445 101.393 238.625 101.573C238.805 101.753 238.906 101.997 238.906 102.251C238.906 102.506 238.805 102.75 238.625 102.93C238.445 103.109 238.201 103.211 237.947 103.211Z" fill="#D1D3D4"/>
<path d="M168.885 96.208C168.797 96.2279 168.705 96.2279 168.616 96.208C168.372 96.1368 168.166 95.9715 168.044 95.7484C167.922 95.5253 167.893 95.2628 167.964 95.0186C168.175 94.3472 173.105 78.5395 184.75 75.47C191.254 73.7434 192.999 76.9856 194.688 80.0934C196.376 83.2012 197.738 85.7335 203.014 85.9637H203.359C214.294 85.9637 222.888 61.7342 222.965 61.4848C223.049 61.2431 223.225 61.0447 223.456 60.9332C223.57 60.8779 223.694 60.8457 223.82 60.8383C223.946 60.8309 224.073 60.8485 224.193 60.8901C224.312 60.9316 224.423 60.9964 224.517 61.0806C224.612 61.1648 224.689 61.2668 224.744 61.3808C224.8 61.4948 224.832 61.6186 224.839 61.745C224.847 61.8715 224.829 61.9982 224.787 62.1179C224.404 63.1922 215.637 87.8821 203.34 87.8821H202.937C196.568 87.5944 194.592 84.0453 192.999 81.0142C191.407 77.9831 190.275 75.988 185.326 77.3117C174.698 80.1126 169.978 95.4215 169.883 95.575C169.811 95.7767 169.674 95.9486 169.493 96.0633C169.312 96.178 169.098 96.229 168.885 96.208Z" fill="#D1D3D4"/>
<path d="M367.651 243.964C364.327 243.964 361.078 242.978 358.314 241.132C355.551 239.285 353.397 236.661 352.125 233.59C350.853 230.519 350.52 227.14 351.169 223.88C351.817 220.62 353.418 217.626 355.768 215.276C358.118 212.925 361.113 211.325 364.372 210.676C367.632 210.028 371.011 210.361 374.082 211.633C377.153 212.905 379.777 215.059 381.624 217.822C383.471 220.586 384.456 223.835 384.456 227.159C384.451 231.614 382.679 235.886 379.529 239.036C376.378 242.187 372.106 243.959 367.651 243.964ZM367.651 212.272C364.707 212.272 361.828 213.145 359.38 214.781C356.932 216.417 355.024 218.742 353.897 221.462C352.771 224.182 352.476 227.175 353.05 230.063C353.625 232.951 355.042 235.603 357.124 237.685C359.206 239.767 361.859 241.185 364.747 241.76C367.634 242.334 370.628 242.039 373.348 240.912C376.068 239.786 378.393 237.878 380.029 235.43C381.665 232.981 382.538 230.103 382.538 227.159C382.533 223.212 380.963 219.429 378.172 216.638C375.381 213.847 371.598 212.277 367.651 212.272Z" fill="#D1D3D4"/>
<path d="M380.715 237.077C380.523 237.076 380.335 237.016 380.178 236.904L367.114 227.945C366.982 227.861 366.875 227.744 366.801 227.607C366.727 227.469 366.689 227.315 366.691 227.159V211.313C366.696 211.06 366.799 210.819 366.978 210.64C367.157 210.461 367.398 210.358 367.651 210.354C367.905 210.354 368.149 210.455 368.329 210.634C368.509 210.814 368.61 211.058 368.61 211.313V226.66L381.271 235.331C381.439 235.448 381.565 235.616 381.631 235.81C381.697 236.004 381.699 236.214 381.636 236.409C381.574 236.604 381.451 236.774 381.285 236.894C381.12 237.015 380.92 237.079 380.715 237.077Z" fill="#D1D3D4"/>
<path d="M352.803 231.495C352.585 231.496 352.372 231.422 352.201 231.286C352.03 231.15 351.911 230.96 351.863 230.747C351.835 230.624 351.831 230.498 351.853 230.374C351.875 230.251 351.921 230.133 351.989 230.027C352.057 229.922 352.145 229.831 352.249 229.76C352.352 229.689 352.469 229.64 352.592 229.615L367.44 226.219C367.566 226.192 367.697 226.189 367.824 226.211C367.951 226.234 368.072 226.281 368.181 226.351C368.289 226.42 368.383 226.511 368.457 226.616C368.531 226.722 368.583 226.841 368.611 226.967C368.638 227.093 368.641 227.224 368.618 227.351C368.596 227.478 368.548 227.599 368.479 227.707C368.41 227.816 368.319 227.91 368.214 227.984C368.108 228.058 367.988 228.11 367.862 228.138L353.014 231.514L352.803 231.495Z" fill="#D1D3D4"/>
<path d="M217.305 229.806H194.629C194.375 229.806 194.131 229.705 193.951 229.525C193.771 229.346 193.67 229.102 193.67 228.847C193.67 228.593 193.771 228.349 193.951 228.169C194.131 227.989 194.375 227.888 194.629 227.888H217.305C217.559 227.888 217.803 227.989 217.983 228.169C218.163 228.349 218.264 228.593 218.264 228.847C218.264 229.102 218.163 229.346 217.983 229.525C217.803 229.705 217.559 229.806 217.305 229.806Z" fill="#D1D3D4"/>
<path d="M209.036 239.61H194.629C194.375 239.61 194.131 239.508 193.951 239.329C193.771 239.149 193.67 238.905 193.67 238.65C193.67 238.396 193.771 238.152 193.951 237.972C194.131 237.792 194.375 237.691 194.629 237.691H209.036C209.291 237.691 209.535 237.792 209.715 237.972C209.895 238.152 209.996 238.396 209.996 238.65C209.991 238.903 209.888 239.144 209.709 239.323C209.53 239.502 209.289 239.605 209.036 239.61Z" fill="#D1D3D4"/>
<path d="M439.035 102.366C437.849 101.494 436.912 100.327 436.316 98.9813C435.72 97.6352 435.487 96.1567 435.639 94.6926C434.142 95.02 432.578 94.8439 431.19 94.1918C429.803 93.5397 428.669 92.448 427.966 91.086C426.63 88.2858 426.259 85.122 426.91 82.0887C424.575 80.9576 422.624 79.165 421.299 76.9338C419.974 74.7026 419.334 72.1312 419.459 69.5393C419.583 66.9474 420.467 64.4493 422 62.3556C423.533 60.2619 425.647 58.6649 428.081 57.7632C427.667 57.5762 427.304 57.2919 427.023 56.9345C426.743 56.5771 426.553 56.1572 426.469 55.7105C424.743 49.9553 428.157 43.5094 433.414 40.651C436.108 39.3348 439.051 38.6079 442.048 38.5186C445.045 38.4293 448.027 38.9796 450.795 40.133C450.638 39.37 450.703 38.5781 450.982 37.8507C451.261 37.1234 451.742 36.4908 452.368 36.0276C453.635 35.1228 455.091 34.5191 456.627 34.2627C464.339 32.5922 472.37 33.1715 479.763 35.9317C483.273 37.2554 487.129 39.922 486.842 43.6054C489.135 43.2141 491.494 43.5273 493.606 44.5035C495.718 45.4797 497.485 47.0732 498.673 49.0738C499.861 51.0743 500.415 53.3881 500.262 55.7099C500.109 58.0317 499.256 60.2526 497.815 62.0796C499.546 63.7377 500.797 65.8315 501.438 68.1408C502.079 70.4502 502.086 72.8896 501.458 75.2025C500.83 77.5154 499.59 79.6161 497.868 81.2837C496.147 82.9513 494.008 84.124 491.676 84.6785C491.925 83.8152 493.249 84.5826 493.594 85.4075C495.877 91.1628 491.676 97.8964 486.324 101.119C480.971 104.342 473.182 104.956 468.713 100.467C468.736 101.955 468.256 103.406 467.351 104.587C466.445 105.767 465.167 106.607 463.725 106.97C460.815 107.625 457.787 107.54 454.919 106.721C452.042 106.126 449.471 104.572 446.689 103.939C443.908 103.306 441.548 104.17 439.035 102.366Z" fill="white"/>
<path d="M460.31 108.313C458.404 108.263 456.508 108.019 454.651 107.584C453.128 107.219 451.639 106.725 450.2 106.107C448.957 105.574 447.674 105.138 446.363 104.803C445.51 104.636 444.643 104.546 443.773 104.534C441.911 104.635 440.065 104.145 438.498 103.134C437.343 102.285 436.397 101.183 435.732 99.9131C435.067 98.6431 434.701 97.2381 434.661 95.8052C433.124 95.8765 431.599 95.5084 430.263 94.7439C428.928 93.9795 427.838 92.8503 427.122 91.4888C425.734 88.7342 425.283 85.6024 425.836 82.5682C423.57 81.3263 421.685 79.4893 420.386 77.2552C419.087 75.0211 418.422 72.4747 418.464 69.8907C418.505 67.3066 419.251 64.7829 420.621 62.5916C421.992 60.4003 423.934 58.6247 426.239 57.4562C425.924 56.9848 425.684 56.467 425.529 55.9215C423.764 50.1662 427.007 42.9914 432.934 39.7492C435.518 38.4535 438.336 37.6922 441.22 37.5109C444.104 37.3296 446.995 37.7321 449.721 38.6941C449.953 37.3324 450.668 36.1 451.735 35.2218C453.114 34.2203 454.712 33.5626 456.397 33.3034C464.287 31.5902 472.503 32.1761 480.07 34.9916C484.616 36.699 487.398 39.4807 487.743 42.5693C490.079 42.4036 492.414 42.8966 494.482 43.9922C496.551 45.0878 498.271 46.7421 499.447 48.7668C500.622 50.7915 501.205 53.1054 501.13 55.4453C501.056 57.7853 500.326 60.0572 499.024 62.0028C500.575 63.6727 501.703 65.6897 502.315 67.8851C502.927 70.0805 503.004 72.3905 502.54 74.6219C502.076 76.8532 501.085 78.9411 499.649 80.7107C498.212 82.4803 496.373 83.8803 494.285 84.7935C494.338 84.8856 494.383 84.9818 494.419 85.0813C496.952 91.5463 492.367 98.6061 486.746 101.944C481.681 104.975 474.449 105.934 469.48 102.424C469.088 103.729 468.375 104.915 467.407 105.873C466.438 106.832 465.245 107.532 463.936 107.91C462.754 108.225 461.532 108.361 460.31 108.313ZM435.639 93.599C435.857 93.5918 436.07 93.6672 436.234 93.8101C436.357 93.911 436.453 94.0411 436.514 94.1884C436.574 94.3358 436.596 94.4958 436.579 94.6541C436.444 95.9589 436.65 97.2765 437.179 98.4773C437.707 99.6781 438.538 100.721 439.591 101.503C440.868 102.324 442.374 102.714 443.889 102.616C444.882 102.626 445.871 102.735 446.843 102.942C448.233 103.292 449.594 103.754 450.91 104.323C452.242 104.903 453.622 105.365 455.035 105.704C457.745 106.48 460.606 106.572 463.36 105.973C464.566 105.682 465.643 105.002 466.423 104.038C467.203 103.074 467.644 101.879 467.677 100.64C467.656 100.441 467.696 100.241 467.792 100.066C467.888 99.8914 468.035 99.7501 468.214 99.6612C468.394 99.5759 468.595 99.5485 468.791 99.5828C468.987 99.6172 469.168 99.7116 469.307 99.853C473.547 104.093 480.818 103.306 485.768 100.352C490.717 97.3975 494.688 91.1051 492.616 85.8103C492.565 85.7015 492.494 85.6038 492.405 85.5225L491.849 85.676C491.685 85.716 491.514 85.7122 491.352 85.6651C491.191 85.6179 491.044 85.5291 490.928 85.4074C490.813 85.2831 490.732 85.1316 490.691 84.9672C490.651 84.8027 490.653 84.6307 490.698 84.4674C490.779 84.1691 490.953 83.9043 491.194 83.7112C491.435 83.5181 491.732 83.4067 492.041 83.3931C492.212 83.3652 492.387 83.3652 492.559 83.3931C494.451 82.7046 496.155 81.5799 497.531 80.11C498.908 78.6401 499.919 76.8664 500.482 74.9329C501.031 72.7828 501.007 70.5261 500.411 68.3884C499.815 66.2507 498.669 64.3068 497.086 62.751C496.921 62.5827 496.82 62.3612 496.803 62.1259C496.785 61.8906 496.852 61.6566 496.99 61.4657C498.284 59.7859 499.044 57.7564 499.171 55.64C499.299 53.5235 498.788 51.4175 497.705 49.5947C496.622 47.7718 495.017 46.316 493.097 45.4158C491.177 44.5155 489.032 44.2123 486.938 44.5453C486.795 44.5652 486.65 44.5534 486.512 44.5108C486.375 44.4681 486.249 44.3957 486.142 44.2986C486.036 44.2014 485.952 44.0821 485.898 43.949C485.843 43.8159 485.818 43.6723 485.825 43.5285C486.055 40.4207 482.64 37.9843 479.36 36.7565C472.144 34.066 464.308 33.5001 456.78 35.1259C455.399 35.353 454.087 35.8909 452.943 36.699C452.472 37.05 452.107 37.5238 451.887 38.0685C451.667 38.6132 451.601 39.2079 451.697 39.7876C451.746 39.9566 451.747 40.1361 451.7 40.3057C451.652 40.4753 451.558 40.6281 451.428 40.7468C451.299 40.8668 451.14 40.9498 450.968 40.9869C450.796 41.0241 450.617 41.014 450.45 40.9578C447.811 39.8481 444.966 39.3135 442.105 39.3896C439.243 39.4657 436.431 40.1507 433.855 41.3991C428.695 44.2191 425.856 50.3581 427.371 55.3459C427.505 55.8063 427.831 56.6121 428.33 56.7655C428.523 56.8217 428.694 56.9371 428.818 57.0954C428.942 57.2538 429.013 57.4471 429.021 57.648C429.023 57.8504 428.964 58.0488 428.851 58.2167C428.738 58.3846 428.576 58.5141 428.388 58.588C426.132 59.4259 424.172 60.9082 422.752 62.8506C421.332 64.793 420.514 67.1099 420.399 69.5135C420.285 71.917 420.879 74.3012 422.108 76.3698C423.338 78.4383 425.148 80.1001 427.314 81.1485C427.502 81.2351 427.655 81.3825 427.749 81.567C427.843 81.7515 427.872 81.9623 427.831 82.1653C427.202 84.9883 427.54 87.941 428.791 90.5488C429.39 91.7227 430.359 92.6668 431.548 93.2354C432.738 93.804 434.081 93.9655 435.371 93.6949C435.459 93.6732 435.549 93.6667 435.639 93.6758V93.599Z" fill="#121116"/>
<path d="M427.39 124.927C427.39 124.927 394.623 183.707 390.23 193.99C385.837 204.272 405.29 228.156 412.81 222.363C420.33 216.569 427.39 124.927 427.39 124.927Z" fill="#FFC631"/>
<path d="M490.18 431.489C490.18 431.489 491.465 440.122 489.527 443.441C486.893 448.155 485.346 453.399 485 458.788C486.528 460.555 488.411 461.981 490.527 462.972C492.642 463.964 494.942 464.499 497.278 464.543C505.047 464.543 512.798 458.558 513.661 455.68C514.524 452.803 507.407 422.242 507.407 422.242L490.18 431.489Z" fill="white"/>
<path d="M497.278 465.368C494.808 465.33 492.373 464.767 490.137 463.715C487.901 462.663 485.914 461.147 484.31 459.267C484.239 459.179 484.188 459.078 484.158 458.969C484.128 458.86 484.121 458.746 484.137 458.634C484.484 453.139 486.071 447.793 488.78 442.999C490.238 440.505 489.662 433.925 489.317 431.623C489.284 431.445 489.31 431.262 489.389 431.1C489.468 430.937 489.598 430.805 489.758 430.721L507.024 421.417C507.146 421.356 507.281 421.325 507.417 421.325C507.554 421.325 507.688 421.356 507.81 421.417C507.93 421.476 508.037 421.559 508.123 421.662C508.209 421.764 508.272 421.883 508.309 422.012C509.499 427.172 515.427 452.956 514.544 455.91C513.662 458.865 505.451 465.368 497.278 465.368ZM485.921 458.443C487.365 460.029 489.116 461.305 491.069 462.192C493.021 463.079 495.134 463.559 497.278 463.603C504.703 463.603 512.108 457.848 512.818 455.373C513.316 453.685 510.151 437.916 506.813 423.489L491.12 431.968C491.389 434.059 492.06 440.832 490.276 443.882C487.77 448.355 486.282 453.327 485.921 458.443Z" fill="#121116"/>
<path d="M436.771 221.979L474.123 232.607L482.775 121.608C482.775 121.608 451.85 114.069 444.407 117.618C436.963 121.167 436.771 221.979 436.771 221.979Z" fill="#121116"/>
<path d="M474.122 233.567H473.854L436.579 222.9C436.376 222.846 436.197 222.726 436.069 222.56C435.94 222.393 435.87 222.189 435.869 221.979C435.869 205.04 436.406 120.304 444.022 116.755C451.639 113.205 481.777 120.361 483.062 120.591C483.283 120.649 483.477 120.782 483.61 120.968C483.743 121.154 483.807 121.38 483.791 121.608L475.139 232.607C475.127 232.748 475.085 232.884 475.015 233.006C474.946 233.129 474.851 233.235 474.736 233.317C474.566 233.468 474.349 233.556 474.122 233.567ZM437.673 221.25L473.201 231.36L481.7 122.337C472.607 120.188 450.43 115.776 444.732 118.5C440.416 120.611 437.826 172.868 437.73 221.25H437.673Z" fill="#121116"/>
<path d="M449.223 411.519V437.494L437.156 441.043L437.444 435.729L431.995 441.35C431.995 441.35 399.574 447.335 399.747 442.885C399.919 438.434 403.2 436.017 407.286 433.81C411.679 431.432 423.228 424.736 423.228 424.736L424.955 405.687" fill="white"/>
<path d="M405.751 445.378C403.609 445.614 401.444 445.228 399.516 444.265C399.306 444.099 399.138 443.885 399.025 443.642C398.912 443.399 398.856 443.133 398.864 442.865C399.056 437.935 402.835 435.191 406.864 433.043C410.892 430.894 420.293 425.369 422.403 424.199L424.072 405.59C424.101 405.361 424.216 405.152 424.395 405.006C424.573 404.859 424.801 404.787 425.031 404.804C425.146 404.813 425.259 404.846 425.361 404.899C425.464 404.953 425.554 405.027 425.628 405.117C425.701 405.206 425.756 405.309 425.788 405.42C425.821 405.531 425.831 405.648 425.818 405.763L424.11 424.851C424.094 424.989 424.045 425.122 423.969 425.239C423.892 425.355 423.789 425.452 423.669 425.522C423.554 425.522 412.159 432.256 407.708 434.616C403.257 436.975 400.763 439.143 400.629 442.961C401.55 444.572 415.688 443.479 431.554 440.563L436.81 435.153C436.939 435.027 437.103 434.941 437.28 434.907C437.457 434.873 437.641 434.892 437.808 434.961C437.969 435.034 438.104 435.153 438.196 435.304C438.289 435.454 438.334 435.629 438.326 435.805L438.095 439.891L448.359 436.879V411.556C448.356 411.441 448.377 411.327 448.419 411.22C448.461 411.113 448.525 411.016 448.605 410.934C448.685 410.851 448.781 410.786 448.887 410.741C448.993 410.697 449.107 410.674 449.222 410.674C449.456 410.674 449.681 410.767 449.846 410.932C450.012 411.098 450.105 411.322 450.105 411.556V437.532C450.107 437.723 450.047 437.909 449.932 438.062C449.818 438.214 449.656 438.325 449.472 438.376L437.405 441.925C437.271 441.962 437.13 441.967 436.994 441.94C436.857 441.914 436.729 441.856 436.618 441.771C436.508 441.686 436.42 441.575 436.364 441.448C436.307 441.321 436.282 441.181 436.292 441.042L436.446 438.05L432.609 441.982C432.481 442.116 432.312 442.203 432.129 442.232C423.425 443.92 414.609 444.972 405.751 445.378Z" fill="#121116"/>
<path d="M507.159 232.454L517.154 429.705C517.154 429.705 516.195 436.918 500.963 437.82C485.731 438.721 487.265 435.038 487.265 435.038L463.439 290.351L453.674 418.885L420.869 421.014L427.392 218.43L507.159 232.454Z" fill="#121116"/>
<path d="M496.493 438.913C491.006 438.913 487.764 438.127 486.652 436.554C486.32 436.108 486.175 435.55 486.249 435L463.842 298.409L454.691 418.943C454.673 419.174 454.571 419.391 454.406 419.553C454.24 419.715 454.021 419.812 453.789 419.825L420.927 421.916C420.793 421.926 420.659 421.907 420.533 421.861C420.408 421.814 420.293 421.742 420.198 421.647C420.102 421.557 420.026 421.446 419.977 421.324C419.927 421.201 419.904 421.07 419.91 420.938L426.433 218.354C426.436 218.215 426.469 218.079 426.53 217.954C426.591 217.829 426.679 217.72 426.786 217.632C426.894 217.545 427.019 217.481 427.154 217.447C427.288 217.413 427.428 217.408 427.565 217.433L507.332 231.514C507.547 231.549 507.744 231.659 507.887 231.823C508.031 231.988 508.113 232.197 508.119 232.415L518.056 429.666C518.056 430.165 516.809 437.839 500.982 438.76C499.351 438.856 497.855 438.913 496.493 438.913ZM488.148 435.383L488.321 435.556C488.915 436.131 491.333 437.474 500.867 436.861C514.967 436.036 516.214 429.647 516.214 429.571L506.296 233.26L428.313 219.581L421.848 419.998L452.83 418.079L462.537 290.39C462.56 290.157 462.665 289.94 462.834 289.778C463.003 289.616 463.224 289.52 463.458 289.507C463.689 289.495 463.917 289.568 464.098 289.713C464.278 289.859 464.399 290.065 464.436 290.294L488.186 434.98C488.234 435.156 488.234 435.342 488.186 435.518L488.148 435.383Z" fill="#121116"/>
<path d="M476.041 110.999C476.041 110.999 463.245 244.962 468.981 252.635C474.717 260.309 510.112 266.39 512.759 251.503C517.114 227.025 514.678 139.085 509.575 130.816C488.971 112.495 476.041 110.999 476.041 110.999Z" fill="#FFC631"/>
<path d="M427.391 124.927C427.391 124.927 409.089 246.592 412.542 250.122C415.995 253.652 434.757 258.429 439.937 254.88C445.117 251.331 452.196 111.632 452.196 111.632C442.859 113.689 434.273 118.291 427.391 124.927Z" fill="#FFC631"/>
<path d="M453.193 109.215L451.62 122.203C452.473 124.772 454.266 126.924 456.639 128.226C459.013 129.528 461.791 129.885 464.416 129.224C474.315 127.133 474.43 121.397 474.43 121.397C474.43 121.397 475.773 92.122 475.773 92.0453C475.535 91.3679 475.213 90.7233 474.814 90.1268C473.337 86.7888 471.226 82.2038 471.86 78.5013C472.392 75.449 473.915 72.6574 476.195 70.5591C475.022 71.0815 473.744 71.3261 472.46 71.2737C471.177 71.2213 469.923 70.8734 468.796 70.257C467.669 69.6407 466.7 68.7726 465.963 67.7202C465.227 66.6679 464.743 65.4598 464.55 64.1899C464.55 65.5136 463.38 66.492 462.267 67.221C460.624 68.4991 458.593 69.1761 456.512 69.1394C453.788 68.8325 451.755 66.5112 449.203 65.5136C449.598 66.3887 449.663 67.3766 449.389 68.2962C449.114 69.2158 448.517 70.0056 447.707 70.5207C446.043 71.5058 444.058 71.7953 442.182 71.3264C443.429 71.5758 442.374 85.4459 442.354 86.6737C442.179 90.9731 442.281 95.2793 442.661 99.5654C443.582 107.22 453.193 109.215 453.193 109.215Z" fill="white"/>
<path d="M461.519 130.49C453.289 130.49 450.68 122.587 450.661 122.491C450.632 122.358 450.632 122.221 450.661 122.088L452.119 109.944C449.606 109.215 442.527 106.568 441.683 99.4697C441.316 95.4714 441.207 91.4536 441.356 87.4413V86.4437C441.356 86.2518 441.356 85.7147 441.356 84.9473C441.913 75.643 441.74 72.7271 441.472 71.9597C441.329 71.853 441.221 71.7075 441.16 71.5407C441.099 71.3739 441.087 71.193 441.126 71.0197C441.147 70.8957 441.192 70.7773 441.26 70.6717C441.328 70.566 441.417 70.4753 441.521 70.4053C441.625 70.3352 441.743 70.2872 441.866 70.2642C441.99 70.2412 442.117 70.2436 442.239 70.2715C443.869 70.6686 445.589 70.4356 447.054 69.6192C447.677 69.2266 448.14 68.6241 448.358 67.9206C448.576 67.217 448.535 66.4587 448.244 65.7824C448.146 65.6096 448.105 65.4109 448.125 65.2137C448.146 65.0165 448.227 64.8305 448.357 64.6811C448.487 64.5318 448.661 64.4265 448.854 64.3798C449.046 64.3331 449.249 64.3473 449.433 64.4203C450.513 64.8886 451.541 65.4672 452.502 66.1469C453.674 67.0849 455.046 67.7412 456.512 68.0653C458.361 68.0795 460.163 67.4789 461.634 66.3579C462.881 65.5522 463.553 64.8232 463.553 64.1326C463.557 63.8892 463.651 63.656 463.818 63.4786C463.985 63.3013 464.211 63.1924 464.454 63.1734C464.695 63.1513 464.934 63.2227 465.124 63.3727C465.313 63.5227 465.437 63.7399 465.471 63.9791C465.626 65.1128 466.042 66.1949 466.687 67.1402C467.332 68.0854 468.188 68.868 469.186 69.426C470.185 69.9841 471.3 70.3024 472.443 70.3559C473.586 70.4094 474.726 70.1966 475.773 69.7343C475.979 69.638 476.214 69.6199 476.432 69.6834C476.651 69.7469 476.839 69.8877 476.962 70.0796C477.086 70.2695 477.138 70.4969 477.11 70.7216C477.082 70.9463 476.975 71.1538 476.809 71.3074C474.673 73.2564 473.248 75.8624 472.761 78.7125C472.205 81.993 474.104 86.3861 475.485 89.4172L475.658 89.7817C475.737 89.9534 475.826 90.12 475.926 90.2805C476.341 90.8441 476.606 91.5045 476.694 92.1989C476.694 92.1989 476.694 92.1989 475.351 121.608C475.351 121.858 475.101 128.131 464.569 130.318C463.561 130.481 462.539 130.539 461.519 130.49ZM452.541 122.088C453.321 124.385 454.941 126.301 457.077 127.45C459.213 128.6 461.705 128.898 464.051 128.284C472.991 126.366 473.298 121.57 473.317 121.359C473.336 121.148 474.641 92.4291 474.66 92.0071C474.66 92.0071 474.334 91.4315 474.181 91.163C474.026 90.9381 473.892 90.7007 473.778 90.4532L473.624 90.1079C472.147 86.7314 470.113 82.1464 470.766 78.2904C471.133 76.0751 472.006 73.9744 473.317 72.1515C471.534 72.2589 469.755 71.874 468.176 71.0388C466.434 70.05 465.045 68.5406 464.205 66.7224C463.729 67.1958 463.201 67.6141 462.632 67.9694C460.787 69.3117 458.542 69.9881 456.263 69.8878C454.505 69.5608 452.849 68.8247 451.428 67.7392L450.392 67.0677C450.337 67.8693 450.101 68.6479 449.702 69.3455C449.304 70.0431 448.753 70.6417 448.09 71.0964C446.711 71.9791 445.079 72.3835 443.448 72.2474C443.701 76.4863 443.63 80.7383 443.237 84.9665C443.237 85.6955 443.237 86.1943 443.237 86.3861V87.3645C443.096 91.3002 443.205 95.2409 443.563 99.1628C444.388 106.242 453.155 108.16 453.327 108.179C453.559 108.234 453.763 108.371 453.901 108.566C454.038 108.76 454.101 108.998 454.076 109.234L452.541 122.088Z" fill="#121116"/>
<path d="M451.389 85.3887C451.389 85.3887 445.634 92.8897 446.843 94.3476C448.051 95.8056 451.447 95.1534 451.447 95.1534" fill="white"/>
<path d="M449.759 96.2466C449.098 96.2948 448.434 96.1979 447.815 95.9626C447.195 95.7273 446.634 95.3594 446.172 94.8846C444.867 93.1964 447.937 88.4579 450.718 84.7746C450.871 84.571 451.098 84.4365 451.35 84.4005C451.602 84.3645 451.858 84.4301 452.061 84.5827C452.164 84.6566 452.251 84.7506 452.317 84.859C452.382 84.9673 452.425 85.0878 452.443 85.2133C452.461 85.3387 452.454 85.4665 452.421 85.5889C452.388 85.7113 452.331 85.8258 452.253 85.9256C449.702 89.3212 447.591 93.0045 447.745 93.8294C448.205 94.3858 450.181 94.3858 451.351 94.1748C451.475 94.1495 451.602 94.1489 451.726 94.1728C451.849 94.1968 451.967 94.2449 452.072 94.3144C452.177 94.3839 452.268 94.4734 452.338 94.5778C452.409 94.6822 452.458 94.7995 452.483 94.9229C452.508 95.0477 452.508 95.1763 452.483 95.301C452.458 95.4258 452.408 95.5443 452.337 95.6496C452.265 95.755 452.174 95.845 452.067 95.9146C451.96 95.9842 451.841 96.0318 451.716 96.0548C451.071 96.179 450.416 96.2432 449.759 96.2466Z" fill="#121116"/>
<path d="M453.193 109.215C453.193 109.215 460.867 109.215 464.378 107.143C464.378 107.143 461.385 116.102 453.098 118.308L453.193 109.215Z" fill="#121116"/>
<path d="M453.098 119.267C452.883 119.272 452.674 119.204 452.503 119.076C452.385 118.986 452.29 118.87 452.227 118.736C452.163 118.603 452.133 118.456 452.138 118.308L452.234 109.215C452.234 108.961 452.335 108.717 452.515 108.537C452.695 108.357 452.939 108.256 453.194 108.256C453.596 108.256 460.656 108.256 463.879 106.337C464.04 106.226 464.23 106.166 464.426 106.166C464.621 106.166 464.812 106.226 464.973 106.337C465.121 106.464 465.23 106.631 465.284 106.819C465.339 107.006 465.337 107.206 465.279 107.392C465.145 107.776 462.018 116.85 453.328 119.191L453.098 119.267ZM454.134 110.174V117.004C457.817 115.421 460.817 112.578 462.594 108.985C459.836 109.747 456.994 110.165 454.134 110.232V110.174Z" fill="#121116"/>
<path d="M517.344 219.274H517.248C516.001 219.121 486.841 215.744 477.575 210.545C477.464 210.485 477.366 210.404 477.287 210.305C477.208 210.206 477.15 210.092 477.116 209.971C477.082 209.849 477.073 209.721 477.089 209.596C477.105 209.471 477.147 209.35 477.211 209.241C477.339 209.024 477.547 208.864 477.79 208.796C478.033 208.728 478.293 208.757 478.515 208.876C487.436 213.883 517.171 217.317 517.459 217.356C517.714 217.371 517.952 217.487 518.121 217.677C518.29 217.868 518.376 218.118 518.361 218.372C518.346 218.627 518.23 218.865 518.039 219.034C517.849 219.203 517.599 219.289 517.344 219.274Z" fill="#121116"/>
<path d="M509.576 130.816C509.576 130.816 567.435 213.308 542.65 234.641C519.936 254.151 469.75 221.749 469.75 221.749L472.781 194.354C472.781 194.354 512.511 216.473 513.164 206.172C514.104 191.016 494.632 170.316 494.632 170.316C492.881 166.96 491.823 163.286 491.52 159.513C491.217 155.739 491.675 151.944 492.867 148.351C494 144.282 496.117 140.554 499.031 137.496C501.945 134.438 505.566 132.144 509.576 130.816Z" fill="#FFC631"/>
<path d="M419.314 197.308C419.189 197.29 419.069 197.246 418.961 197.181C418.853 197.116 418.759 197.03 418.684 196.929C418.609 196.827 418.555 196.712 418.525 196.589C418.495 196.467 418.489 196.34 418.508 196.215C420.292 184.244 428.867 138.528 428.963 138.068C429.014 137.821 429.159 137.604 429.366 137.461C429.573 137.318 429.827 137.261 430.076 137.3C430.326 137.351 430.547 137.498 430.69 137.71C430.834 137.922 430.889 138.181 430.843 138.432C430.747 138.893 422.172 184.474 420.407 196.503C420.365 196.752 420.227 196.976 420.023 197.126C419.819 197.276 419.565 197.342 419.314 197.308Z" fill="#121116"/>
<path d="M411.238 233.471H468.925C469.999 233.451 471.056 233.192 472.018 232.714C472.981 232.236 473.825 231.55 474.489 230.705C475.154 229.86 475.622 228.879 475.861 227.831C476.1 226.783 476.103 225.695 475.869 224.646L463.611 165.348C463.259 163.647 462.341 162.115 461.007 161.004C459.672 159.892 458 159.266 456.263 159.228H399.421C398.282 159.247 397.161 159.518 396.14 160.023C395.119 160.529 394.223 161.255 393.518 162.15C392.812 163.044 392.315 164.085 392.062 165.195C391.809 166.306 391.806 167.459 392.054 168.571L404.293 227.677C404.604 229.296 405.465 230.758 406.731 231.814C407.997 232.871 409.589 233.456 411.238 233.471Z" fill="white"/>
<path d="M468.925 234.334H411.238C409.391 234.309 407.609 233.651 406.188 232.471C404.767 231.292 403.794 229.66 403.43 227.85L391.21 168.743C390.939 167.471 390.957 166.153 391.263 164.889C391.568 163.624 392.153 162.443 392.975 161.434C393.751 160.472 394.733 159.696 395.848 159.161C396.964 158.627 398.184 158.348 399.421 158.346H456.263C458.206 158.374 460.081 159.067 461.575 160.31C463.069 161.552 464.092 163.27 464.474 165.175L476.733 224.454C476.99 225.663 476.973 226.914 476.685 228.115C476.396 229.317 475.842 230.439 475.063 231.399C474.322 232.312 473.386 233.049 472.324 233.557C471.263 234.065 470.101 234.33 468.925 234.334ZM399.421 160.111C398.445 160.111 397.482 160.33 396.602 160.751C395.722 161.173 394.948 161.787 394.337 162.547C393.694 163.344 393.233 164.273 392.988 165.267C392.743 166.261 392.718 167.298 392.917 168.302L405.157 227.428C405.434 228.844 406.189 230.122 407.296 231.047C408.403 231.973 409.795 232.49 411.238 232.511H468.925C469.842 232.506 470.746 232.297 471.573 231.899C472.399 231.501 473.126 230.924 473.701 230.209C474.317 229.455 474.756 228.572 474.985 227.626C475.214 226.68 475.228 225.694 475.025 224.742L462.747 165.444C462.449 163.936 461.642 162.576 460.462 161.592C459.282 160.607 457.8 160.057 456.263 160.034L399.421 160.111Z" fill="#121116"/>
<path d="M480.8 203.697C481.133 201.624 480.975 199.501 480.339 197.5C479.71 196.155 478.846 194.934 477.788 193.894C475.987 191.975 474.064 190.175 472.032 188.503C470.114 187.006 467.946 185.548 465.644 186.047C466.354 189.484 468.299 192.542 471.112 194.642C470.192 193.543 468.972 192.736 467.601 192.32C466.68 192.033 465.433 192.071 465.049 192.992C464.961 193.288 464.934 193.599 464.97 193.906C465.007 194.213 465.105 194.509 465.26 194.776C466.334 197.151 467.982 199.221 470.056 200.8L467.831 199.38C467.263 198.963 466.607 198.68 465.913 198.555C465.571 198.499 465.221 198.555 464.913 198.714C464.606 198.873 464.357 199.127 464.205 199.438C464.065 199.957 464.12 200.51 464.359 200.992C464.938 202.373 465.896 203.564 467.121 204.426C466.319 203.74 465.355 203.271 464.32 203.064C463.798 202.985 463.264 203.097 462.817 203.379C462.37 203.66 462.039 204.093 461.884 204.598C461.827 205.177 461.947 205.759 462.229 206.267C463.879 209.548 467.812 209.912 469.73 212.675C471.169 214.727 470.498 216.934 473.414 218.181C480.704 221.193 480.397 208.071 480.8 203.697Z" fill="white"/>
<path d="M475.524 219.581C474.703 219.568 473.893 219.385 473.145 219.044C472.334 218.716 471.615 218.195 471.05 217.526C470.485 216.858 470.091 216.062 469.903 215.207C469.708 214.53 469.417 213.884 469.04 213.289C468.173 212.243 467.094 211.393 465.874 210.795C464.044 209.925 462.514 208.529 461.481 206.785C461.073 206.092 460.917 205.279 461.04 204.483C461.209 203.841 461.58 203.271 462.098 202.856C462.616 202.441 463.254 202.205 463.918 202.181C463.787 201.939 463.671 201.69 463.572 201.433C463.226 200.729 463.164 199.918 463.4 199.169C463.598 198.711 463.928 198.322 464.348 198.052C464.769 197.782 465.26 197.643 465.759 197.654C465.247 196.889 464.804 196.08 464.436 195.237C464.216 194.853 464.081 194.426 464.042 193.986C464.002 193.546 464.058 193.102 464.205 192.685C464.426 192.227 464.781 191.848 465.224 191.598C465.666 191.347 466.174 191.238 466.68 191.285C465.765 189.769 465.116 188.108 464.762 186.374C464.707 186.248 464.679 186.113 464.679 185.976C464.68 185.84 464.709 185.704 464.765 185.58C464.821 185.455 464.903 185.343 465.005 185.252C465.106 185.161 465.226 185.092 465.356 185.05C468.1 184.474 470.632 186.163 472.531 187.697C474.611 189.39 476.572 191.223 478.402 193.184C479.54 194.287 480.47 195.587 481.145 197.021C481.852 199.152 482.029 201.424 481.663 203.639C481.663 204.196 481.663 204.886 481.529 205.673C481.298 210.085 480.915 216.742 477.692 218.795C477.06 219.261 476.307 219.534 475.524 219.581ZM464.167 203.985C463.905 203.968 463.645 204.032 463.421 204.17C463.198 204.307 463.023 204.511 462.92 204.752C462.902 205.129 462.995 205.502 463.189 205.826C464.065 207.231 465.332 208.351 466.834 209.049C468.328 209.76 469.641 210.804 470.67 212.099C471.165 212.856 471.54 213.684 471.783 214.555C471.875 215.159 472.123 215.729 472.503 216.207C472.884 216.685 473.383 217.054 473.951 217.279C474.376 217.516 474.855 217.64 475.342 217.64C475.829 217.64 476.307 217.516 476.733 217.279C479.188 215.744 479.553 209.203 479.764 205.769C479.764 204.944 479.764 204.215 479.898 203.658C480.216 201.735 480.078 199.764 479.495 197.903C478.92 196.661 478.12 195.536 477.135 194.584C475.336 192.695 473.413 190.926 471.38 189.29C470.119 188.091 468.541 187.279 466.834 186.949C467.448 188.972 468.525 190.825 469.98 192.359C470.701 192.799 471.348 193.349 471.898 193.99C472.057 194.166 472.145 194.395 472.145 194.632C472.145 194.87 472.057 195.099 471.898 195.275C471.74 195.449 471.522 195.558 471.288 195.579C471.053 195.6 470.819 195.533 470.632 195.39C469.992 194.926 469.389 194.413 468.829 193.855C468.378 193.58 467.894 193.361 467.39 193.203C466.776 193.03 466.105 193.088 466.009 193.337C465.954 193.691 466.029 194.052 466.22 194.354C467.212 196.591 468.757 198.538 470.709 200.013C470.81 200.084 470.896 200.174 470.961 200.279C471.027 200.383 471.07 200.499 471.09 200.621C471.11 200.743 471.105 200.867 471.076 200.987C471.046 201.107 470.993 201.219 470.92 201.318C470.779 201.523 470.565 201.665 470.322 201.716C470.078 201.766 469.825 201.719 469.615 201.587L467.39 200.186C466.96 199.852 466.463 199.616 465.932 199.495C465.8 199.466 465.663 199.476 465.537 199.524C465.411 199.571 465.301 199.655 465.222 199.764C465.182 200.055 465.236 200.35 465.376 200.608C465.839 201.738 466.602 202.719 467.582 203.447L467.812 203.62C467.915 203.691 468.003 203.782 468.071 203.887C468.138 203.992 468.184 204.11 468.205 204.234C468.227 204.357 468.223 204.483 468.195 204.605C468.167 204.727 468.115 204.842 468.042 204.944C467.899 205.151 467.679 205.293 467.432 205.34C467.184 205.387 466.928 205.334 466.718 205.193L466.469 205.021C465.858 204.516 465.134 204.167 464.359 204.004L464.167 203.985Z" fill="#121116"/>
<path d="M392.954 199.572C393.242 195.601 394.431 191.208 397.788 189.213C398.827 188.616 399.998 188.291 401.196 188.268C402.393 188.244 403.576 188.523 404.637 189.079C404.832 189.155 405.007 189.274 405.15 189.426C405.292 189.579 405.399 189.762 405.462 189.961C405.596 190.594 405.021 191.112 404.503 191.438C403.393 192.135 402.183 192.659 400.915 192.992C401.948 192.908 402.981 193.147 403.871 193.676C404.762 194.206 405.465 194.999 405.884 195.947C404.634 197.417 402.885 198.373 400.973 198.632C401.608 198.463 402.279 198.49 402.899 198.709C403.519 198.928 404.058 199.329 404.445 199.86C405.692 201.663 404.695 202.162 403.333 203.237C403.931 203.109 404.554 203.17 405.117 203.409C405.402 203.539 405.642 203.75 405.806 204.017C405.97 204.283 406.05 204.593 406.038 204.906C405.942 206.057 404.541 206.421 403.563 206.997C402.774 207.476 402.177 208.216 401.875 209.088C401.764 209.589 401.603 210.077 401.395 210.546C399.477 213.98 395.218 211.121 394.163 208.627C393.082 205.739 392.668 202.643 392.954 199.572Z" fill="white"/>
<path d="M398.901 213.097H398.671C397.513 212.935 396.415 212.484 395.476 211.787C394.538 211.09 393.789 210.168 393.3 209.107C392.153 206.047 391.707 202.769 391.995 199.515C392.264 195.678 393.396 190.709 397.309 188.388C398.486 187.709 399.816 187.339 401.174 187.313C402.533 187.286 403.876 187.603 405.079 188.234C405.401 188.374 405.688 188.584 405.917 188.85C406.146 189.116 406.312 189.43 406.402 189.769C406.517 190.306 406.402 191.323 405.021 192.244L404.177 192.743C405.331 193.367 406.243 194.36 406.767 195.563C406.834 195.727 406.856 195.907 406.829 196.083C406.802 196.259 406.727 196.424 406.613 196.56C405.992 197.321 405.246 197.969 404.407 198.479C404.729 198.725 405.008 199.023 405.232 199.361C406.268 200.838 406.095 201.836 405.539 202.584C405.998 202.798 406.382 203.145 406.642 203.579C406.902 204.013 407.025 204.515 406.997 205.021C406.882 206.44 405.616 207.073 404.714 207.514L404.062 207.86C403.462 208.213 403.012 208.772 402.796 209.433C402.74 209.576 402.695 209.724 402.661 209.874C402.575 210.282 402.433 210.675 402.239 211.044C401.919 211.655 401.44 212.168 400.852 212.529C400.265 212.89 399.591 213.086 398.901 213.097ZM393.914 199.668C393.641 202.613 394.028 205.582 395.045 208.359C395.401 209.091 395.926 209.729 396.576 210.219C397.226 210.71 397.984 211.038 398.786 211.179C399.158 211.189 399.524 211.091 399.841 210.897C400.157 210.702 400.411 210.421 400.57 210.085C400.677 209.851 400.76 209.607 400.82 209.356C400.82 209.164 400.916 208.992 400.973 208.8C401.341 207.705 402.09 206.779 403.084 206.191L403.851 205.769C404.58 205.423 405.059 205.155 405.098 204.829C405.136 204.503 404.925 204.407 404.695 204.292C404.31 204.144 403.89 204.111 403.486 204.196C403.279 204.225 403.068 204.187 402.886 204.085C402.703 203.984 402.558 203.826 402.473 203.635C402.388 203.444 402.368 203.23 402.416 203.027C402.464 202.823 402.577 202.641 402.738 202.507L403.103 202.22C404.273 201.318 404.273 201.318 403.659 200.436C403.045 199.553 402.412 199.438 401.108 199.611C400.981 199.629 400.852 199.622 400.728 199.589C400.605 199.557 400.489 199.499 400.389 199.42C400.288 199.341 400.205 199.242 400.143 199.13C400.082 199.018 400.045 198.894 400.033 198.767C400.001 198.515 400.069 198.26 400.224 198.059C400.378 197.858 400.606 197.726 400.858 197.692C402.312 197.488 403.659 196.814 404.695 195.774C404.33 195.134 403.788 194.613 403.135 194.273C402.482 193.933 401.745 193.788 401.012 193.855C400.771 193.884 400.529 193.821 400.333 193.679C400.138 193.536 400.003 193.325 399.957 193.088C399.909 192.85 399.954 192.602 400.082 192.396C400.211 192.189 400.412 192.039 400.647 191.975C401.819 191.664 402.937 191.179 403.966 190.537C404.35 190.306 404.484 190.115 404.503 190.038L404.158 189.827C403.247 189.344 402.229 189.101 401.198 189.121C400.168 189.141 399.159 189.424 398.268 189.942C395.065 191.86 394.125 196.215 393.894 199.534L393.914 199.668Z" fill="#121116"/>
<path d="M442.93 88.9182C441.526 88.9182 440.154 88.5019 438.987 87.7219C437.819 86.942 436.91 85.8334 436.372 84.5364C435.835 83.2394 435.695 81.8122 435.968 80.4353C436.242 79.0584 436.918 77.7936 437.911 76.8009C438.904 75.8082 440.168 75.1322 441.545 74.8583C442.922 74.5844 444.349 74.725 445.646 75.2622C446.943 75.7995 448.052 76.7093 448.832 77.8765C449.612 79.0438 450.028 80.4162 450.028 81.82C450.023 83.701 449.274 85.5035 447.944 86.8336C446.614 88.1636 444.811 88.9131 442.93 88.9182ZM442.93 76.6403C441.906 76.6403 440.904 76.9441 440.052 77.5133C439.201 78.0824 438.537 78.8914 438.145 79.8379C437.753 80.7843 437.65 81.8258 437.85 82.8306C438.05 83.8353 438.543 84.7583 439.268 85.4827C439.992 86.2071 440.915 86.7004 441.92 86.9002C442.924 87.1001 443.966 86.9975 444.912 86.6055C445.859 86.2134 446.668 85.5495 447.237 84.6977C447.806 83.8459 448.11 82.8445 448.11 81.82C448.105 80.4479 447.557 79.1333 446.587 78.163C445.617 77.1927 444.302 76.6454 442.93 76.6403Z" fill="#121116"/>
<path d="M458.738 88.9182C457.334 88.9182 455.962 88.5019 454.794 87.7219C453.627 86.942 452.717 85.8334 452.18 84.5364C451.643 83.2394 451.502 81.8122 451.776 80.4353C452.05 79.0584 452.726 77.7936 453.719 76.8009C454.711 75.8082 455.976 75.1322 457.353 74.8583C458.73 74.5844 460.157 74.725 461.454 75.2622C462.751 75.7995 463.86 76.7093 464.64 77.8765C465.42 79.0438 465.836 80.4162 465.836 81.82C465.836 83.7026 465.088 85.508 463.757 86.8392C462.426 88.1703 460.62 88.9182 458.738 88.9182ZM458.738 76.6403C457.713 76.6403 456.712 76.9441 455.86 77.5133C455.008 78.0824 454.344 78.8914 453.952 79.8379C453.56 80.7843 453.458 81.8258 453.658 82.8306C453.857 83.8353 454.351 84.7583 455.075 85.4827C455.8 86.2071 456.723 86.7004 457.727 86.9002C458.732 87.1001 459.774 86.9975 460.72 86.6055C461.666 86.2134 462.475 85.5495 463.045 84.6977C463.614 83.8459 463.917 82.8445 463.917 81.82C463.917 80.4463 463.372 79.1288 462.4 78.1574C461.429 77.1861 460.112 76.6403 458.738 76.6403Z" fill="#121116"/>
<path d="M452.387 100.64C449.931 100.591 447.518 99.9875 445.327 98.8749C445.11 98.7465 444.951 98.539 444.883 98.2959C444.815 98.0528 444.843 97.7928 444.963 97.5704C445.088 97.3493 445.295 97.1868 445.54 97.1185C445.784 97.0502 446.046 97.0816 446.267 97.2059C446.632 97.3977 455.169 102.079 460.387 94.1748C460.527 93.9611 460.746 93.8117 460.996 93.7596C461.246 93.7074 461.506 93.7567 461.72 93.8966C461.934 94.0365 462.083 94.2556 462.135 94.5056C462.187 94.7557 462.138 95.0162 461.998 95.2299C461.007 96.8918 459.599 98.2655 457.913 99.2146C456.227 100.164 454.322 100.655 452.387 100.64Z" fill="#121116"/>
<path d="M452.599 82.7795H449.069C448.815 82.7795 448.571 82.6784 448.391 82.4986C448.211 82.3187 448.11 82.0747 448.11 81.8203C448.11 81.5659 448.211 81.3219 448.391 81.142C448.571 80.9621 448.815 80.8611 449.069 80.8611H452.599C452.854 80.8611 453.098 80.9621 453.278 81.142C453.457 81.3219 453.559 81.5659 453.559 81.8203C453.554 82.0731 453.451 82.3143 453.272 82.4931C453.093 82.6719 452.852 82.7746 452.599 82.7795Z" fill="#121116"/>
<path d="M479.035 86.6162C478.953 86.6345 478.867 86.6345 478.785 86.6162L464.627 82.7794C464.373 82.7133 464.155 82.5488 464.022 82.3221C463.889 82.0955 463.851 81.8252 463.918 81.5708C463.984 81.3164 464.148 81.0987 464.375 80.9656C464.602 80.8325 464.872 80.7949 465.126 80.861L479.284 84.6978C479.528 84.7652 479.735 84.9258 479.86 85.1449C479.986 85.364 480.02 85.6239 479.956 85.868C479.911 86.0796 479.796 86.2695 479.628 86.4058C479.46 86.542 479.251 86.6164 479.035 86.6162Z" fill="#121116"/>
<path d="M471.112 87.959C471.492 86.592 472.299 85.3821 473.414 84.5058C474.265 83.7874 475.26 83.2598 476.333 82.9586C477.405 82.6575 478.529 82.5898 479.63 82.7601C480.727 83.2235 481.635 84.0444 482.206 85.0893C482.777 86.1343 482.978 87.3417 482.776 88.5153C482.618 90.1108 482.032 91.634 481.08 92.9239C480.127 94.2138 478.844 95.2226 477.366 95.8436C476.396 96.1907 475.367 96.339 474.338 96.2797C473.31 96.2204 472.304 95.9546 471.381 95.4983" fill="white"/>
<path d="M474.814 97.244C473.483 97.2419 472.17 96.9334 470.977 96.3423C470.863 96.2874 470.762 96.2101 470.679 96.115C470.596 96.02 470.532 95.9092 470.493 95.7893C470.454 95.6693 470.439 95.5426 470.449 95.4168C470.46 95.291 470.496 95.1686 470.555 95.057C470.61 94.9434 470.687 94.842 470.782 94.7583C470.876 94.6746 470.987 94.6105 471.106 94.5695C471.225 94.5285 471.352 94.5115 471.478 94.5194C471.604 94.5273 471.727 94.5601 471.84 94.6157C472.648 95.0137 473.527 95.2475 474.426 95.3035C475.325 95.3595 476.226 95.2365 477.077 94.9419C478.384 94.373 479.516 93.4678 480.359 92.3185C481.201 91.1693 481.724 89.8172 481.873 88.4001C482.042 87.4505 481.89 86.4718 481.442 85.6177C480.994 84.7636 480.276 84.0824 479.399 83.6808C478.442 83.5621 477.471 83.6423 476.547 83.9163C475.623 84.1903 474.765 84.6522 474.027 85.2731C473.092 86.0228 472.42 87.0509 472.109 88.2082C472.075 88.3342 472.016 88.4522 471.937 88.5556C471.857 88.659 471.758 88.7456 471.645 88.8107C471.532 88.8757 471.407 88.9178 471.277 88.9346C471.148 88.9514 471.017 88.9425 470.891 88.9085C470.765 88.8745 470.647 88.816 470.543 88.7364C470.44 88.6567 470.353 88.5575 470.288 88.4444C470.223 88.3313 470.181 88.2065 470.164 88.0771C470.148 87.9477 470.156 87.8162 470.19 87.6903C470.638 86.1652 471.558 84.8217 472.819 83.8535C473.788 83.0382 474.924 82.4441 476.146 82.1128C477.369 81.7815 478.649 81.7208 479.898 81.9351C481.209 82.4577 482.303 83.4111 483.001 84.6384C483.698 85.8657 483.957 87.2939 483.734 88.6878C483.562 90.4573 482.912 92.1466 481.854 93.5757C480.797 95.0048 479.371 96.1202 477.73 96.8027C476.791 97.1202 475.804 97.2696 474.814 97.244Z" fill="#121116"/>
<path d="M507.235 209.241C498.392 209.241 485.442 202.086 483.581 201.03C483.472 200.967 483.376 200.883 483.299 200.783C483.221 200.683 483.165 200.569 483.132 200.447C483.099 200.325 483.09 200.198 483.107 200.072C483.123 199.947 483.164 199.826 483.227 199.716C483.29 199.607 483.373 199.511 483.474 199.433C483.574 199.356 483.688 199.3 483.81 199.267C483.932 199.234 484.059 199.225 484.185 199.241C484.31 199.258 484.431 199.298 484.541 199.361C490.737 202.891 507.849 210.872 512.358 205.558C516.866 200.244 503.36 173.942 497.759 164.274C497.661 164.057 497.647 163.812 497.719 163.586C497.791 163.36 497.945 163.169 498.15 163.049C498.356 162.93 498.598 162.891 498.83 162.94C499.063 162.989 499.269 163.122 499.408 163.314C501.538 166.998 520.108 199.4 513.835 206.786C512.982 207.653 511.949 208.323 510.808 208.747C509.668 209.172 508.448 209.34 507.235 209.241Z" fill="#121116"/>
<path d="M513.988 241.854H513.853C499.676 239.725 481.24 228.425 480.434 228.003C480.327 227.936 480.234 227.849 480.161 227.747C480.087 227.644 480.035 227.528 480.006 227.405C479.978 227.282 479.974 227.155 479.995 227.03C480.015 226.906 480.061 226.786 480.128 226.679C480.192 226.57 480.279 226.475 480.381 226.4C480.484 226.325 480.6 226.272 480.724 226.243C480.848 226.214 480.976 226.211 481.101 226.233C481.226 226.256 481.345 226.303 481.451 226.372C481.624 226.468 500.348 237.883 514.064 239.974C514.189 239.988 514.31 240.027 514.42 240.09C514.529 240.152 514.624 240.236 514.7 240.337C514.775 240.437 514.829 240.552 514.859 240.675C514.888 240.797 514.892 240.924 514.87 241.048C514.836 241.263 514.73 241.459 514.57 241.605C514.409 241.752 514.204 241.839 513.988 241.854Z" fill="#121116"/>
<path d="M13.7599 267.141L0.864258 321.95L67.5124 337.631L80.4081 282.822L13.7599 267.141Z" fill="white"/>
<path d="M67.5353 338.523H67.3242L0.678645 322.83C0.565604 322.805 0.458691 322.758 0.364264 322.691C0.269837 322.624 0.189826 322.539 0.128978 322.441C0.0681308 322.342 0.0276967 322.233 0.0100728 322.118C-0.00755108 322.004 -0.00200791 321.887 0.026385 321.775L12.9181 266.966C12.9728 266.74 13.1142 266.545 13.3117 266.423C13.5092 266.301 13.7469 266.262 13.9732 266.314L80.6188 282.006C80.7322 282.03 80.8397 282.077 80.9352 282.143C81.0306 282.209 81.1122 282.293 81.1752 282.39C81.2933 282.593 81.3277 282.834 81.2711 283.061L68.3794 337.87C68.324 338.091 68.1869 338.283 67.9957 338.408C67.8564 338.489 67.6966 338.529 67.5353 338.523ZM1.92561 321.257L66.883 336.604L79.3719 283.503L14.4337 268.155L1.92561 321.257Z" fill="#121116"/>
<path d="M54.2787 256.568C54.2787 256.568 53.166 284.865 50.2309 283.177C46.394 280.932 47.9863 274.41 47.9863 274.41L34.9795 271.666C34.9795 271.666 40.5045 252.885 40.869 252.252C41.2335 251.619 54.2787 256.568 54.2787 256.568Z" fill="white"/>
<path d="M50.4801 284.117C50.2368 284.116 49.9981 284.05 49.7895 283.925C46.2596 281.891 46.6241 277.095 46.9503 275.1L34.8067 272.529C34.6875 272.501 34.5752 272.449 34.4764 272.376C34.3776 272.304 34.2942 272.212 34.2312 272.107C34.1455 271.885 34.1455 271.639 34.2312 271.417C36.3031 264.357 39.8522 252.444 40.2167 251.811C40.5812 251.177 40.9456 250.525 54.6815 255.762C54.8565 255.821 55.0075 255.935 55.1114 256.088C55.2154 256.24 55.2665 256.422 55.257 256.607C54.9501 264.28 53.9525 282.448 51.2283 283.944C51.0023 284.076 50.7413 284.137 50.4801 284.117ZM36.0921 270.995L48.1589 273.546C48.3948 273.603 48.6004 273.747 48.7344 273.949C48.8189 274.165 48.8189 274.405 48.7344 274.62C48.7344 274.62 47.3723 280.222 50.3267 282.294C51.5928 280.376 52.8206 268.175 53.281 257.201C48.3507 255.283 43.0367 253.499 41.3869 253.153C40.7538 255.283 38.0488 264.376 36.0921 270.995Z" fill="#121116"/>
<path d="M74.3637 415.585C74.3637 415.585 73.2894 433.311 73.347 440.026C73.4045 446.74 73.3469 453.052 81.2316 451.536C85.5289 450.75 109.125 444.784 106.958 440.39C104.79 435.997 89.4616 434.865 89.4616 434.865L90.8429 414.607" fill="white"/>
<path d="M79.1422 452.687C77.7096 452.755 76.3004 452.305 75.1711 451.421C72.5621 449.273 72.5237 444.918 72.4854 440.314V440.045C72.4854 433.369 73.4829 415.72 73.4829 415.528C73.4902 415.414 73.5199 415.303 73.5702 415.201C73.6205 415.099 73.6904 415.008 73.776 414.933C73.8615 414.859 73.961 414.801 74.0688 414.765C74.1765 414.729 74.2903 414.714 74.4038 414.722C74.5198 414.724 74.6341 414.75 74.7395 414.798C74.845 414.847 74.9394 414.916 75.0168 415.003C75.0942 415.089 75.153 415.191 75.1894 415.301C75.2259 415.411 75.2392 415.527 75.2287 415.643C75.2287 415.815 74.1736 433.407 74.2311 440.026V440.294C74.2311 444.476 74.2311 448.448 76.2838 450.078C76.9864 450.532 77.7795 450.827 78.6078 450.943C79.436 451.059 80.2796 450.993 81.0798 450.75C86.6432 449.714 104.427 444.764 106.134 441.369C106.182 441.291 106.207 441.201 106.207 441.11C106.207 441.018 106.182 440.929 106.134 440.851C104.715 437.992 95.1034 436.246 89.3674 435.824C89.1366 435.805 88.9227 435.695 88.772 435.519C88.6213 435.344 88.5457 435.116 88.5616 434.884L89.9429 414.626C89.9624 414.397 90.0685 414.184 90.2397 414.031C90.4108 413.878 90.634 413.795 90.8637 413.801C91.0961 413.821 91.3118 413.93 91.4656 414.105C91.6195 414.28 91.6994 414.508 91.6886 414.741L90.3649 434.136C93.914 434.462 105.712 435.863 107.631 440.083C107.796 440.404 107.882 440.759 107.882 441.119C107.882 441.48 107.796 441.835 107.631 442.155C105.002 447.373 81.5402 452.419 81.31 452.457C80.5959 452.599 79.8703 452.676 79.1422 452.687Z" fill="#121116"/>
<path d="M129.501 417.696C129.501 417.696 128.426 435.422 128.484 442.136C128.541 448.851 128.484 455.162 136.369 453.647C140.666 452.86 166.123 448.793 163.955 444.4C161.787 440.007 144.598 436.976 144.598 436.976L145.98 416.717" fill="white"/>
<path d="M134.277 454.797C132.844 454.865 131.435 454.415 130.306 453.531C127.697 451.383 127.658 447.028 127.62 442.424V442.117C127.62 435.441 128.618 417.791 128.618 417.619C128.633 417.388 128.737 417.172 128.91 417.018C129.082 416.864 129.308 416.783 129.539 416.794C129.655 416.796 129.769 416.822 129.874 416.87C129.98 416.918 130.074 416.988 130.152 417.074C130.229 417.161 130.288 417.262 130.324 417.372C130.361 417.482 130.374 417.599 130.363 417.714C130.363 417.887 129.308 435.498 129.366 442.097V442.366C129.366 446.548 129.366 450.519 131.419 452.15C132.121 452.604 132.914 452.899 133.743 453.015C134.571 453.131 135.414 453.065 136.215 452.821L137.557 452.572C157.375 449.1 162.497 446.625 163.149 445.148C163.149 444.994 163.149 444.918 163.149 444.822C161.71 441.925 150.91 439.066 144.425 437.877C144.212 437.844 144.019 437.73 143.887 437.558C143.755 437.387 143.693 437.171 143.716 436.956L145.097 416.698C145.116 416.469 145.222 416.256 145.394 416.103C145.565 415.949 145.788 415.867 146.018 415.873C146.25 415.892 146.466 416.001 146.62 416.177C146.773 416.352 146.853 416.58 146.843 416.813L145.538 436.361C149.221 437.052 162.65 439.853 164.722 444.035C164.88 444.33 164.963 444.66 164.963 444.994C164.963 445.329 164.88 445.658 164.722 445.954C163.322 448.735 155.13 451.306 137.864 454.318L136.541 454.567C135.794 454.706 135.037 454.783 134.277 454.797Z" fill="#121116"/>
<path d="M72.0815 215.495C72.0815 215.495 66.6332 404.343 69.5108 420.496C69.5108 420.496 80.5801 432.985 94.9298 426.75L113.097 273.584L122.689 426.616C122.689 426.616 131.878 435.748 151.139 420.573V208.819L72.0815 215.495Z" fill="#121116"/>
<path d="M131.035 430.338C127.745 430.508 124.514 429.417 122 427.288C121.829 427.127 121.726 426.908 121.712 426.674L112.83 284.232L95.9285 426.866C95.9047 427.032 95.8396 427.189 95.739 427.323C95.6384 427.457 95.5056 427.564 95.3529 427.633C80.5236 434.06 68.9364 421.264 68.8213 421.13C68.7034 420.993 68.6239 420.828 68.5911 420.65C65.7519 404.593 70.9507 223.169 71.1618 215.38C71.1744 215.146 71.2704 214.925 71.4323 214.756C71.5943 214.587 71.8113 214.482 72.0442 214.459L151.044 207.783C151.177 207.773 151.31 207.79 151.435 207.833C151.56 207.876 151.675 207.945 151.773 208.036C151.87 208.126 151.948 208.235 152.001 208.357C152.054 208.478 152.081 208.61 152.08 208.742V420.573C152.081 420.72 152.049 420.866 151.986 420.999C151.923 421.131 151.83 421.248 151.716 421.341C142.757 428.381 135.889 430.338 131.035 430.338ZM123.611 426.156C125.165 427.422 133.644 432.947 150.162 420.113V209.855L73.061 216.378C72.6773 230.152 67.8237 403.077 70.452 420.055C71.9291 421.628 81.5979 431.144 94.0868 426.079L112.177 273.47C112.182 273.348 112.211 273.23 112.264 273.12C112.316 273.011 112.391 272.914 112.483 272.834C112.575 272.755 112.682 272.696 112.798 272.66C112.913 272.624 113.035 272.612 113.156 272.625C113.394 272.629 113.622 272.722 113.796 272.885C113.97 273.048 114.077 273.27 114.096 273.508L123.611 426.156Z" fill="#121116"/>
<path d="M233.019 134.001C233.019 134.001 243.531 128.054 244.299 127.402C245.066 126.749 248.73 117.023 249.325 116.39C249.92 115.757 251.397 114.606 251.896 115.949C252.394 117.292 251.32 124.754 251.32 124.754C251.32 124.754 264.25 114.644 265.152 115.162C266.054 115.68 266.725 116.85 264.692 119.69C262.855 121.886 260.687 123.783 258.265 125.31C258.265 125.31 262.811 130.413 262.102 132.159C261.392 133.905 244.145 145.473 244.145 145.473" fill="white"/>
<path d="M244.22 146.394C244.076 146.398 243.933 146.364 243.806 146.297C243.678 146.23 243.57 146.131 243.491 146.01C243.426 145.915 243.379 145.807 243.356 145.693C243.332 145.58 243.33 145.463 243.352 145.349C243.373 145.235 243.417 145.126 243.48 145.029C243.544 144.932 243.626 144.848 243.721 144.782C251.894 139.315 260.718 132.984 261.371 131.852C261.582 131.219 259.798 128.38 257.534 125.924C257.448 125.829 257.385 125.716 257.348 125.593C257.312 125.471 257.303 125.341 257.323 125.215C257.339 125.089 257.384 124.968 257.454 124.862C257.524 124.755 257.617 124.666 257.726 124.601C260.05 123.14 262.134 121.328 263.903 119.229C265.054 117.599 265.131 116.812 265.054 116.486C265.025 116.345 264.951 116.217 264.843 116.121C260.286 118.936 255.922 122.051 251.779 125.445C251.635 125.544 251.464 125.597 251.289 125.597C251.115 125.597 250.944 125.544 250.8 125.445C250.649 125.357 250.527 125.226 250.448 125.069C250.37 124.913 250.339 124.736 250.359 124.562C250.875 121.806 251.087 119.001 250.992 116.198C250.877 116.198 250.359 116.428 249.899 116.927C249.438 117.426 248.728 119.498 247.98 121.32C246.062 126.04 245.314 127.574 244.796 128.016C244.278 128.457 235.204 133.771 233.285 134.711C233.083 134.807 232.852 134.823 232.639 134.755C232.426 134.688 232.246 134.542 232.137 134.347C232.027 134.152 231.995 133.922 232.048 133.705C232.101 133.488 232.235 133.299 232.422 133.176C236.451 130.912 243.031 127.133 243.587 126.653C244.591 124.702 245.488 122.698 246.273 120.649C246.863 118.941 247.621 117.296 248.537 115.738C248.882 115.373 250.11 114.203 251.299 114.414C251.593 114.483 251.865 114.627 252.087 114.832C252.309 115.037 252.474 115.296 252.565 115.584C252.821 117.95 252.737 120.34 252.316 122.682C264.114 113.589 264.901 114.069 265.457 114.395C265.77 114.568 266.042 114.807 266.254 115.095C266.466 115.383 266.613 115.713 266.685 116.064C266.74 116.812 266.643 117.563 266.399 118.272C266.155 118.981 265.769 119.633 265.265 120.188C263.629 122.232 261.688 124.012 259.51 125.464C261.121 127.382 263.558 130.682 262.925 132.428C262.292 134.174 249.899 142.653 244.623 146.183C244.508 146.285 244.37 146.358 244.22 146.394Z" fill="#121116"/>
<path d="M142.046 123.354C142.046 123.354 123.418 117.253 74.3646 126.673C65.8469 128.303 61.9333 207.725 68.36 255.494L154.286 254.784C154.286 254.784 168.463 129.972 142.046 123.354Z" fill="#FF794E"/>
<path d="M71.122 115.182C71.122 115.182 52.5326 174.652 51.3432 179.928C50.1538 185.204 37.5498 255.226 37.5498 255.226L57.0792 261.787C57.0792 261.787 85.395 196.33 83.5917 177.952C81.7884 159.574 71.122 115.182 71.122 115.182Z" fill="#FF794E"/>
<path d="M140.435 123.392C155.379 124.812 186.477 160.897 189.009 159.842C191.541 158.787 237.621 127.229 237.621 127.229L252.201 143.19C252.201 143.19 207.56 194.987 198.486 200.474C184.52 208.819 125.222 170.835 125.222 170.835C125.222 170.835 125.49 121.953 140.435 123.392Z" fill="#FF794E"/>
<path d="M48.044 274.697C48.044 274.697 42.001 271.417 44.6676 265.853L48.044 274.697Z" fill="white"/>
<path d="M48.0443 275.58C47.8962 275.578 47.751 275.538 47.6222 275.465C45.2818 274.199 41.4833 270.477 43.7854 265.47C43.8872 265.259 44.0686 265.097 44.2899 265.019C44.5111 264.942 44.7541 264.956 44.9652 265.057C45.1764 265.159 45.3384 265.341 45.4158 265.562C45.4931 265.783 45.4794 266.026 45.3777 266.237C43.0948 270.995 48.1594 273.911 48.3704 273.911C48.5388 274.006 48.6711 274.155 48.7469 274.333C48.8227 274.511 48.8377 274.709 48.7897 274.897C48.7417 275.085 48.6334 275.251 48.4813 275.371C48.3293 275.491 48.142 275.558 47.9483 275.561L48.0443 275.58Z" fill="#121116"/>
<path d="M185.805 201.606H185.632C176.251 199.687 157.892 188.829 133.835 170.911L132.742 170.086C132.551 169.957 132.417 169.759 132.371 169.533C132.324 169.307 132.368 169.072 132.492 168.878C132.615 168.69 132.805 168.557 133.023 168.507C133.242 168.457 133.471 168.493 133.663 168.609C134.087 168.889 134.497 169.19 134.89 169.511C158.679 187.295 176.789 198.114 185.92 199.918C186.149 199.964 186.35 200.099 186.479 200.293C186.609 200.487 186.656 200.725 186.611 200.954C186.56 201.132 186.455 201.29 186.311 201.407C186.167 201.524 185.99 201.593 185.805 201.606Z" fill="#121116"/>
<path d="M135.735 86.6549C134.486 86.6549 133.266 86.2847 132.228 85.5912C131.19 84.8977 130.381 83.9119 129.903 82.7587C129.426 81.6054 129.301 80.3363 129.544 79.112C129.788 77.8877 130.389 76.7631 131.272 75.8804C132.154 74.9977 133.279 74.3965 134.503 74.153C135.728 73.9095 136.997 74.0345 138.15 74.5122C139.303 74.9899 140.289 75.7989 140.982 76.8368C141.676 77.8747 142.046 79.095 142.046 80.3433C142.046 82.0172 141.381 83.6226 140.197 84.8063C139.014 85.9899 137.408 86.6549 135.735 86.6549ZM135.735 75.9501C134.866 75.9501 134.016 76.2078 133.294 76.6905C132.571 77.1733 132.008 77.8594 131.676 78.6621C131.343 79.4649 131.256 80.3482 131.426 81.2004C131.595 82.0526 132.014 82.8354 132.628 83.4497C133.242 84.0641 134.025 84.4826 134.877 84.6521C135.73 84.8216 136.613 84.7346 137.416 84.4021C138.218 84.0696 138.905 83.5065 139.387 82.784C139.87 82.0616 140.128 81.2122 140.128 80.3433C140.128 79.7664 140.014 79.1951 139.793 78.6621C139.573 78.1291 139.249 77.6448 138.841 77.2369C138.433 76.8289 137.949 76.5053 137.416 76.2846C136.883 76.0638 136.311 75.9501 135.735 75.9501Z" fill="#121116"/>
<path d="M133.164 84.5059C133.164 84.5059 139.398 94.7885 137.96 96.8029C136.521 98.8172 132.013 97.2825 132.013 97.2825" fill="white"/>
<path d="M135.256 98.7213C134.043 98.6911 132.841 98.4843 131.688 98.1074C131.433 98.0234 131.223 97.8419 131.102 97.6026C130.982 97.3634 130.961 97.0861 131.045 96.8317C131.129 96.5773 131.311 96.3666 131.55 96.2461C131.789 96.1256 132.066 96.105 132.321 96.189C133.568 96.6302 136.388 97.1482 137.174 96.0739C137.673 95.1531 135.429 89.8966 132.359 84.832C132.293 84.7265 132.248 84.6088 132.227 84.4858C132.207 84.3627 132.211 84.2369 132.239 84.1154C132.268 83.994 132.32 83.8795 132.394 83.7786C132.467 83.6776 132.559 83.5923 132.666 83.5275C132.773 83.4605 132.892 83.4153 133.017 83.3945C133.141 83.3737 133.269 83.3776 133.392 83.4061C133.515 83.4347 133.631 83.4872 133.733 83.5607C133.836 83.6342 133.923 83.7272 133.99 83.8344C135.908 87.0957 140.378 94.9036 138.728 97.2633C138.311 97.7695 137.777 98.1667 137.172 98.4207C136.567 98.6747 135.91 98.7778 135.256 98.7213Z" fill="#121116"/>
<path d="M132.262 71.2308C136.349 74.8182 134.852 82.0507 134.622 86.7699C134.315 93.4204 133.855 100.065 133.241 106.702C132.857 110.904 121.941 110.539 120.061 109.235L122.363 119.767L98.5175 116.275L99.9947 102.539C99.9947 102.539 98.46 83.3552 103.064 74.9909C104.401 72.5671 106.388 70.5647 108.801 69.209C111.214 67.8532 113.958 67.1981 116.723 67.3173C116.723 67.3173 128.272 67.7009 132.262 71.2308Z" fill="white"/>
<path d="M122.362 120.726H122.228L98.3821 117.234C98.1376 117.196 97.9173 117.065 97.7672 116.869C97.617 116.672 97.5487 116.425 97.5763 116.179L99.0343 102.443C99.0343 101.829 97.538 83.1057 102.219 74.5304C103.631 71.9334 105.75 69.7893 108.33 68.3465C110.911 66.9036 113.847 66.2208 116.799 66.3771C117.24 66.3771 128.712 66.7992 132.894 70.5017C136.731 73.8206 136.156 79.6142 135.772 84.2759C135.772 85.1776 135.618 86.0409 135.58 86.8274C135.273 93.4651 134.813 100.256 134.199 106.779C134.112 107.511 133.816 108.202 133.346 108.77C132.877 109.338 132.254 109.759 131.551 109.983C128.289 111.164 124.762 111.416 121.365 110.712L123.283 119.575C123.314 119.724 123.31 119.878 123.27 120.024C123.23 120.171 123.155 120.306 123.053 120.419C122.965 120.515 122.859 120.592 122.74 120.645C122.621 120.698 122.492 120.725 122.362 120.726ZM99.5715 115.469L121.134 118.615L119.216 109.445C119.173 109.258 119.189 109.062 119.261 108.883C119.333 108.705 119.458 108.553 119.619 108.448C119.779 108.336 119.97 108.277 120.166 108.277C120.361 108.277 120.552 108.336 120.712 108.448C124.024 109.468 127.576 109.394 130.842 108.237C131.801 107.796 132.319 107.239 132.376 106.587C132.99 100.007 133.451 93.3308 133.758 86.7123C133.758 85.9066 133.873 85.0241 133.949 84.1032C134.314 79.8636 134.755 74.5112 131.724 71.9213C128.041 68.6792 116.895 68.2764 116.799 68.2764C114.209 68.1434 111.634 68.7445 109.37 70.0104C107.106 71.2763 105.246 73.1556 104.003 75.432C99.5907 83.5085 101.029 102.29 101.049 102.443L99.5715 115.469Z" fill="#121116"/>
<path d="M93.8369 119.517L96.0815 112.246L125.356 115.066L127.025 121.742C121.672 123.843 115.92 124.732 110.182 124.347C104.444 123.963 98.8623 122.313 93.8369 119.517Z" fill="white"/>
<path d="M113.098 125.407C106.215 125.374 99.4474 123.641 93.3961 120.361C93.1997 120.255 93.0464 120.085 92.9623 119.878C92.8783 119.671 92.8689 119.442 92.9357 119.229L95.1035 111.958C95.172 111.748 95.3099 111.567 95.4946 111.445C95.6792 111.323 95.8998 111.267 96.1202 111.287L125.453 114.069C125.647 114.087 125.831 114.165 125.978 114.292C126.126 114.419 126.231 114.589 126.278 114.779L127.966 121.455C128.018 121.669 127.995 121.894 127.901 122.093C127.807 122.292 127.647 122.453 127.448 122.548C122.915 124.487 118.028 125.46 113.098 125.407ZM95.1035 119.037C99.8272 121.5 105.008 122.962 110.323 123.332C115.637 123.702 120.971 122.971 125.99 121.186L124.685 115.968L96.8684 113.263L95.1035 119.037Z" fill="#121116"/>
<path d="M108.166 104.266C108.166 115.565 119.523 138.413 109.778 147.392C100.627 155.833 84.8385 158.039 73.0211 156.734C55.7554 154.816 46.6813 142.864 53.837 126.04C57.3093 117.829 63.4291 111.057 68.5129 103.729C72.9871 97.2759 76.7439 90.3543 79.7164 83.0865C82.2487 76.9284 84.1287 69.6576 87.5435 63.9024C95.102 51.1642 108.454 46.1763 122.497 50.2817C128.521 52.0466 140.108 59.2982 137.269 67.1445C136.578 69.0629 134.218 71.9597 132.338 71.154C131.801 74.8757 129.403 76.6598 126.487 79.0387C123.426 81.2962 120.243 83.384 116.953 85.2927C114.713 86.6253 112.758 88.3852 111.197 90.4724C109.49 93.3192 108.503 96.5391 108.32 99.8534C108.183 101.32 108.132 102.793 108.166 104.266Z" fill="white"/>
<path d="M79.3715 158.039C77.2183 158.036 75.0668 157.921 72.9256 157.693C63.6022 156.696 56.5232 152.782 52.9358 146.72C49.3484 140.658 49.521 133.656 52.9358 125.617C55.7308 119.68 59.242 114.107 63.3911 109.023C64.8491 107.105 66.3071 105.186 67.7076 103.134C72.1365 96.7305 75.8607 89.8675 78.8152 82.6642C79.6401 80.6307 80.3883 78.5397 81.1748 76.3143C82.606 71.8587 84.456 67.5486 86.6998 63.4418C90.1445 57.2811 95.6252 52.5107 102.202 49.9485C108.779 47.3864 116.042 47.1921 122.747 49.399C127.236 50.7035 134.814 55.0199 137.576 60.4682C138.164 61.5344 138.52 62.7132 138.619 63.9268C138.718 65.1404 138.559 66.3612 138.152 67.5088C137.455 69.4183 136.093 71.0123 134.315 71.9979C133.925 72.1637 133.51 72.261 133.087 72.2856C132.281 75.5853 130.037 77.4078 127.466 79.4989L127.063 79.825C125.066 81.3909 122.957 82.808 120.752 84.0647C119.677 84.7169 118.603 85.3692 117.548 85.9831C115.401 87.2976 113.531 89.0179 112.042 91.0477C110.436 93.7674 109.508 96.8337 109.337 99.9875C109.178 101.421 109.107 102.862 109.126 104.304C109.464 108.905 110.287 113.458 111.582 117.886C114.325 129.032 117.337 141.675 110.431 148.12C102.392 155.506 89.8077 158.039 79.3715 158.039ZM113.02 49.917C107.978 49.921 103.027 51.2708 98.68 53.8271C94.333 56.3834 90.747 60.0535 88.2921 64.4585C86.1175 68.4656 84.3193 72.6657 82.9206 77.0049C82.1724 79.1535 81.3666 81.4556 80.5225 83.3741C77.5309 90.7118 73.7417 97.6984 69.2231 104.208C67.8227 106.126 66.3455 108.198 64.8491 110.155C60.8084 115.122 57.3817 120.559 54.6432 126.346C51.5354 133.752 51.5162 140.447 54.6432 145.684C57.9045 151.228 64.4846 154.796 73.175 155.737C83.9757 156.907 99.8793 155.219 109.184 146.624C115.342 140.869 112.387 128.879 109.778 118.251C108.435 113.675 107.593 108.966 107.265 104.208C107.243 102.702 107.32 101.196 107.495 99.6997C107.667 96.2522 108.681 92.8993 110.45 89.935C112.056 87.7454 114.085 85.8995 116.416 84.5059C117.49 83.7961 118.584 83.1247 119.677 82.4724C121.811 81.2499 123.856 79.878 125.797 78.367L126.2 78.0601C128.905 75.8539 130.842 74.2232 131.322 71.077C131.345 70.9333 131.401 70.7967 131.485 70.6776C131.569 70.5586 131.679 70.4602 131.806 70.3899C131.934 70.3197 132.076 70.2794 132.221 70.2721C132.367 70.2649 132.512 70.2908 132.646 70.348C132.916 70.4589 133.219 70.4589 133.49 70.348C134.784 69.5785 135.774 68.3859 136.291 66.9716C136.609 66.0697 136.731 65.1102 136.648 64.1573C136.565 63.2045 136.28 62.2803 135.811 61.4466C133.336 56.5547 126.219 52.526 122.152 51.3558C119.192 50.445 116.117 49.9605 113.02 49.917Z" fill="#121116"/>
<path d="M133.28 101.733C133.28 101.733 128.005 104.707 125.453 99.2585L133.28 101.733Z" fill="white"/>
<path d="M130.095 103.498C129.49 103.503 128.888 103.413 128.311 103.23C127.474 102.937 126.709 102.469 126.068 101.857C125.426 101.245 124.922 100.503 124.59 99.6809C124.535 99.5662 124.504 99.4421 124.498 99.3154C124.492 99.1888 124.511 99.0622 124.554 98.9428C124.596 98.8235 124.662 98.7137 124.747 98.6198C124.833 98.5259 124.935 98.4497 125.05 98.3955C125.165 98.3414 125.289 98.3103 125.415 98.3041C125.542 98.2979 125.669 98.3168 125.788 98.3595C125.907 98.4023 126.017 98.4681 126.111 98.5533C126.205 98.6385 126.281 98.7413 126.335 98.8559C126.555 99.4351 126.894 99.9617 127.33 100.401C127.766 100.841 128.29 101.184 128.868 101.407C130.198 101.717 131.595 101.533 132.8 100.889C132.911 100.829 133.033 100.79 133.159 100.777C133.284 100.763 133.411 100.775 133.532 100.81C133.654 100.846 133.767 100.905 133.865 100.985C133.963 101.064 134.045 101.162 134.105 101.273C134.169 101.381 134.21 101.5 134.226 101.624C134.242 101.748 134.233 101.874 134.199 101.994C134.165 102.114 134.106 102.226 134.028 102.323C133.949 102.42 133.851 102.5 133.74 102.558C132.618 103.159 131.368 103.481 130.095 103.498Z" fill="#121116"/>
<path d="M105.75 88.4387C105.668 88.4569 105.582 88.4569 105.5 88.4387C105.257 88.3713 105.05 88.2107 104.924 87.9916C104.798 87.7725 104.764 87.5126 104.829 87.2685C105.865 83.681 106.632 83.6235 107.093 83.5851C107.553 83.5467 129.538 80.8418 140.972 79.4413C141.223 79.4087 141.478 79.4771 141.679 79.6318C141.881 79.7864 142.013 80.0146 142.046 80.2662C142.073 80.52 142 80.7744 141.843 80.9751C141.685 81.1759 141.455 81.307 141.202 81.3406C137.979 81.7434 110.891 85.1774 107.553 85.4651C107.185 86.2065 106.895 86.9846 106.69 87.7864C106.621 87.98 106.494 88.1472 106.325 88.2643C106.156 88.3814 105.955 88.4424 105.75 88.4387Z" fill="#121116"/>
<path d="M120.253 88.2855C120.128 86.6123 119.544 85.006 118.565 83.6429C117.954 82.4996 117.179 81.4524 116.263 80.5351C115.802 80.0824 115.246 79.7375 114.636 79.5252C114.025 79.3129 113.376 79.2385 112.733 79.3073C112.173 79.4203 111.643 79.6494 111.177 79.9798C110.711 80.3103 110.32 80.7347 110.028 81.2257C109.48 82.232 109.153 83.344 109.069 84.4871C108.865 86.9877 109.321 89.4981 110.392 91.7672C111.462 94.0363 113.11 95.9846 115.169 97.4171L114.824 96.9951" fill="white"/>
<path d="M115.169 98.4145C114.977 98.4109 114.79 98.3509 114.632 98.2418C112.44 96.7088 110.686 94.6295 109.546 92.21C108.405 89.7906 107.916 87.1149 108.128 84.4484C108.207 83.1533 108.581 81.8933 109.222 80.7651C109.572 80.148 110.052 79.6141 110.628 79.2001C111.204 78.7861 111.863 78.5019 112.56 78.3671C113.349 78.2676 114.15 78.347 114.904 78.5994C115.657 78.8518 116.345 79.2707 116.915 79.8251C117.903 80.8066 118.738 81.932 119.389 83.1631C120.497 84.6638 121.162 86.445 121.308 88.3044C121.289 88.5541 121.179 88.7881 120.998 88.9615C120.818 89.135 120.58 89.2357 120.329 89.2445C120.203 89.242 120.079 89.2147 119.964 89.1642C119.848 89.1136 119.744 89.0409 119.657 88.95C119.569 88.8592 119.501 88.752 119.455 88.6346C119.409 88.5173 119.387 88.3921 119.389 88.2661C119.258 86.7751 118.721 85.3486 117.836 84.1415C117.277 83.0785 116.566 82.1026 115.725 81.2447C115.367 80.8903 114.936 80.6177 114.463 80.4455C113.989 80.2733 113.484 80.2056 112.982 80.2471C112.556 80.3437 112.155 80.5284 111.805 80.7895C111.454 81.0505 111.163 81.382 110.948 81.7627C110.463 82.6418 110.181 83.6186 110.124 84.6211C109.946 86.7943 110.301 88.9779 111.156 90.9834C112.012 92.9888 113.343 94.7558 115.035 96.1316C115.154 96.1415 115.27 96.1756 115.375 96.2316C115.481 96.2877 115.574 96.3646 115.649 96.4577L115.994 96.8606C116.148 97.0356 116.232 97.2606 116.232 97.4936C116.232 97.7266 116.148 97.9517 115.994 98.1267C115.887 98.2341 115.757 98.3158 115.615 98.3657C115.472 98.4155 115.319 98.4322 115.169 98.4145Z" fill="#121116"/>
<path d="M131.456 81.64C131.975 81.6318 132.379 80.5603 132.359 79.2467C132.338 77.9331 131.9 76.8748 131.381 76.8829C130.862 76.8911 130.458 77.9626 130.479 79.2762C130.499 80.5899 130.937 81.6482 131.456 81.64Z" fill="#121116"/>
<path d="M66.9992 244.041C66.7786 244.046 66.5646 243.965 66.4033 243.814C66.2419 243.664 66.1459 243.456 66.136 243.235C64.4669 220.809 67.805 160.744 67.8433 160.149C67.8482 160.034 67.876 159.921 67.9253 159.817C67.9745 159.712 68.044 159.619 68.1298 159.542C68.2157 159.465 68.316 159.407 68.4249 159.369C68.5339 159.332 68.6492 159.316 68.7642 159.324C68.9965 159.344 69.2123 159.452 69.3661 159.628C69.5199 159.803 69.5998 160.031 69.5891 160.264C69.5891 160.859 66.2127 220.79 67.8817 243.101C67.8976 243.332 67.8221 243.56 67.6714 243.736C67.5206 243.912 67.3068 244.021 67.076 244.041H66.9992Z" fill="#121116"/>
<path d="M75.0741 245.94C74.8649 245.909 74.6738 245.804 74.5356 245.643C74.3974 245.483 74.3214 245.279 74.3214 245.067C74.3214 244.856 74.3974 244.651 74.5356 244.491C74.6738 244.331 74.8649 244.225 75.0741 244.194L151.811 240.357C151.927 240.35 152.044 240.366 152.154 240.404C152.264 240.443 152.366 240.503 152.452 240.582C152.538 240.661 152.607 240.757 152.655 240.863C152.703 240.97 152.729 241.085 152.731 241.202C152.737 241.434 152.652 241.66 152.495 241.832C152.337 242.003 152.12 242.108 151.887 242.122L75.1509 245.959L75.0741 245.94Z" fill="#121116"/>
</svg>
